
<?xml version="1.0" encoding="UTF-8"?>
<svg width="22px" height="22px" viewBox="0 0 77 77" version="1.1" xmlns="http://www.w3.org/2000/svg" xmlns:xlink="http://www.w3.org/1999/xlink">
    <!-- Generator: Sketch 54.1 (76490) - https://sketchapp.com -->
    <title>vinyl</title>
    <desc>Created with Sketch.</desc>
    <g id="vinyl" stroke="none" stroke-width="1" fill="none" fill-rule="evenodd">
        <path d="M12.5191412,66.7170568 C-3.17085875,52.4670568 -4.25085875,28.1370568 10.0591412,12.5270568 C24.3091412,-3.16294325 48.5691412,-4.26294325 64.2491412,10.0670568 C79.8491412,24.3770568 81.0391412,48.5770568 66.7091412,64.2570568 C52.3991412,79.8570568 28.1291412,81.0270568 12.5191412,66.7170568" id="Path" fill="#241F20" fill-rule="nonzero"></path>
        <path d="M14.2291412,63.9870568 C0.0591412486,51.0970568 -0.920858751,29.0770568 11.9791412,14.9070568 C24.8791412,0.737056753 46.8891412,-0.242943247 61.0591412,12.6570568" id="Path" fill="#747374" fill-rule="nonzero"></path>
        <path d="M2.32914125,37.9870568 C1.84914125,18.8170568 17.0791412,2.88705675 36.2391412,2.47705675 C55.4091412,1.99705675 71.3391412,17.2270568 71.7491412,36.3870568" id="Path" fill="#010202" fill-rule="nonzero"></path>
        <path d="M27.7291412,49.9870568 C21.2991412,44.1270568 20.8391412,34.2270568 26.6991412,27.7970568 C32.5591412,21.3670568 42.4591412,20.9070568 48.8891412,26.7670568 C55.3191412,32.6270568 55.7791412,42.5270568 49.9191412,48.9570568 C44.1291412,55.3970568 34.1491412,55.8570568 27.7291412,49.9870568" id="Path" fill="#FFE73F" fill-rule="nonzero"></path>
        <path d="M36.5591412,40.3970568 C35.4491412,39.4270568 35.4091412,37.6770568 36.3791412,36.5670568 C37.3491412,35.4570568 39.0991412,35.4170568 40.2091412,36.3870568 C41.3191412,37.3570568 41.3591412,39.1070568 40.3891412,40.2170568 C39.3391412,41.3170568 37.6691412,41.3670568 36.5591412,40.3970568" id="Path" fill="#241F20" fill-rule="nonzero"></path>
        <rect id="Rectangle" fill="#241F20" fill-rule="nonzero" transform="translate(45.094545, 45.105101) rotate(-47.711281) translate(-45.094545, -45.105101) " x="37.5241726" y="44.3700651" width="15.1407452" height="1.47007236"></rect>
        <g id="Group" transform="translate(12.979141, 52.307057)" fill="#FFFFFF" fill-rule="nonzero">
            <path d="M2.21,3.23 L0.55,4.45 L0.1,3.83 L4.19,0.83 L4.7,1.53 C4.95,1.87 5.12,2.15 5.2,2.36 C5.28,2.57 5.31,2.79 5.27,3.03 C5.21,3.43 5.01,3.76 4.66,4.02 C4.29,4.29 3.9,4.39 3.49,4.3 C3.09,4.21 2.73,3.95 2.42,3.53 L2.21,3.23 Z M2.78,2.81 L2.95,3.04 C3.37,3.61 3.79,3.73 4.23,3.41 C4.65,3.1 4.65,2.65 4.22,2.07 L4.07,1.87 L2.78,2.81 Z" id="Shape"></path>
            <path d="M4.71,5.73 C5.19,5.2 5.8,4.93 6.53,4.9 C7.26,4.87 7.9,5.11 8.44,5.6 C8.98,6.09 9.26,6.7 9.29,7.43 C9.33,8.16 9.1,8.8 8.61,9.33 C8.12,9.87 7.51,10.15 6.78,10.18 C6.05,10.21 5.41,9.97 4.86,9.47 C4.38,9.03 4.09,8.46 4.01,7.78 C3.93,7.01 4.16,6.33 4.71,5.73 Z M5.28,6.26 C4.9,6.68 4.73,7.14 4.77,7.66 C4.8,8.18 5,8.6 5.36,8.94 C5.75,9.3 6.21,9.47 6.73,9.44 C7.25,9.41 7.69,9.2 8.05,8.8 C8.42,8.4 8.59,7.94 8.57,7.43 C8.55,6.92 8.35,6.48 7.96,6.12 C7.57,5.77 7.12,5.6 6.6,5.63 C6.07,5.65 5.64,5.86 5.28,6.26 Z" id="Shape"></path>
            <path d="M13.56,10.24 L12.84,10.24 C12.84,10.01 12.81,9.84 12.75,9.73 C12.69,9.61 12.59,9.51 12.44,9.42 C12.26,9.31 12.07,9.27 11.89,9.31 C11.71,9.34 11.57,9.43 11.48,9.59 C11.35,9.8 11.41,10.07 11.65,10.39 L11.98,10.83 C12.25,11.18 12.41,11.51 12.45,11.81 C12.49,12.11 12.43,12.42 12.25,12.72 C12.01,13.12 11.68,13.37 11.26,13.48 C10.83,13.58 10.42,13.52 10.02,13.28 C9.64,13.06 9.39,12.76 9.28,12.39 C9.17,12.02 9.2,11.62 9.38,11.17 L10.13,11.42 C10.01,11.69 9.96,11.9 9.97,12.04 C9.99,12.31 10.14,12.52 10.4,12.67 C10.61,12.79 10.82,12.82 11.04,12.77 C11.26,12.71 11.43,12.58 11.55,12.37 C11.6,12.29 11.63,12.2 11.65,12.12 C11.67,12.03 11.67,11.95 11.66,11.86 C11.64,11.77 11.61,11.68 11.56,11.58 C11.51,11.48 11.45,11.38 11.36,11.26 L11.04,10.84 C10.59,10.23 10.51,9.69 10.8,9.2 C10.99,8.87 11.28,8.67 11.66,8.6 C12.04,8.53 12.42,8.6 12.79,8.82 C13.32,9.11 13.57,9.59 13.56,10.24 Z" id="Path"></path>
            <polygon id="Path" points="16.47 11.45 14.88 15.51 14.17 15.23 15.76 11.17 14.67 10.75 14.93 10.08 17.81 11.21 17.55 11.88"></polygon>
            <path d="M24.1,16.24 L21.94,16.03 L21.26,17.2 L20.44,17.12 L23.46,11.99 L25.35,17.59 L24.52,17.51 L24.1,16.24 Z M23.86,15.49 L23.28,13.7 L22.33,15.34 L23.86,15.49 Z" id="Shape"></path>
            <path d="M32.53,12.39 L31.99,12.87 C31.84,12.69 31.7,12.59 31.59,12.55 C31.47,12.5 31.32,12.5 31.15,12.53 C30.94,12.57 30.78,12.66 30.67,12.81 C30.56,12.95 30.52,13.11 30.55,13.29 C30.6,13.53 30.82,13.69 31.21,13.77 L31.75,13.88 C32.19,13.96 32.52,14.11 32.76,14.3 C32.99,14.5 33.14,14.77 33.21,15.11 C33.3,15.57 33.22,15.98 32.98,16.34 C32.73,16.7 32.38,16.93 31.92,17.02 C31.49,17.1 31.11,17.05 30.77,16.85 C30.44,16.65 30.2,16.32 30.04,15.87 L30.77,15.55 C30.86,15.84 30.96,16.03 31.07,16.12 C31.27,16.3 31.51,16.37 31.81,16.31 C32.04,16.27 32.22,16.15 32.35,15.96 C32.48,15.77 32.51,15.56 32.46,15.32 C32.44,15.22 32.41,15.14 32.37,15.06 C32.33,14.98 32.27,14.92 32.2,14.86 C32.13,14.8 32.04,14.75 31.94,14.71 C31.84,14.67 31.72,14.63 31.58,14.6 L31.06,14.5 C30.32,14.35 29.9,13.99 29.79,13.44 C29.72,13.07 29.8,12.73 30.03,12.42 C30.27,12.11 30.6,11.91 31.02,11.83 C31.59,11.71 32.09,11.9 32.53,12.39 Z" id="Path"></path>
            <path d="M34.51,13.74 C34.23,13.08 34.23,12.41 34.52,11.74 C34.8,11.06 35.28,10.58 35.95,10.3 C36.62,10.02 37.29,10.01 37.97,10.29 C38.65,10.56 39.13,11.04 39.41,11.7 C39.69,12.37 39.7,13.04 39.41,13.72 C39.13,14.39 38.64,14.88 37.96,15.16 C37.36,15.41 36.73,15.44 36.07,15.22 C35.35,14.98 34.83,14.49 34.51,13.74 Z M35.23,13.44 C35.45,13.96 35.8,14.31 36.29,14.49 C36.78,14.68 37.25,14.67 37.7,14.48 C38.19,14.27 38.53,13.93 38.73,13.45 C38.92,12.96 38.91,12.48 38.71,11.98 C38.5,11.48 38.15,11.13 37.68,10.94 C37.2,10.74 36.72,10.74 36.24,10.95 C35.75,11.16 35.41,11.5 35.22,11.98 C35.01,12.47 35.02,12.95 35.23,13.44 Z" id="Shape"></path>
            <polygon id="Path" points="42.51 12.77 39.29 8.41 44.57 9.33 42.48 6.49 43.1 6.03 46.29 10.36 41.02 9.45 43.13 12.31"></polygon>
            <path d="M47.79,4.55 L49.15,2.95 L49.28,3.06 C49.57,3.31 49.8,3.56 49.96,3.82 C50.11,4.06 50.21,4.34 50.25,4.65 C50.35,5.35 50.16,5.98 49.69,6.53 C49.23,7.07 48.64,7.37 47.92,7.42 C47.2,7.47 46.57,7.26 46.02,6.8 C45.46,6.32 45.15,5.72 45.09,5 C45.03,4.27 45.24,3.63 45.72,3.07 C45.98,2.77 46.28,2.54 46.63,2.38 C46.97,2.23 47.38,2.16 47.86,2.15 L47.9,2.9 C47.21,2.86 46.67,3.07 46.28,3.52 C45.93,3.93 45.78,4.39 45.83,4.91 C45.87,5.42 46.1,5.86 46.52,6.21 C46.95,6.58 47.44,6.72 47.98,6.65 C48.48,6.58 48.88,6.38 49.17,6.04 C49.41,5.75 49.54,5.41 49.54,5.02 C49.54,4.62 49.41,4.3 49.17,4.04 L48.35,5 L47.79,4.55 Z" id="Path"></path>
        </g>
    </g>
</svg>