<?xml version="1.0" encoding="UTF-8" standalone="no"?>
<!DOCTYPE svg PUBLIC "-//W3C//DTD SVG 1.1//EN"
 "http://www.w3.org/Graphics/SVG/1.1/DTD/svg11.dtd">
<!-- Generated by graphviz version 12.2.1 (20241206.2353)
 -->
<!-- Title: G Pages: 1 -->
<svg width="1515pt" height="1305pt"
 viewBox="0.00 0.00 1515.45 1304.61" xmlns="http://www.w3.org/2000/svg" xmlns:xlink="http://www.w3.org/1999/xlink">
<g id="graph0" class="graph" transform="scale(1 1) rotate(0) translate(21.6 1283.01)">
<title>G</title>
<polygon fill="#111111" stroke="none" points="-21.6,21.6 -21.6,-1283.01 1493.85,-1283.01 1493.85,21.6 -21.6,21.6"/>
<!-- ../builder/data.ts -->
<g id="node1" class="node">
<title>../builder/data.ts</title>
<path fill="none" stroke="#c6c5fe" d="M1262.33,-788.44C1262.33,-788.44 1166.17,-788.44 1166.17,-788.44 1162.21,-788.44 1158.25,-784.48 1158.25,-780.52 1158.25,-780.52 1158.25,-772.61 1158.25,-772.61 1158.25,-768.65 1162.21,-764.69 1166.17,-764.69 1166.17,-764.69 1262.33,-764.69 1262.33,-764.69 1266.29,-764.69 1270.25,-768.65 1270.25,-772.61 1270.25,-772.61 1270.25,-780.52 1270.25,-780.52 1270.25,-784.48 1266.29,-788.44 1262.33,-788.44"/>
<text text-anchor="middle" x="1214.25" y="-771.14" font-family="Arial" font-size="14.00" fill="#c6c5fe">../builder/data.ts</text>
</g>
<!-- ../types.ts -->
<g id="node2" class="node">
<title>../types.ts</title>
<path fill="none" stroke="#cfffac" d="M1428.33,-729.44C1428.33,-729.44 1370.42,-729.44 1370.42,-729.44 1366.46,-729.44 1362.5,-725.48 1362.5,-721.52 1362.5,-721.52 1362.5,-713.61 1362.5,-713.61 1362.5,-709.65 1366.46,-705.69 1370.42,-705.69 1370.42,-705.69 1428.33,-705.69 1428.33,-705.69 1432.29,-705.69 1436.25,-709.65 1436.25,-713.61 1436.25,-713.61 1436.25,-721.52 1436.25,-721.52 1436.25,-725.48 1432.29,-729.44 1428.33,-729.44"/>
<text text-anchor="middle" x="1399.38" y="-712.14" font-family="Arial" font-size="14.00" fill="#cfffac">../types.ts</text>
</g>
<!-- ../builder/data.ts&#45;&gt;../types.ts -->
<g id="edge1" class="edge">
<title>../builder/data.ts&#45;&gt;../types.ts</title>
<path fill="none" stroke="#757575" d="M1253.64,-764.2C1282.13,-755.02 1321.13,-742.45 1351.47,-732.68"/>
<polygon fill="#757575" stroke="#757575" points="1352.33,-736.08 1360.78,-729.68 1350.18,-729.41 1352.33,-736.08"/>
</g>
<!-- ../builder/types.ts -->
<g id="node3" class="node">
<title>../builder/types.ts</title>
<path fill="none" stroke="#c6c5fe" d="M721.21,-707.44C721.21,-707.44 619.04,-707.44 619.04,-707.44 615.08,-707.44 611.12,-703.48 611.12,-699.52 611.12,-699.52 611.12,-691.61 611.12,-691.61 611.12,-687.65 615.08,-683.69 619.04,-683.69 619.04,-683.69 721.21,-683.69 721.21,-683.69 725.17,-683.69 729.12,-687.65 729.12,-691.61 729.12,-691.61 729.12,-699.52 729.12,-699.52 729.12,-703.48 725.17,-707.44 721.21,-707.44"/>
<text text-anchor="middle" x="670.12" y="-690.14" font-family="Arial" font-size="14.00" fill="#c6c5fe">../builder/types.ts</text>
</g>
<!-- ../builder/types.ts&#45;&gt;../builder/data.ts -->
<g id="edge2" class="edge">
<title>../builder/types.ts&#45;&gt;../builder/data.ts</title>
<path fill="none" stroke="#757575" d="M709.59,-707.9C719.11,-711.67 729.07,-716.25 737.75,-721.56 756.01,-732.74 753.95,-745.44 773.75,-753.56 897.67,-804.43 1057.98,-796.41 1146.73,-786.31"/>
<polygon fill="#757575" stroke="#757575" points="1146.95,-789.81 1156.47,-785.15 1146.13,-782.85 1146.95,-789.81"/>
</g>
<!-- ../builder/types.ts&#45;&gt;../types.ts -->
<g id="edge6" class="edge">
<title>../builder/types.ts&#45;&gt;../types.ts</title>
<path fill="none" stroke="#757575" d="M712.16,-707.89C730.78,-712.87 753.18,-718.04 773.75,-720.56 987.77,-746.85 1246.15,-730.5 1350.86,-721.88"/>
<polygon fill="#757575" stroke="#757575" points="1351.1,-725.37 1360.77,-721.05 1350.51,-718.4 1351.1,-725.37"/>
</g>
<!-- ../events/index.ts -->
<g id="node4" class="node">
<title>../events/index.ts</title>
<path fill="none" stroke="#c6c5fe" d="M894.33,-711.44C894.33,-711.44 792.92,-711.44 792.92,-711.44 788.96,-711.44 785,-707.48 785,-703.52 785,-703.52 785,-695.61 785,-695.61 785,-691.65 788.96,-687.69 792.92,-687.69 792.92,-687.69 894.33,-687.69 894.33,-687.69 898.29,-687.69 902.25,-691.65 902.25,-695.61 902.25,-695.61 902.25,-703.52 902.25,-703.52 902.25,-707.48 898.29,-711.44 894.33,-711.44"/>
<text text-anchor="middle" x="843.62" y="-694.14" font-family="Arial" font-size="14.00" fill="#c6c5fe">../events/index.ts</text>
</g>
<!-- ../builder/types.ts&#45;&gt;../events/index.ts -->
<g id="edge3" class="edge">
<title>../builder/types.ts&#45;&gt;../events/index.ts</title>
<path fill="none" stroke="#757575" d="M729.19,-696.92C743.44,-697.25 758.83,-697.61 773.54,-697.95"/>
<polygon fill="#757575" stroke="#757575" points="773.03,-701.44 783.11,-698.18 773.19,-694.44 773.03,-701.44"/>
</g>
<!-- ../rendering/index.ts -->
<g id="node5" class="node">
<title>../rendering/index.ts</title>
<path fill="none" stroke="#c6c5fe" d="M902.96,-395.44C902.96,-395.44 784.29,-395.44 784.29,-395.44 780.33,-395.44 776.38,-391.48 776.38,-387.52 776.38,-387.52 776.38,-379.61 776.38,-379.61 776.38,-375.65 780.33,-371.69 784.29,-371.69 784.29,-371.69 902.96,-371.69 902.96,-371.69 906.92,-371.69 910.88,-375.65 910.88,-379.61 910.88,-379.61 910.88,-387.52 910.88,-387.52 910.88,-391.48 906.92,-395.44 902.96,-395.44"/>
<text text-anchor="middle" x="843.62" y="-378.14" font-family="Arial" font-size="14.00" fill="#c6c5fe">../rendering/index.ts</text>
</g>
<!-- ../builder/types.ts&#45;&gt;../rendering/index.ts -->
<g id="edge4" class="edge">
<title>../builder/types.ts&#45;&gt;../rendering/index.ts</title>
<path fill="none" stroke="#757575" d="M673.91,-683.21C683.04,-644.67 714.91,-524.31 773.75,-442.56 784.89,-427.09 800.89,-413.06 814.67,-402.57"/>
<polygon fill="#757575" stroke="#757575" points="816.56,-405.52 822.55,-396.79 812.42,-399.88 816.56,-405.52"/>
</g>
<!-- ../rendering/viewport.ts -->
<g id="node6" class="node">
<title>../rendering/viewport.ts</title>
<path fill="none" stroke="#c6c5fe" d="M1282.58,-414.44C1282.58,-414.44 1145.92,-414.44 1145.92,-414.44 1141.96,-414.44 1138,-410.48 1138,-406.52 1138,-406.52 1138,-398.61 1138,-398.61 1138,-394.65 1141.96,-390.69 1145.92,-390.69 1145.92,-390.69 1282.58,-390.69 1282.58,-390.69 1286.54,-390.69 1290.5,-394.65 1290.5,-398.61 1290.5,-398.61 1290.5,-406.52 1290.5,-406.52 1290.5,-410.48 1286.54,-414.44 1282.58,-414.44"/>
<text text-anchor="middle" x="1214.25" y="-397.14" font-family="Arial" font-size="14.00" fill="#c6c5fe">../rendering/viewport.ts</text>
</g>
<!-- ../builder/types.ts&#45;&gt;../rendering/viewport.ts -->
<g id="edge5" class="edge">
<title>../builder/types.ts&#45;&gt;../rendering/viewport.ts</title>
<path fill="none" stroke="#757575" d="M729.23,-685.04C832.44,-665.47 1042.49,-621.5 1102,-577.56 1156.33,-537.45 1190.78,-462.16 1205.3,-424.78"/>
<polygon fill="#757575" stroke="#757575" points="1208.4,-426.49 1208.64,-415.9 1201.85,-424.03 1208.4,-426.49"/>
</g>
<!-- scrollbar/controller.ts -->
<g id="node7" class="node">
<title>scrollbar/controller.ts</title>
<path fill="none" stroke="#c6c5fe" d="M905.58,-593.44C905.58,-593.44 781.67,-593.44 781.67,-593.44 777.71,-593.44 773.75,-589.48 773.75,-585.52 773.75,-585.52 773.75,-577.61 773.75,-577.61 773.75,-573.65 777.71,-569.69 781.67,-569.69 781.67,-569.69 905.58,-569.69 905.58,-569.69 909.54,-569.69 913.5,-573.65 913.5,-577.61 913.5,-577.61 913.5,-585.52 913.5,-585.52 913.5,-589.48 909.54,-593.44 905.58,-593.44"/>
<text text-anchor="middle" x="843.62" y="-576.14" font-family="Arial" font-size="14.00" fill="#c6c5fe">scrollbar/controller.ts</text>
</g>
<!-- ../builder/types.ts&#45;&gt;scrollbar/controller.ts -->
<g id="edge7" class="edge">
<title>../builder/types.ts&#45;&gt;scrollbar/controller.ts</title>
<path fill="none" stroke="#757575" d="M689.48,-683.36C719.57,-663.36 779.58,-623.47 814.89,-600"/>
<polygon fill="#757575" stroke="#757575" points="816.49,-603.14 822.88,-594.69 812.62,-597.31 816.49,-603.14"/>
</g>
<!-- ../events/emitter.ts -->
<g id="node9" class="node">
<title>../events/emitter.ts</title>
<path fill="none" stroke="#c6c5fe" d="M1080.96,-711.44C1080.96,-711.44 970.54,-711.44 970.54,-711.44 966.58,-711.44 962.62,-707.48 962.62,-703.52 962.62,-703.52 962.62,-695.61 962.62,-695.61 962.62,-691.65 966.58,-687.69 970.54,-687.69 970.54,-687.69 1080.96,-687.69 1080.96,-687.69 1084.92,-687.69 1088.88,-691.65 1088.88,-695.61 1088.88,-695.61 1088.88,-703.52 1088.88,-703.52 1088.88,-707.48 1084.92,-711.44 1080.96,-711.44"/>
<text text-anchor="middle" x="1025.75" y="-694.14" font-family="Arial" font-size="14.00" fill="#c6c5fe">../events/emitter.ts</text>
</g>
<!-- ../events/index.ts&#45;&gt;../events/emitter.ts -->
<g id="edge9" class="edge">
<title>../events/index.ts&#45;&gt;../events/emitter.ts</title>
<path fill="none" stroke="#757575" d="M902.61,-699.56C918.07,-699.56 934.98,-699.56 951.15,-699.56"/>
<polygon fill="#757575" stroke="#757575" points="950.69,-703.06 960.69,-699.56 950.69,-696.06 950.69,-703.06"/>
</g>
<!-- ../rendering/index.ts&#45;&gt;../rendering/viewport.ts -->
<g id="edge13" class="edge">
<title>../rendering/index.ts&#45;&gt;../rendering/viewport.ts</title>
<path fill="none" stroke="#757575" d="M910.95,-386.98C971.21,-390.09 1060.48,-394.69 1126.41,-398.09"/>
<polygon fill="#757575" stroke="#757575" points="1125.92,-401.57 1136.09,-398.59 1126.28,-394.58 1125.92,-401.57"/>
</g>
<!-- ../rendering/heights.ts -->
<g id="node10" class="node">
<title>../rendering/heights.ts</title>
<path fill="none" stroke="#cfffac" d="M1464.33,-241.44C1464.33,-241.44 1334.42,-241.44 1334.42,-241.44 1330.46,-241.44 1326.5,-237.48 1326.5,-233.52 1326.5,-233.52 1326.5,-225.61 1326.5,-225.61 1326.5,-221.65 1330.46,-217.69 1334.42,-217.69 1334.42,-217.69 1464.33,-217.69 1464.33,-217.69 1468.29,-217.69 1472.25,-221.65 1472.25,-225.61 1472.25,-225.61 1472.25,-233.52 1472.25,-233.52 1472.25,-237.48 1468.29,-241.44 1464.33,-241.44"/>
<text text-anchor="middle" x="1399.38" y="-224.14" font-family="Arial" font-size="14.00" fill="#cfffac">../rendering/heights.ts</text>
</g>
<!-- ../rendering/index.ts&#45;&gt;../rendering/heights.ts -->
<g id="edge10" class="edge">
<title>../rendering/index.ts&#45;&gt;../rendering/heights.ts</title>
<path fill="none" stroke="#757575" d="M860.99,-371.36C903.74,-340.33 1023.4,-258.89 1138,-230.56 1195.83,-216.27 1263.12,-216.43 1314.81,-219.95"/>
<polygon fill="#757575" stroke="#757575" points="1314.51,-223.44 1324.74,-220.69 1315.03,-216.45 1314.51,-223.44"/>
</g>
<!-- ../rendering/renderer.ts -->
<g id="node11" class="node">
<title>../rendering/renderer.ts</title>
<path fill="none" stroke="#c6c5fe" d="M1094.08,-374.44C1094.08,-374.44 957.42,-374.44 957.42,-374.44 953.46,-374.44 949.5,-370.48 949.5,-366.52 949.5,-366.52 949.5,-358.61 949.5,-358.61 949.5,-354.65 953.46,-350.69 957.42,-350.69 957.42,-350.69 1094.08,-350.69 1094.08,-350.69 1098.04,-350.69 1102,-354.65 1102,-358.61 1102,-358.61 1102,-366.52 1102,-366.52 1102,-370.48 1098.04,-374.44 1094.08,-374.44"/>
<text text-anchor="middle" x="1025.75" y="-357.14" font-family="Arial" font-size="14.00" fill="#c6c5fe">../rendering/renderer.ts</text>
</g>
<!-- ../rendering/index.ts&#45;&gt;../rendering/renderer.ts -->
<g id="edge11" class="edge">
<title>../rendering/index.ts&#45;&gt;../rendering/renderer.ts</title>
<path fill="none" stroke="#757575" d="M911.19,-375.8C919.85,-374.79 928.83,-373.75 937.77,-372.71"/>
<polygon fill="#757575" stroke="#757575" points="938.01,-376.2 947.54,-371.57 937.2,-369.25 938.01,-376.2"/>
</g>
<!-- ../rendering/scale.ts -->
<g id="node12" class="node">
<title>../rendering/scale.ts</title>
<path fill="none" stroke="#c6c5fe" d="M1084.71,-568.44C1084.71,-568.44 966.79,-568.44 966.79,-568.44 962.83,-568.44 958.88,-564.48 958.88,-560.52 958.88,-560.52 958.88,-552.61 958.88,-552.61 958.88,-548.65 962.83,-544.69 966.79,-544.69 966.79,-544.69 1084.71,-544.69 1084.71,-544.69 1088.67,-544.69 1092.62,-548.65 1092.62,-552.61 1092.62,-552.61 1092.62,-560.52 1092.62,-560.52 1092.62,-564.48 1088.67,-568.44 1084.71,-568.44"/>
<text text-anchor="middle" x="1025.75" y="-551.14" font-family="Arial" font-size="14.00" fill="#c6c5fe">../rendering/scale.ts</text>
</g>
<!-- ../rendering/index.ts&#45;&gt;../rendering/scale.ts -->
<g id="edge12" class="edge">
<title>../rendering/index.ts&#45;&gt;../rendering/scale.ts</title>
<path fill="none" stroke="#757575" d="M859.74,-395.85C873.92,-407.53 895.58,-425.77 913.5,-442.56 946.99,-473.95 983.82,-512.56 1005.58,-535.83"/>
<polygon fill="#757575" stroke="#757575" points="1002.99,-538.19 1012.37,-543.12 1008.12,-533.42 1002.99,-538.19"/>
</g>
<!-- ../rendering/viewport.ts&#45;&gt;../types.ts -->
<g id="edge21" class="edge">
<title>../rendering/viewport.ts&#45;&gt;../types.ts</title>
<path fill="none" stroke="#757575" d="M1269.6,-414.76C1277.28,-418.27 1284.56,-422.77 1290.5,-428.56 1367.85,-504.03 1390.28,-640.08 1396.32,-694.32"/>
<polygon fill="#757575" stroke="#757575" points="1392.8,-694.34 1397.29,-703.94 1399.76,-693.63 1392.8,-694.34"/>
</g>
<!-- ../rendering/viewport.ts&#45;&gt;../rendering/heights.ts -->
<g id="edge20" class="edge">
<title>../rendering/viewport.ts&#45;&gt;../rendering/heights.ts</title>
<path fill="none" stroke="#757575" d="M1228.13,-390.4C1259.33,-360.92 1339.22,-285.45 1377.42,-249.36"/>
<polygon fill="#757575" stroke="#757575" points="1379.79,-251.94 1384.66,-242.53 1374.98,-246.85 1379.79,-251.94"/>
</g>
<!-- scrollbar/controller.ts&#45;&gt;../rendering/scale.ts -->
<g id="edge64" class="edge">
<title>scrollbar/controller.ts&#45;&gt;../rendering/scale.ts</title>
<path fill="none" stroke="#757575" d="M913.75,-571.97C924.76,-570.44 936.22,-568.85 947.41,-567.3"/>
<polygon fill="#757575" stroke="#757575" points="947.55,-570.81 956.98,-565.97 946.59,-563.88 947.55,-570.81"/>
</g>
<!-- ../constants.ts -->
<g id="node8" class="node">
<title>../constants.ts</title>
<path fill="none" stroke="#cfffac" d="M1255.96,-608.44C1255.96,-608.44 1172.54,-608.44 1172.54,-608.44 1168.58,-608.44 1164.62,-604.48 1164.62,-600.52 1164.62,-600.52 1164.62,-592.61 1164.62,-592.61 1164.62,-588.65 1168.58,-584.69 1172.54,-584.69 1172.54,-584.69 1255.96,-584.69 1255.96,-584.69 1259.92,-584.69 1263.88,-588.65 1263.88,-592.61 1263.88,-592.61 1263.88,-600.52 1263.88,-600.52 1263.88,-604.48 1259.92,-608.44 1255.96,-608.44"/>
<text text-anchor="middle" x="1214.25" y="-591.14" font-family="Arial" font-size="14.00" fill="#cfffac">../constants.ts</text>
</g>
<!-- ../events/emitter.ts&#45;&gt;../types.ts -->
<g id="edge8" class="edge">
<title>../events/emitter.ts&#45;&gt;../types.ts</title>
<path fill="none" stroke="#757575" d="M1089.37,-702.6C1163.13,-706.17 1284.04,-712.03 1350.64,-715.25"/>
<polygon fill="#757575" stroke="#757575" points="1350.35,-718.74 1360.51,-715.73 1350.69,-711.75 1350.35,-718.74"/>
</g>
<!-- ../rendering/renderer.ts&#45;&gt;../types.ts -->
<g id="edge16" class="edge">
<title>../rendering/renderer.ts&#45;&gt;../types.ts</title>
<path fill="none" stroke="#757575" d="M1080.99,-350.23C1139.15,-340.36 1231.12,-334.9 1290.5,-381.56 1390.32,-460.01 1399.22,-631.62 1398.99,-694.16"/>
<polygon fill="#757575" stroke="#757575" points="1395.49,-693.91 1398.86,-703.96 1402.49,-694.01 1395.49,-693.91"/>
</g>
<!-- ../rendering/renderer.ts&#45;&gt;../rendering/viewport.ts -->
<g id="edge15" class="edge">
<title>../rendering/renderer.ts&#45;&gt;../rendering/viewport.ts</title>
<path fill="none" stroke="#757575" d="M1084.23,-374.89C1103.28,-378.98 1124.69,-383.57 1144.5,-387.82"/>
<polygon fill="#757575" stroke="#757575" points="1143.65,-391.22 1154.16,-389.89 1145.12,-384.37 1143.65,-391.22"/>
</g>
<!-- ../rendering/renderer.ts&#45;&gt;../rendering/heights.ts -->
<g id="edge14" class="edge">
<title>../rendering/renderer.ts&#45;&gt;../rendering/heights.ts</title>
<path fill="none" stroke="#757575" d="M1037.7,-350.3C1056.22,-330.42 1095.84,-291.49 1138,-272.56 1193.78,-247.52 1262.17,-236.91 1314.85,-232.48"/>
<polygon fill="#757575" stroke="#757575" points="1314.98,-235.98 1324.68,-231.72 1314.44,-229 1314.98,-235.98"/>
</g>
<!-- ../rendering/scale.ts&#45;&gt;../types.ts -->
<g id="edge19" class="edge">
<title>../rendering/scale.ts&#45;&gt;../types.ts</title>
<path fill="none" stroke="#757575" d="M1092.98,-546.84C1149.01,-541.87 1229.65,-542.6 1290.5,-575.56 1339.69,-602.21 1373.18,-661.99 1388.63,-694.85"/>
<polygon fill="#757575" stroke="#757575" points="1385.4,-696.21 1392.72,-703.87 1391.78,-693.32 1385.4,-696.21"/>
</g>
<!-- ../rendering/scale.ts&#45;&gt;../constants.ts -->
<g id="edge17" class="edge">
<title>../rendering/scale.ts&#45;&gt;../constants.ts</title>
<path fill="none" stroke="#757575" d="M1084.23,-568.89C1106.01,-573.56 1130.86,-578.89 1152.9,-583.62"/>
<polygon fill="#757575" stroke="#757575" points="1152.15,-587.04 1162.66,-585.71 1153.62,-580.2 1152.15,-587.04"/>
</g>
<!-- ../rendering/scale.ts&#45;&gt;../rendering/heights.ts -->
<g id="edge18" class="edge">
<title>../rendering/scale.ts&#45;&gt;../rendering/heights.ts</title>
<path fill="none" stroke="#757575" d="M1031.91,-544.59C1045.48,-514.18 1084.83,-432.75 1138,-381.56 1204.28,-317.75 1302.3,-269.91 1357.22,-246.19"/>
<polygon fill="#757575" stroke="#757575" points="1358.39,-249.5 1366.22,-242.36 1355.65,-243.06 1358.39,-249.5"/>
</g>
<!-- async/index.ts -->
<g id="node13" class="node">
<title>async/index.ts</title>
<path fill="none" stroke="#c6c5fe" d="M377.96,-1075.44C377.96,-1075.44 292.29,-1075.44 292.29,-1075.44 288.33,-1075.44 284.38,-1071.48 284.38,-1067.52 284.38,-1067.52 284.38,-1059.61 284.38,-1059.61 284.38,-1055.65 288.33,-1051.69 292.29,-1051.69 292.29,-1051.69 377.96,-1051.69 377.96,-1051.69 381.92,-1051.69 385.88,-1055.65 385.88,-1059.61 385.88,-1059.61 385.88,-1067.52 385.88,-1067.52 385.88,-1071.48 381.92,-1075.44 377.96,-1075.44"/>
<text text-anchor="middle" x="335.12" y="-1058.14" font-family="Arial" font-size="14.00" fill="#c6c5fe">async/index.ts</text>
</g>
<!-- async/manager.ts -->
<g id="node14" class="node">
<title>async/manager.ts</title>
<path fill="none" stroke="#c6c5fe" d="M723.46,-1095.44C723.46,-1095.44 616.79,-1095.44 616.79,-1095.44 612.83,-1095.44 608.88,-1091.48 608.88,-1087.52 608.88,-1087.52 608.88,-1079.61 608.88,-1079.61 608.88,-1075.65 612.83,-1071.69 616.79,-1071.69 616.79,-1071.69 723.46,-1071.69 723.46,-1071.69 727.42,-1071.69 731.38,-1075.65 731.38,-1079.61 731.38,-1079.61 731.38,-1087.52 731.38,-1087.52 731.38,-1091.48 727.42,-1095.44 723.46,-1095.44"/>
<text text-anchor="middle" x="670.12" y="-1078.14" font-family="Arial" font-size="14.00" fill="#c6c5fe">async/manager.ts</text>
</g>
<!-- async/index.ts&#45;&gt;async/manager.ts -->
<g id="edge22" class="edge">
<title>async/index.ts&#45;&gt;async/manager.ts</title>
<path fill="none" stroke="#757575" d="M386.34,-1066.58C442.47,-1069.95 533.83,-1075.44 597.46,-1079.26"/>
<polygon fill="#757575" stroke="#757575" points="596.91,-1082.73 607.1,-1079.84 597.33,-1075.75 596.91,-1082.73"/>
</g>
<!-- async/placeholder.ts -->
<g id="node15" class="node">
<title>async/placeholder.ts</title>
<path fill="none" stroke="#c6c5fe" d="M904.83,-1124.44C904.83,-1124.44 782.42,-1124.44 782.42,-1124.44 778.46,-1124.44 774.5,-1120.48 774.5,-1116.52 774.5,-1116.52 774.5,-1108.61 774.5,-1108.61 774.5,-1104.65 778.46,-1100.69 782.42,-1100.69 782.42,-1100.69 904.83,-1100.69 904.83,-1100.69 908.79,-1100.69 912.75,-1104.65 912.75,-1108.61 912.75,-1108.61 912.75,-1116.52 912.75,-1116.52 912.75,-1120.48 908.79,-1124.44 904.83,-1124.44"/>
<text text-anchor="middle" x="843.62" y="-1107.14" font-family="Arial" font-size="14.00" fill="#c6c5fe">async/placeholder.ts</text>
</g>
<!-- async/index.ts&#45;&gt;async/placeholder.ts -->
<g id="edge23" class="edge">
<title>async/index.ts&#45;&gt;async/placeholder.ts</title>
<path fill="none" stroke="#757575" d="M381.14,-1075.87C397.94,-1080.1 417.24,-1084.52 435,-1087.56 547.8,-1106.89 680.4,-1111.78 762.99,-1112.76"/>
<polygon fill="#757575" stroke="#757575" points="762.76,-1116.26 772.8,-1112.86 762.83,-1109.26 762.76,-1116.26"/>
</g>
<!-- async/plugin.ts -->
<g id="node16" class="node">
<title>async/plugin.ts</title>
<path fill="none" stroke="#c6c5fe" d="M545.46,-921.44C545.46,-921.44 456.04,-921.44 456.04,-921.44 452.08,-921.44 448.12,-917.48 448.12,-913.52 448.12,-913.52 448.12,-905.61 448.12,-905.61 448.12,-901.65 452.08,-897.69 456.04,-897.69 456.04,-897.69 545.46,-897.69 545.46,-897.69 549.42,-897.69 553.38,-901.65 553.38,-905.61 553.38,-905.61 553.38,-913.52 553.38,-913.52 553.38,-917.48 549.42,-921.44 545.46,-921.44"/>
<text text-anchor="middle" x="500.75" y="-904.14" font-family="Arial" font-size="14.00" fill="#c6c5fe">async/plugin.ts</text>
</g>
<!-- async/index.ts&#45;&gt;async/plugin.ts -->
<g id="edge24" class="edge">
<title>async/index.ts&#45;&gt;async/plugin.ts</title>
<path fill="none" stroke="#757575" d="M349.24,-1051.22C377.5,-1024.62 444.37,-961.69 478.66,-929.41"/>
<polygon fill="#757575" stroke="#757575" points="481.04,-931.98 485.92,-922.58 476.24,-926.88 481.04,-931.98"/>
</g>
<!-- async/sparse.ts -->
<g id="node17" class="node">
<title>async/sparse.ts</title>
<path fill="none" stroke="#c6c5fe" d="M890.58,-1044.44C890.58,-1044.44 796.67,-1044.44 796.67,-1044.44 792.71,-1044.44 788.75,-1040.48 788.75,-1036.52 788.75,-1036.52 788.75,-1028.61 788.75,-1028.61 788.75,-1024.65 792.71,-1020.69 796.67,-1020.69 796.67,-1020.69 890.58,-1020.69 890.58,-1020.69 894.54,-1020.69 898.5,-1024.65 898.5,-1028.61 898.5,-1028.61 898.5,-1036.52 898.5,-1036.52 898.5,-1040.48 894.54,-1044.44 890.58,-1044.44"/>
<text text-anchor="middle" x="843.62" y="-1027.14" font-family="Arial" font-size="14.00" fill="#c6c5fe">async/sparse.ts</text>
</g>
<!-- async/index.ts&#45;&gt;async/sparse.ts -->
<g id="edge25" class="edge">
<title>async/index.ts&#45;&gt;async/sparse.ts</title>
<path fill="none" stroke="#757575" d="M386.08,-1060.51C478.12,-1054.87 674.43,-1042.86 777.05,-1036.58"/>
<polygon fill="#757575" stroke="#757575" points="777.21,-1040.08 786.98,-1035.97 776.78,-1033.09 777.21,-1040.08"/>
</g>
<!-- async/manager.ts&#45;&gt;../types.ts -->
<g id="edge26" class="edge">
<title>async/manager.ts&#45;&gt;../types.ts</title>
<path fill="none" stroke="#757575" d="M731.83,-1086.45C870.97,-1091.77 1207.35,-1096.82 1290.5,-1026.56 1379.26,-951.57 1395.05,-799.22 1397.81,-740.95"/>
<polygon fill="#757575" stroke="#757575" points="1401.3,-741.35 1398.17,-731.22 1394.3,-741.08 1401.3,-741.35"/>
</g>
<!-- async/manager.ts&#45;&gt;async/placeholder.ts -->
<g id="edge27" class="edge">
<title>async/manager.ts&#45;&gt;async/placeholder.ts</title>
<path fill="none" stroke="#757575" d="M731.59,-1093.79C741.72,-1095.5 752.36,-1097.3 762.88,-1099.08"/>
<polygon fill="#757575" stroke="#757575" points="762.29,-1102.53 772.73,-1100.75 763.46,-1095.63 762.29,-1102.53"/>
</g>
<!-- async/manager.ts&#45;&gt;async/sparse.ts -->
<g id="edge28" class="edge">
<title>async/manager.ts&#45;&gt;async/sparse.ts</title>
<path fill="none" stroke="#757575" d="M712.64,-1071.22C736.04,-1064.26 765.5,-1055.5 790.45,-1048.08"/>
<polygon fill="#757575" stroke="#757575" points="791.16,-1051.52 799.74,-1045.32 789.16,-1044.81 791.16,-1051.52"/>
</g>
<!-- async/placeholder.ts&#45;&gt;../types.ts -->
<g id="edge29" class="edge">
<title>async/placeholder.ts&#45;&gt;../types.ts</title>
<path fill="none" stroke="#757575" d="M912.86,-1117.81C1023.14,-1124.82 1233.93,-1131.6 1290.5,-1086.56 1346.28,-1042.16 1384.09,-814.88 1395.07,-740.88"/>
<polygon fill="#757575" stroke="#757575" points="1398.51,-741.54 1396.49,-731.14 1391.59,-740.53 1398.51,-741.54"/>
</g>
<!-- async/plugin.ts&#45;&gt;../types.ts -->
<g id="edge33" class="edge">
<title>async/plugin.ts&#45;&gt;../types.ts</title>
<path fill="none" stroke="#757575" d="M553.67,-914.51C620.45,-920.43 740.07,-929.56 842.62,-929.56 842.62,-929.56 842.62,-929.56 1026.75,-929.56 1150.75,-929.56 1187.29,-907.29 1290.5,-838.56 1331,-811.59 1366.01,-765.86 1384.46,-739.01"/>
<polygon fill="#757575" stroke="#757575" points="1387.18,-741.23 1389.86,-730.98 1381.37,-737.33 1387.18,-741.23"/>
</g>
<!-- async/plugin.ts&#45;&gt;../builder/types.ts -->
<g id="edge30" class="edge">
<title>async/plugin.ts&#45;&gt;../builder/types.ts</title>
<path fill="none" stroke="#757575" d="M511.23,-897.45C538.55,-862.51 617.74,-761.27 652.47,-716.86"/>
<polygon fill="#757575" stroke="#757575" points="655.21,-719.04 658.61,-709.01 649.69,-714.73 655.21,-719.04"/>
</g>
<!-- async/plugin.ts&#45;&gt;../rendering/index.ts -->
<g id="edge32" class="edge">
<title>async/plugin.ts&#45;&gt;../rendering/index.ts</title>
<path fill="none" stroke="#757575" d="M540.46,-897.26C607.41,-875.99 737.75,-834.56 737.75,-834.56 792.57,-766.4 733.59,-520.28 773.75,-442.56 782.27,-426.09 797.53,-412.28 811.53,-402.17"/>
<polygon fill="#757575" stroke="#757575" points="813.37,-405.16 819.67,-396.64 809.43,-399.37 813.37,-405.16"/>
</g>
<!-- async/plugin.ts&#45;&gt;../constants.ts -->
<g id="edge31" class="edge">
<title>async/plugin.ts&#45;&gt;../constants.ts</title>
<path fill="none" stroke="#757575" d="M553.83,-903.94C664.13,-889.87 925.62,-844.87 1102,-720.56 1142.88,-691.76 1179.29,-645.29 1198.62,-618.17"/>
<polygon fill="#757575" stroke="#757575" points="1201.44,-620.24 1204.3,-610.04 1195.7,-616.23 1201.44,-620.24"/>
</g>
<!-- async/plugin.ts&#45;&gt;async/manager.ts -->
<g id="edge34" class="edge">
<title>async/plugin.ts&#45;&gt;async/manager.ts</title>
<path fill="none" stroke="#757575" d="M513.52,-921.8C542.04,-951.45 615.06,-1027.36 649.97,-1063.65"/>
<polygon fill="#757575" stroke="#757575" points="647.09,-1065.7 656.54,-1070.48 652.13,-1060.85 647.09,-1065.7"/>
</g>
<!-- async/sparse.ts&#45;&gt;../types.ts -->
<g id="edge35" class="edge">
<title>async/sparse.ts&#45;&gt;../types.ts</title>
<path fill="none" stroke="#757575" d="M898.66,-1042.57C989.49,-1056.17 1174.21,-1069.67 1290.5,-981.56 1369.6,-921.64 1390.97,-793.72 1396.51,-741.01"/>
<polygon fill="#757575" stroke="#757575" points="1399.97,-741.65 1397.42,-731.36 1393,-740.99 1399.97,-741.65"/>
</g>
<!-- grid/index.ts -->
<g id="node18" class="node">
<title>grid/index.ts</title>
<path fill="none" stroke="#c6c5fe" d="M371.58,-419.44C371.58,-419.44 298.67,-419.44 298.67,-419.44 294.71,-419.44 290.75,-415.48 290.75,-411.52 290.75,-411.52 290.75,-403.61 290.75,-403.61 290.75,-399.65 294.71,-395.69 298.67,-395.69 298.67,-395.69 371.58,-395.69 371.58,-395.69 375.54,-395.69 379.5,-399.65 379.5,-403.61 379.5,-403.61 379.5,-411.52 379.5,-411.52 379.5,-415.48 375.54,-419.44 371.58,-419.44"/>
<text text-anchor="middle" x="335.12" y="-402.14" font-family="Arial" font-size="14.00" fill="#c6c5fe">grid/index.ts</text>
</g>
<!-- grid/layout.ts -->
<g id="node19" class="node">
<title>grid/layout.ts</title>
<path fill="none" stroke="#c6c5fe" d="M708.46,-439.44C708.46,-439.44 631.79,-439.44 631.79,-439.44 627.83,-439.44 623.88,-435.48 623.88,-431.52 623.88,-431.52 623.88,-423.61 623.88,-423.61 623.88,-419.65 627.83,-415.69 631.79,-415.69 631.79,-415.69 708.46,-415.69 708.46,-415.69 712.42,-415.69 716.38,-419.65 716.38,-423.61 716.38,-423.61 716.38,-431.52 716.38,-431.52 716.38,-435.48 712.42,-439.44 708.46,-439.44"/>
<text text-anchor="middle" x="670.12" y="-422.14" font-family="Arial" font-size="14.00" fill="#c6c5fe">grid/layout.ts</text>
</g>
<!-- grid/index.ts&#45;&gt;grid/layout.ts -->
<g id="edge36" class="edge">
<title>grid/index.ts&#45;&gt;grid/layout.ts</title>
<path fill="none" stroke="#757575" d="M379.66,-410.18C439.2,-413.76 546.14,-420.18 612.04,-424.14"/>
<polygon fill="#757575" stroke="#757575" points="611.74,-427.62 621.93,-424.73 612.16,-420.64 611.74,-427.62"/>
</g>
<!-- grid/plugin.ts -->
<g id="node20" class="node">
<title>grid/plugin.ts</title>
<path fill="none" stroke="#c6c5fe" d="M539.08,-399.44C539.08,-399.44 462.42,-399.44 462.42,-399.44 458.46,-399.44 454.5,-395.48 454.5,-391.52 454.5,-391.52 454.5,-383.61 454.5,-383.61 454.5,-379.65 458.46,-375.69 462.42,-375.69 462.42,-375.69 539.08,-375.69 539.08,-375.69 543.04,-375.69 547,-379.65 547,-383.61 547,-383.61 547,-391.52 547,-391.52 547,-395.48 543.04,-399.44 539.08,-399.44"/>
<text text-anchor="middle" x="500.75" y="-382.14" font-family="Arial" font-size="14.00" fill="#c6c5fe">grid/plugin.ts</text>
</g>
<!-- grid/index.ts&#45;&gt;grid/plugin.ts -->
<g id="edge37" class="edge">
<title>grid/index.ts&#45;&gt;grid/plugin.ts</title>
<path fill="none" stroke="#757575" d="M379.97,-402.21C399.3,-399.84 422.26,-397.04 442.89,-394.52"/>
<polygon fill="#757575" stroke="#757575" points="443.06,-398.02 452.56,-393.33 442.21,-391.07 443.06,-398.02"/>
</g>
<!-- grid/renderer.ts -->
<g id="node21" class="node">
<title>grid/renderer.ts</title>
<path fill="none" stroke="#c6c5fe" d="M715.58,-245.44C715.58,-245.44 624.67,-245.44 624.67,-245.44 620.71,-245.44 616.75,-241.48 616.75,-237.52 616.75,-237.52 616.75,-229.61 616.75,-229.61 616.75,-225.65 620.71,-221.69 624.67,-221.69 624.67,-221.69 715.58,-221.69 715.58,-221.69 719.54,-221.69 723.5,-225.65 723.5,-229.61 723.5,-229.61 723.5,-237.52 723.5,-237.52 723.5,-241.48 719.54,-245.44 715.58,-245.44"/>
<text text-anchor="middle" x="670.12" y="-228.14" font-family="Arial" font-size="14.00" fill="#c6c5fe">grid/renderer.ts</text>
</g>
<!-- grid/index.ts&#45;&gt;grid/renderer.ts -->
<g id="edge38" class="edge">
<title>grid/index.ts&#45;&gt;grid/renderer.ts</title>
<path fill="none" stroke="#757575" d="M359.81,-395.19C418.06,-364.75 568.45,-286.17 635.73,-251.02"/>
<polygon fill="#757575" stroke="#757575" points="637.2,-254.19 644.44,-246.46 633.96,-247.99 637.2,-254.19"/>
</g>
<!-- grid/types.ts -->
<g id="node22" class="node">
<title>grid/types.ts</title>
<path fill="none" stroke="#c6c5fe" d="M880.08,-475.44C880.08,-475.44 807.17,-475.44 807.17,-475.44 803.21,-475.44 799.25,-471.48 799.25,-467.52 799.25,-467.52 799.25,-459.61 799.25,-459.61 799.25,-455.65 803.21,-451.69 807.17,-451.69 807.17,-451.69 880.08,-451.69 880.08,-451.69 884.04,-451.69 888,-455.65 888,-459.61 888,-459.61 888,-467.52 888,-467.52 888,-471.48 884.04,-475.44 880.08,-475.44"/>
<text text-anchor="middle" x="843.62" y="-458.14" font-family="Arial" font-size="14.00" fill="#c6c5fe">grid/types.ts</text>
</g>
<!-- grid/index.ts&#45;&gt;grid/types.ts -->
<g id="edge39" class="edge">
<title>grid/index.ts&#45;&gt;grid/types.ts</title>
<path fill="none" stroke="#757575" d="M379.66,-419.5C396.8,-423.83 416.72,-428.43 435,-431.56 560.04,-452.98 709.15,-460.09 787.79,-462.43"/>
<polygon fill="#757575" stroke="#757575" points="787.26,-465.92 797.35,-462.7 787.46,-458.92 787.26,-465.92"/>
</g>
<!-- grid/layout.ts&#45;&gt;grid/types.ts -->
<g id="edge40" class="edge">
<title>grid/layout.ts&#45;&gt;grid/types.ts</title>
<path fill="none" stroke="#757575" d="M716.63,-437.12C738.55,-441.72 765,-447.27 788,-452.1"/>
<polygon fill="#757575" stroke="#757575" points="786.99,-455.46 797.5,-454.09 788.43,-448.61 786.99,-455.46"/>
</g>
<!-- grid/plugin.ts&#45;&gt;../types.ts -->
<g id="edge43" class="edge">
<title>grid/plugin.ts&#45;&gt;../types.ts</title>
<path fill="none" stroke="#757575" d="M547.38,-376.72C595.87,-367.27 674.16,-358 737.75,-378.56 756.53,-384.64 755.56,-396.9 773.75,-404.56 800.6,-415.88 1267.24,-477.01 1290.5,-494.56 1357.33,-544.98 1384.9,-647.66 1394.27,-693.97"/>
<polygon fill="#757575" stroke="#757575" points="1390.82,-694.55 1396.13,-703.72 1397.7,-693.24 1390.82,-694.55"/>
</g>
<!-- grid/plugin.ts&#45;&gt;../builder/types.ts -->
<g id="edge41" class="edge">
<title>grid/plugin.ts&#45;&gt;../builder/types.ts</title>
<path fill="none" stroke="#757575" d="M508.31,-399.64C533.46,-445.92 623.95,-612.43 656.96,-673.18"/>
<polygon fill="#757575" stroke="#757575" points="653.85,-674.79 661.7,-681.91 660,-671.45 653.85,-674.79"/>
</g>
<!-- grid/plugin.ts&#45;&gt;../rendering/index.ts -->
<g id="edge42" class="edge">
<title>grid/plugin.ts&#45;&gt;../rendering/index.ts</title>
<path fill="none" stroke="#757575" d="M519.28,-375.2C538.61,-362.38 571.13,-343.18 602.5,-335.56 660.91,-321.38 679.89,-319.28 737.75,-335.56 755.8,-340.64 756.9,-349.33 773.75,-357.56 780.69,-360.96 788.2,-364.2 795.61,-367.17"/>
<polygon fill="#757575" stroke="#757575" points="794.34,-370.43 804.93,-370.77 796.86,-363.9 794.34,-370.43"/>
</g>
<!-- grid/plugin.ts&#45;&gt;grid/layout.ts -->
<g id="edge44" class="edge">
<title>grid/plugin.ts&#45;&gt;grid/layout.ts</title>
<path fill="none" stroke="#757575" d="M547.49,-398.5C567.5,-403.28 591.2,-408.94 612.33,-413.99"/>
<polygon fill="#757575" stroke="#757575" points="611.43,-417.38 621.97,-416.3 613.06,-410.57 611.43,-417.38"/>
</g>
<!-- grid/plugin.ts&#45;&gt;grid/renderer.ts -->
<g id="edge45" class="edge">
<title>grid/plugin.ts&#45;&gt;grid/renderer.ts</title>
<path fill="none" stroke="#757575" d="M515.16,-375.22C544.2,-348.51 613.06,-285.15 648,-253"/>
<polygon fill="#757575" stroke="#757575" points="650.01,-255.91 655,-246.56 645.27,-250.76 650.01,-255.91"/>
</g>
<!-- grid/plugin.ts&#45;&gt;grid/types.ts -->
<g id="edge46" class="edge">
<title>grid/plugin.ts&#45;&gt;grid/types.ts</title>
<path fill="none" stroke="#757575" d="M547.18,-383.1C596.19,-380.09 675.55,-380.59 737.75,-406.56 757.23,-414.7 755.6,-426.78 773.75,-437.56 779.66,-441.08 786.13,-444.26 792.67,-447.1"/>
<polygon fill="#757575" stroke="#757575" points="790.93,-450.17 801.51,-450.7 793.57,-443.69 790.93,-450.17"/>
</g>
<!-- grid/renderer.ts&#45;&gt;../types.ts -->
<g id="edge50" class="edge">
<title>grid/renderer.ts&#45;&gt;../types.ts</title>
<path fill="none" stroke="#757575" d="M723.79,-244.21C728.64,-246.01 733.38,-248.11 737.75,-250.56 757.22,-261.47 754.22,-274.77 773.75,-285.56 829.69,-316.49 862.56,-280.95 913.5,-319.56 939.51,-339.28 923.49,-363.85 949.5,-383.56 1011.65,-430.68 1230.94,-416.21 1290.5,-466.56 1362.29,-527.26 1387.58,-644.43 1395.34,-694.24"/>
<polygon fill="#757575" stroke="#757575" points="1391.84,-694.49 1396.74,-703.88 1398.77,-693.48 1391.84,-694.49"/>
</g>
<!-- grid/renderer.ts&#45;&gt;../rendering/heights.ts -->
<g id="edge47" class="edge">
<title>grid/renderer.ts&#45;&gt;../rendering/heights.ts</title>
<path fill="none" stroke="#757575" d="M723.82,-228.11C830.78,-217.87 1081.01,-198.11 1290.5,-213.56 1298.42,-214.15 1306.64,-214.97 1314.85,-215.94"/>
<polygon fill="#757575" stroke="#757575" points="1314.15,-219.38 1324.5,-217.15 1315.02,-212.43 1314.15,-219.38"/>
</g>
<!-- grid/renderer.ts&#45;&gt;../rendering/renderer.ts -->
<g id="edge48" class="edge">
<title>grid/renderer.ts&#45;&gt;../rendering/renderer.ts</title>
<path fill="none" stroke="#757575" d="M723.78,-240.97C773.98,-249.22 850.97,-265.02 913.5,-291.56 945.51,-305.15 978.66,-327.58 1000.35,-343.59"/>
<polygon fill="#757575" stroke="#757575" points="998.16,-346.33 1008.26,-349.54 1002.37,-340.73 998.16,-346.33"/>
</g>
<!-- grid/renderer.ts&#45;&gt;../rendering/scale.ts -->
<g id="edge49" class="edge">
<title>grid/renderer.ts&#45;&gt;../rendering/scale.ts</title>
<path fill="none" stroke="#757575" d="M723.72,-242.38C728.75,-244.54 733.54,-247.23 737.75,-250.56 764.86,-272.04 747.17,-297.44 773.75,-319.56 823.69,-361.14 865.87,-318.36 913.5,-362.56 945.68,-392.43 928.28,-416.12 949.5,-454.56 966.04,-484.53 990.26,-515.74 1006.72,-535.62"/>
<polygon fill="#757575" stroke="#757575" points="1004.03,-537.85 1013.14,-543.25 1009.38,-533.34 1004.03,-537.85"/>
</g>
<!-- grid/renderer.ts&#45;&gt;grid/types.ts -->
<g id="edge51" class="edge">
<title>grid/renderer.ts&#45;&gt;grid/types.ts</title>
<path fill="none" stroke="#757575" d="M676.67,-245.61C690.44,-274.81 728.39,-350.88 773.75,-404.56 786.3,-419.42 802.77,-433.67 816.46,-444.45"/>
<polygon fill="#757575" stroke="#757575" points="814.14,-447.08 824.21,-450.39 818.4,-441.53 814.14,-447.08"/>
</g>
<!-- sections/types.ts -->
<g id="node23" class="node">
<title>sections/types.ts</title>
<path fill="none" stroke="#c6c5fe" d="M893.58,-148.44C893.58,-148.44 793.67,-148.44 793.67,-148.44 789.71,-148.44 785.75,-144.48 785.75,-140.52 785.75,-140.52 785.75,-132.61 785.75,-132.61 785.75,-128.65 789.71,-124.69 793.67,-124.69 793.67,-124.69 893.58,-124.69 893.58,-124.69 897.54,-124.69 901.5,-128.65 901.5,-132.61 901.5,-132.61 901.5,-140.52 901.5,-140.52 901.5,-144.48 897.54,-148.44 893.58,-148.44"/>
<text text-anchor="middle" x="843.62" y="-131.14" font-family="Arial" font-size="14.00" fill="#c6c5fe">sections/types.ts</text>
</g>
<!-- grid/renderer.ts&#45;&gt;sections/types.ts -->
<g id="edge52" class="edge">
<title>grid/renderer.ts&#45;&gt;sections/types.ts</title>
<path fill="none" stroke="#757575" d="M694.35,-221.25C707.2,-214.38 723.42,-205.6 737.75,-197.56 762.9,-183.46 791.13,-167 811.97,-154.74"/>
<polygon fill="#757575" stroke="#757575" points="813.7,-157.78 820.54,-149.68 810.15,-151.75 813.7,-157.78"/>
</g>
<!-- grid/types.ts&#45;&gt;../types.ts -->
<g id="edge53" class="edge">
<title>grid/types.ts&#45;&gt;../types.ts</title>
<path fill="none" stroke="#757575" d="M884.17,-475.81C903.69,-481.52 927.67,-488.03 949.5,-492.56 1099.35,-523.69 1162.62,-456.48 1290.5,-540.56 1347.06,-577.75 1378.74,-655.85 1391.57,-694.66"/>
<polygon fill="#757575" stroke="#757575" points="1388.21,-695.64 1394.56,-704.12 1394.88,-693.53 1388.21,-695.64"/>
</g>
<!-- sections/types.ts&#45;&gt;../types.ts -->
<g id="edge85" class="edge">
<title>sections/types.ts&#45;&gt;../types.ts</title>
<path fill="none" stroke="#757575" d="M901.76,-133.38C955.4,-132.44 1036.92,-136.33 1102,-162.56 1200.79,-202.38 1231.94,-221.59 1290.5,-310.56 1374.34,-437.93 1393.17,-627.96 1397.27,-693.97"/>
<polygon fill="#757575" stroke="#757575" points="1393.78,-694.16 1397.83,-703.95 1400.77,-693.77 1393.78,-694.16"/>
</g>
<!-- page/index.ts -->
<g id="node24" class="node">
<title>page/index.ts</title>
<path fill="none" stroke="#c6c5fe" d="M375.33,-652.44C375.33,-652.44 294.92,-652.44 294.92,-652.44 290.96,-652.44 287,-648.48 287,-644.52 287,-644.52 287,-636.61 287,-636.61 287,-632.65 290.96,-628.69 294.92,-628.69 294.92,-628.69 375.33,-628.69 375.33,-628.69 379.29,-628.69 383.25,-632.65 383.25,-636.61 383.25,-636.61 383.25,-644.52 383.25,-644.52 383.25,-648.48 379.29,-652.44 375.33,-652.44"/>
<text text-anchor="middle" x="335.12" y="-635.14" font-family="Arial" font-size="14.00" fill="#c6c5fe">page/index.ts</text>
</g>
<!-- page/index.ts&#45;&gt;../builder/types.ts -->
<g id="edge54" class="edge">
<title>page/index.ts&#45;&gt;../builder/types.ts</title>
<path fill="none" stroke="#757575" d="M383.48,-648.39C439.89,-657.7 534.61,-673.35 599.39,-684.05"/>
<polygon fill="#757575" stroke="#757575" points="598.79,-687.5 609.23,-685.67 599.93,-680.59 598.79,-687.5"/>
</g>
<!-- page/plugin.ts -->
<g id="node25" class="node">
<title>page/plugin.ts</title>
<path fill="none" stroke="#c6c5fe" d="M542.83,-633.44C542.83,-633.44 458.67,-633.44 458.67,-633.44 454.71,-633.44 450.75,-629.48 450.75,-625.52 450.75,-625.52 450.75,-617.61 450.75,-617.61 450.75,-613.65 454.71,-609.69 458.67,-609.69 458.67,-609.69 542.83,-609.69 542.83,-609.69 546.79,-609.69 550.75,-613.65 550.75,-617.61 550.75,-617.61 550.75,-625.52 550.75,-625.52 550.75,-629.48 546.79,-633.44 542.83,-633.44"/>
<text text-anchor="middle" x="500.75" y="-616.14" font-family="Arial" font-size="14.00" fill="#c6c5fe">page/plugin.ts</text>
</g>
<!-- page/index.ts&#45;&gt;page/plugin.ts -->
<g id="edge55" class="edge">
<title>page/index.ts&#45;&gt;page/plugin.ts</title>
<path fill="none" stroke="#757575" d="M383.45,-635.07C400.8,-633.05 420.69,-630.75 439.05,-628.61"/>
<polygon fill="#757575" stroke="#757575" points="439.22,-632.12 448.75,-627.49 438.41,-625.16 439.22,-632.12"/>
</g>
<!-- page/plugin.ts&#45;&gt;../types.ts -->
<g id="edge57" class="edge">
<title>page/plugin.ts&#45;&gt;../types.ts</title>
<path fill="none" stroke="#757575" d="M550.8,-625.4C674.95,-635.35 1011.57,-663.87 1290.5,-701.56 1310.39,-704.25 1332.3,-707.46 1351.15,-710.29"/>
<polygon fill="#757575" stroke="#757575" points="1350.54,-713.74 1360.95,-711.77 1351.59,-706.82 1350.54,-713.74"/>
</g>
<!-- page/plugin.ts&#45;&gt;../builder/types.ts -->
<g id="edge56" class="edge">
<title>page/plugin.ts&#45;&gt;../builder/types.ts</title>
<path fill="none" stroke="#757575" d="M533.51,-633.91C544.06,-638.12 555.83,-642.93 566.5,-647.56 589.03,-657.35 614,-669.01 633.67,-678.39"/>
<polygon fill="#757575" stroke="#757575" points="632.1,-681.52 642.63,-682.68 635.13,-675.2 632.1,-681.52"/>
</g>
<!-- scale/index.ts -->
<g id="node26" class="node">
<title>scale/index.ts</title>
<path fill="none" stroke="#c6c5fe" d="M89.83,-614.44C89.83,-614.44 7.92,-614.44 7.92,-614.44 3.96,-614.44 0,-610.48 0,-606.52 0,-606.52 0,-598.61 0,-598.61 0,-594.65 3.96,-590.69 7.92,-590.69 7.92,-590.69 89.83,-590.69 89.83,-590.69 93.79,-590.69 97.75,-594.65 97.75,-598.61 97.75,-598.61 97.75,-606.52 97.75,-606.52 97.75,-610.48 93.79,-614.44 89.83,-614.44"/>
<text text-anchor="middle" x="48.88" y="-597.14" font-family="Arial" font-size="14.00" fill="#c6c5fe">scale/index.ts</text>
</g>
<!-- scale/index.ts&#45;&gt;../rendering/scale.ts -->
<g id="edge58" class="edge">
<title>scale/index.ts&#45;&gt;../rendering/scale.ts</title>
<path fill="none" stroke="#757575" d="M70.44,-590.28C116.16,-564.18 230.36,-505.56 334.12,-505.56 334.12,-505.56 334.12,-505.56 501.75,-505.56 660.69,-505.56 845.52,-529.18 947.39,-544.28"/>
<polygon fill="#757575" stroke="#757575" points="946.59,-547.69 956.99,-545.71 947.62,-540.77 946.59,-547.69"/>
</g>
<!-- scale/plugin.ts -->
<g id="node27" class="node">
<title>scale/plugin.ts</title>
<path fill="none" stroke="#c6c5fe" d="M227.33,-711.44C227.33,-711.44 141.67,-711.44 141.67,-711.44 137.71,-711.44 133.75,-707.48 133.75,-703.52 133.75,-703.52 133.75,-695.61 133.75,-695.61 133.75,-691.65 137.71,-687.69 141.67,-687.69 141.67,-687.69 227.33,-687.69 227.33,-687.69 231.29,-687.69 235.25,-691.65 235.25,-695.61 235.25,-695.61 235.25,-703.52 235.25,-703.52 235.25,-707.48 231.29,-711.44 227.33,-711.44"/>
<text text-anchor="middle" x="184.5" y="-694.14" font-family="Arial" font-size="14.00" fill="#c6c5fe">scale/plugin.ts</text>
</g>
<!-- scale/index.ts&#45;&gt;scale/plugin.ts -->
<g id="edge59" class="edge">
<title>scale/index.ts&#45;&gt;scale/plugin.ts</title>
<path fill="none" stroke="#757575" d="M66.8,-614.85C89.69,-631.47 130.74,-661.26 157.54,-680.72"/>
<polygon fill="#757575" stroke="#757575" points="155.34,-683.45 165.49,-686.49 159.45,-677.78 155.34,-683.45"/>
</g>
<!-- scale/plugin.ts&#45;&gt;../types.ts -->
<g id="edge62" class="edge">
<title>scale/plugin.ts&#45;&gt;../types.ts</title>
<path fill="none" stroke="#757575" d="M191.85,-711.78C220.07,-764.21 339.85,-967.56 499.75,-967.56 499.75,-967.56 499.75,-967.56 1026.75,-967.56 1148.62,-967.56 1193.31,-966.1 1290.5,-892.56 1343.63,-852.36 1376.64,-777.73 1390.62,-740.26"/>
<polygon fill="#757575" stroke="#757575" points="1393.74,-741.93 1393.83,-731.33 1387.15,-739.55 1393.74,-741.93"/>
</g>
<!-- scale/plugin.ts&#45;&gt;../builder/types.ts -->
<g id="edge60" class="edge">
<title>scale/plugin.ts&#45;&gt;../builder/types.ts</title>
<path fill="none" stroke="#757575" d="M235.43,-699.15C322.14,-698.43 500.71,-696.96 599.53,-696.14"/>
<polygon fill="#757575" stroke="#757575" points="599.39,-699.64 609.36,-696.06 599.33,-692.64 599.39,-699.64"/>
</g>
<!-- scale/plugin.ts&#45;&gt;../rendering/scale.ts -->
<g id="edge61" class="edge">
<title>scale/plugin.ts&#45;&gt;../rendering/scale.ts</title>
<path fill="none" stroke="#757575" d="M195.58,-687.22C210.43,-669.8 239.84,-638.05 271.25,-619.56 337.18,-580.77 359.55,-579.16 435,-566.56 616.63,-536.25 834.09,-543.59 947.42,-550.64"/>
<polygon fill="#757575" stroke="#757575" points="947.01,-554.12 957.21,-551.27 947.45,-547.14 947.01,-554.12"/>
</g>
<!-- scrollbar/index.ts -->
<g id="node28" class="node">
<title>scrollbar/index.ts</title>
<path fill="none" stroke="#c6c5fe" d="M385.83,-793.44C385.83,-793.44 284.42,-793.44 284.42,-793.44 280.46,-793.44 276.5,-789.48 276.5,-785.52 276.5,-785.52 276.5,-777.61 276.5,-777.61 276.5,-773.65 280.46,-769.69 284.42,-769.69 284.42,-769.69 385.83,-769.69 385.83,-769.69 389.79,-769.69 393.75,-773.65 393.75,-777.61 393.75,-777.61 393.75,-785.52 393.75,-785.52 393.75,-789.48 389.79,-793.44 385.83,-793.44"/>
<text text-anchor="middle" x="335.12" y="-776.14" font-family="Arial" font-size="14.00" fill="#c6c5fe">scrollbar/index.ts</text>
</g>
<!-- scale/plugin.ts&#45;&gt;scrollbar/index.ts -->
<g id="edge63" class="edge">
<title>scale/plugin.ts&#45;&gt;scrollbar/index.ts</title>
<path fill="none" stroke="#757575" d="M199.82,-711.79C216.19,-725.25 244.22,-746.82 271.25,-760.56 274.33,-762.13 277.55,-763.62 280.84,-765.03"/>
<polygon fill="#757575" stroke="#757575" points="279.49,-768.25 290.08,-768.68 282.07,-761.74 279.49,-768.25"/>
</g>
<!-- scrollbar/index.ts&#45;&gt;scrollbar/controller.ts -->
<g id="edge65" class="edge">
<title>scrollbar/index.ts&#45;&gt;scrollbar/controller.ts</title>
<path fill="none" stroke="#757575" d="M388.28,-769.24C392.26,-766.84 395.91,-763.98 399,-760.56 447.87,-706.49 379.16,-647.41 435,-600.56 482.74,-560.52 657.33,-566.53 761.91,-574.22"/>
<polygon fill="#757575" stroke="#757575" points="761.62,-577.71 771.85,-574.97 762.15,-570.73 761.62,-577.71"/>
</g>
<!-- scrollbar/plugin.ts -->
<g id="node29" class="node">
<title>scrollbar/plugin.ts</title>
<path fill="none" stroke="#c6c5fe" d="M553.33,-793.44C553.33,-793.44 448.17,-793.44 448.17,-793.44 444.21,-793.44 440.25,-789.48 440.25,-785.52 440.25,-785.52 440.25,-777.61 440.25,-777.61 440.25,-773.65 444.21,-769.69 448.17,-769.69 448.17,-769.69 553.33,-769.69 553.33,-769.69 557.29,-769.69 561.25,-773.65 561.25,-777.61 561.25,-777.61 561.25,-785.52 561.25,-785.52 561.25,-789.48 557.29,-793.44 553.33,-793.44"/>
<text text-anchor="middle" x="500.75" y="-776.14" font-family="Arial" font-size="14.00" fill="#c6c5fe">scrollbar/plugin.ts</text>
</g>
<!-- scrollbar/index.ts&#45;&gt;scrollbar/plugin.ts -->
<g id="edge66" class="edge">
<title>scrollbar/index.ts&#45;&gt;scrollbar/plugin.ts</title>
<path fill="none" stroke="#757575" d="M393.81,-781.56C404.99,-781.56 416.83,-781.56 428.39,-781.56"/>
<polygon fill="#757575" stroke="#757575" points="428.3,-785.06 438.3,-781.56 428.3,-778.06 428.3,-785.06"/>
</g>
<!-- scrollbar/scrollbar.ts -->
<g id="node30" class="node">
<title>scrollbar/scrollbar.ts</title>
<path fill="none" stroke="#cfffac" d="M729.83,-825.44C729.83,-825.44 610.42,-825.44 610.42,-825.44 606.46,-825.44 602.5,-821.48 602.5,-817.52 602.5,-817.52 602.5,-809.61 602.5,-809.61 602.5,-805.65 606.46,-801.69 610.42,-801.69 610.42,-801.69 729.83,-801.69 729.83,-801.69 733.79,-801.69 737.75,-805.65 737.75,-809.61 737.75,-809.61 737.75,-817.52 737.75,-817.52 737.75,-821.48 733.79,-825.44 729.83,-825.44"/>
<text text-anchor="middle" x="670.12" y="-808.14" font-family="Arial" font-size="14.00" fill="#cfffac">scrollbar/scrollbar.ts</text>
</g>
<!-- scrollbar/index.ts&#45;&gt;scrollbar/scrollbar.ts -->
<g id="edge67" class="edge">
<title>scrollbar/index.ts&#45;&gt;scrollbar/scrollbar.ts</title>
<path fill="none" stroke="#757575" d="M386.41,-793.89C401.9,-797.25 419.07,-800.51 435,-802.56 486.62,-809.21 545.11,-811.97 590.71,-813.05"/>
<polygon fill="#757575" stroke="#757575" points="590.43,-816.55 600.5,-813.26 590.58,-809.55 590.43,-816.55"/>
</g>
<!-- scrollbar/plugin.ts&#45;&gt;../types.ts -->
<g id="edge69" class="edge">
<title>scrollbar/plugin.ts&#45;&gt;../types.ts</title>
<path fill="none" stroke="#757575" d="M561.63,-776.91C610.07,-774.9 679.55,-776.03 737.75,-792.56 755.36,-797.57 756.14,-807.57 773.75,-812.56 914.15,-852.37 956.07,-821.73 1102,-820.56 1185.79,-819.9 1212.74,-848.78 1290.5,-817.56 1330.49,-801.51 1364.63,-763.17 1383.26,-738.9"/>
<polygon fill="#757575" stroke="#757575" points="1385.99,-741.09 1389.15,-730.98 1380.37,-736.92 1385.99,-741.09"/>
</g>
<!-- scrollbar/plugin.ts&#45;&gt;../builder/types.ts -->
<g id="edge68" class="edge">
<title>scrollbar/plugin.ts&#45;&gt;../builder/types.ts</title>
<path fill="none" stroke="#757575" d="M544.83,-769.27C552.18,-766.7 559.65,-763.78 566.5,-760.56 594.22,-747.54 623.52,-728.38 643.68,-714.23"/>
<polygon fill="#757575" stroke="#757575" points="645.45,-717.26 651.57,-708.61 641.39,-711.56 645.45,-717.26"/>
</g>
<!-- scrollbar/plugin.ts&#45;&gt;scrollbar/scrollbar.ts -->
<g id="edge70" class="edge">
<title>scrollbar/plugin.ts&#45;&gt;scrollbar/scrollbar.ts</title>
<path fill="none" stroke="#757575" d="M561.7,-793.03C572.01,-795 582.83,-797.07 593.49,-799.1"/>
<polygon fill="#757575" stroke="#757575" points="592.53,-802.48 603.01,-800.92 593.84,-795.61 592.53,-802.48"/>
</g>
<!-- sections/index.ts -->
<g id="node31" class="node">
<title>sections/index.ts</title>
<path fill="none" stroke="#c6c5fe" d="M385.08,-110.44C385.08,-110.44 285.17,-110.44 285.17,-110.44 281.21,-110.44 277.25,-106.48 277.25,-102.52 277.25,-102.52 277.25,-94.61 277.25,-94.61 277.25,-90.65 281.21,-86.69 285.17,-86.69 285.17,-86.69 385.08,-86.69 385.08,-86.69 389.04,-86.69 393,-90.65 393,-94.61 393,-94.61 393,-102.52 393,-102.52 393,-106.48 389.04,-110.44 385.08,-110.44"/>
<text text-anchor="middle" x="335.12" y="-93.14" font-family="Arial" font-size="14.00" fill="#c6c5fe">sections/index.ts</text>
</g>
<!-- sections/index.ts&#45;&gt;sections/types.ts -->
<g id="edge74" class="edge">
<title>sections/index.ts&#45;&gt;sections/types.ts</title>
<path fill="none" stroke="#757575" d="M393.41,-102.76C440.02,-106.18 507.51,-111.15 566.5,-115.56 637.37,-120.87 718.46,-127.05 774.33,-131.33"/>
<polygon fill="#757575" stroke="#757575" points="773.77,-134.79 784,-132.07 774.3,-127.82 773.77,-134.79"/>
</g>
<!-- sections/layout.ts -->
<g id="node32" class="node">
<title>sections/layout.ts</title>
<path fill="none" stroke="#c6c5fe" d="M721.96,-188.44C721.96,-188.44 618.29,-188.44 618.29,-188.44 614.33,-188.44 610.38,-184.48 610.38,-180.52 610.38,-180.52 610.38,-172.61 610.38,-172.61 610.38,-168.65 614.33,-164.69 618.29,-164.69 618.29,-164.69 721.96,-164.69 721.96,-164.69 725.92,-164.69 729.88,-168.65 729.88,-172.61 729.88,-172.61 729.88,-180.52 729.88,-180.52 729.88,-184.48 725.92,-188.44 721.96,-188.44"/>
<text text-anchor="middle" x="670.12" y="-171.14" font-family="Arial" font-size="14.00" fill="#c6c5fe">sections/layout.ts</text>
</g>
<!-- sections/index.ts&#45;&gt;sections/layout.ts -->
<g id="edge71" class="edge">
<title>sections/index.ts&#45;&gt;sections/layout.ts</title>
<path fill="none" stroke="#757575" d="M351.47,-110.81C370.04,-124.86 402.82,-147.28 435,-157.56 488.11,-174.55 551.27,-178.81 598.6,-179.09"/>
<polygon fill="#757575" stroke="#757575" points="598.46,-182.59 608.46,-179.09 598.45,-175.59 598.46,-182.59"/>
</g>
<!-- sections/plugin.ts -->
<g id="node33" class="node">
<title>sections/plugin.ts</title>
<path fill="none" stroke="#c6c5fe" d="M552.58,-148.44C552.58,-148.44 448.92,-148.44 448.92,-148.44 444.96,-148.44 441,-144.48 441,-140.52 441,-140.52 441,-132.61 441,-132.61 441,-128.65 444.96,-124.69 448.92,-124.69 448.92,-124.69 552.58,-124.69 552.58,-124.69 556.54,-124.69 560.5,-128.65 560.5,-132.61 560.5,-132.61 560.5,-140.52 560.5,-140.52 560.5,-144.48 556.54,-148.44 552.58,-148.44"/>
<text text-anchor="middle" x="500.75" y="-131.14" font-family="Arial" font-size="14.00" fill="#c6c5fe">sections/plugin.ts</text>
</g>
<!-- sections/index.ts&#45;&gt;sections/plugin.ts -->
<g id="edge72" class="edge">
<title>sections/index.ts&#45;&gt;sections/plugin.ts</title>
<path fill="none" stroke="#757575" d="M389.25,-110.9C404.04,-114.34 420.27,-118.11 435.62,-121.67"/>
<polygon fill="#757575" stroke="#757575" points="434.61,-125.03 445.14,-123.88 436.19,-118.21 434.61,-125.03"/>
</g>
<!-- sections/sticky.ts -->
<g id="node34" class="node">
<title>sections/sticky.ts</title>
<path fill="none" stroke="#c6c5fe" d="M720.46,-32.44C720.46,-32.44 619.79,-32.44 619.79,-32.44 615.83,-32.44 611.88,-28.48 611.88,-24.52 611.88,-24.52 611.88,-16.61 611.88,-16.61 611.88,-12.65 615.83,-8.69 619.79,-8.69 619.79,-8.69 720.46,-8.69 720.46,-8.69 724.42,-8.69 728.38,-12.65 728.38,-16.61 728.38,-16.61 728.38,-24.52 728.38,-24.52 728.38,-28.48 724.42,-32.44 720.46,-32.44"/>
<text text-anchor="middle" x="670.12" y="-15.14" font-family="Arial" font-size="14.00" fill="#c6c5fe">sections/sticky.ts</text>
</g>
<!-- sections/index.ts&#45;&gt;sections/sticky.ts -->
<g id="edge73" class="edge">
<title>sections/index.ts&#45;&gt;sections/sticky.ts</title>
<path fill="none" stroke="#757575" d="M354.18,-86.4C373.34,-74.15 404.96,-55.77 435,-46.56 489,-30.01 552.88,-23.75 600.26,-21.5"/>
<polygon fill="#757575" stroke="#757575" points="600.27,-25 610.12,-21.08 599.98,-18.01 600.27,-25"/>
</g>
<!-- sections/layout.ts&#45;&gt;../types.ts -->
<g id="edge75" class="edge">
<title>sections/layout.ts&#45;&gt;../types.ts</title>
<path fill="none" stroke="#757575" d="M730.18,-184.59C868.92,-204.58 1210.03,-260.74 1290.5,-339.56 1392.41,-439.39 1399.82,-628.21 1399.1,-694.14"/>
<polygon fill="#757575" stroke="#757575" points="1395.61,-693.72 1398.92,-703.79 1402.61,-693.86 1395.61,-693.72"/>
</g>
<!-- sections/layout.ts&#45;&gt;sections/types.ts -->
<g id="edge76" class="edge">
<title>sections/layout.ts&#45;&gt;sections/types.ts</title>
<path fill="none" stroke="#757575" d="M723.98,-164.24C741.26,-160.21 760.64,-155.69 778.65,-151.49"/>
<polygon fill="#757575" stroke="#757575" points="779.23,-154.94 788.18,-149.26 777.64,-148.13 779.23,-154.94"/>
</g>
<!-- sections/plugin.ts&#45;&gt;../types.ts -->
<g id="edge79" class="edge">
<title>sections/plugin.ts&#45;&gt;../types.ts</title>
<path fill="none" stroke="#757575" d="M535.87,-124.31C658.96,-82.52 1083.72,40.27 1290.5,-174.56 1327.57,-213.08 1381.68,-594.78 1395.22,-694.06"/>
<polygon fill="#757575" stroke="#757575" points="1391.71,-694.26 1396.52,-703.7 1398.65,-693.32 1391.71,-694.26"/>
</g>
<!-- sections/plugin.ts&#45;&gt;../builder/types.ts -->
<g id="edge77" class="edge">
<title>sections/plugin.ts&#45;&gt;../builder/types.ts</title>
<path fill="none" stroke="#757575" d="M505.4,-148.76C526.61,-219.58 633.95,-578.08 662.27,-672.66"/>
<polygon fill="#757575" stroke="#757575" points="658.87,-673.5 665.09,-682.08 665.57,-671.5 658.87,-673.5"/>
</g>
<!-- sections/plugin.ts&#45;&gt;../rendering/index.ts -->
<g id="edge78" class="edge">
<title>sections/plugin.ts&#45;&gt;../rendering/index.ts</title>
<path fill="none" stroke="#757575" d="M509.58,-148.7C525.01,-171.83 561.4,-222.73 602.5,-254.56 655.38,-295.52 683.57,-281.35 737.75,-320.56 756.34,-334.02 754.56,-344.99 773.75,-357.56 778.96,-360.98 784.69,-364.04 790.54,-366.75"/>
<polygon fill="#757575" stroke="#757575" points="789.17,-369.97 799.74,-370.67 791.91,-363.53 789.17,-369.97"/>
</g>
<!-- sections/plugin.ts&#45;&gt;sections/types.ts -->
<g id="edge82" class="edge">
<title>sections/plugin.ts&#45;&gt;sections/types.ts</title>
<path fill="none" stroke="#757575" d="M560.74,-136.56C620.11,-136.56 711.63,-136.56 774.17,-136.56"/>
<polygon fill="#757575" stroke="#757575" points="773.98,-140.06 783.98,-136.56 773.98,-133.06 773.98,-140.06"/>
</g>
<!-- sections/plugin.ts&#45;&gt;sections/layout.ts -->
<g id="edge80" class="edge">
<title>sections/plugin.ts&#45;&gt;sections/layout.ts</title>
<path fill="none" stroke="#757575" d="M553.33,-148.89C570.2,-152.92 589.11,-157.44 606.68,-161.64"/>
<polygon fill="#757575" stroke="#757575" points="605.41,-164.94 615.95,-163.86 607.04,-158.13 605.41,-164.94"/>
</g>
<!-- sections/plugin.ts&#45;&gt;sections/sticky.ts -->
<g id="edge81" class="edge">
<title>sections/plugin.ts&#45;&gt;sections/sticky.ts</title>
<path fill="none" stroke="#757575" d="M519.35,-124.37C548.73,-104.01 607.96,-62.96 642.48,-39.03"/>
<polygon fill="#757575" stroke="#757575" points="644.04,-42.21 650.27,-33.63 640.06,-36.45 644.04,-42.21"/>
</g>
<!-- sections/sticky.ts&#45;&gt;../rendering/heights.ts -->
<g id="edge83" class="edge">
<title>sections/sticky.ts&#45;&gt;../rendering/heights.ts</title>
<path fill="none" stroke="#757575" d="M728.69,-11.65C843.91,3.2 1107.49,21.91 1290.5,-82.56 1340.64,-111.19 1374.09,-173.64 1389.18,-207.19"/>
<polygon fill="#757575" stroke="#757575" points="1385.8,-208.2 1392.99,-215.98 1392.23,-205.41 1385.8,-208.2"/>
</g>
<!-- sections/sticky.ts&#45;&gt;sections/types.ts -->
<g id="edge84" class="edge">
<title>sections/sticky.ts&#45;&gt;sections/types.ts</title>
<path fill="none" stroke="#757575" d="M709.18,-32.87C718.8,-36.66 728.91,-41.26 737.75,-46.56 770.54,-66.25 803.16,-96.32 823.11,-116.2"/>
<polygon fill="#757575" stroke="#757575" points="820.51,-118.56 830.03,-123.22 825.5,-113.64 820.51,-118.56"/>
</g>
<!-- selection/index.ts -->
<g id="node35" class="node">
<title>selection/index.ts</title>
<path fill="none" stroke="#c6c5fe" d="M386.96,-1194.44C386.96,-1194.44 283.29,-1194.44 283.29,-1194.44 279.33,-1194.44 275.38,-1190.48 275.38,-1186.52 275.38,-1186.52 275.38,-1178.61 275.38,-1178.61 275.38,-1174.65 279.33,-1170.69 283.29,-1170.69 283.29,-1170.69 386.96,-1170.69 386.96,-1170.69 390.92,-1170.69 394.88,-1174.65 394.88,-1178.61 394.88,-1178.61 394.88,-1186.52 394.88,-1186.52 394.88,-1190.48 390.92,-1194.44 386.96,-1194.44"/>
<text text-anchor="middle" x="335.12" y="-1177.14" font-family="Arial" font-size="14.00" fill="#c6c5fe">selection/index.ts</text>
</g>
<!-- selection/plugin.ts -->
<g id="node36" class="node">
<title>selection/plugin.ts</title>
<path fill="none" stroke="#c6c5fe" d="M554.46,-1174.44C554.46,-1174.44 447.04,-1174.44 447.04,-1174.44 443.08,-1174.44 439.12,-1170.48 439.12,-1166.52 439.12,-1166.52 439.12,-1158.61 439.12,-1158.61 439.12,-1154.65 443.08,-1150.69 447.04,-1150.69 447.04,-1150.69 554.46,-1150.69 554.46,-1150.69 558.42,-1150.69 562.38,-1154.65 562.38,-1158.61 562.38,-1158.61 562.38,-1166.52 562.38,-1166.52 562.38,-1170.48 558.42,-1174.44 554.46,-1174.44"/>
<text text-anchor="middle" x="500.75" y="-1157.14" font-family="Arial" font-size="14.00" fill="#c6c5fe">selection/plugin.ts</text>
</g>
<!-- selection/index.ts&#45;&gt;selection/plugin.ts -->
<g id="edge86" class="edge">
<title>selection/index.ts&#45;&gt;selection/plugin.ts</title>
<path fill="none" stroke="#757575" d="M395.2,-1175.34C405.73,-1174.06 416.8,-1172.7 427.65,-1171.38"/>
<polygon fill="#757575" stroke="#757575" points="427.83,-1174.88 437.33,-1170.19 426.98,-1167.93 427.83,-1174.88"/>
</g>
<!-- selection/state.ts -->
<g id="node37" class="node">
<title>selection/state.ts</title>
<path fill="none" stroke="#c6c5fe" d="M720.46,-1213.44C720.46,-1213.44 619.79,-1213.44 619.79,-1213.44 615.83,-1213.44 611.88,-1209.48 611.88,-1205.52 611.88,-1205.52 611.88,-1197.61 611.88,-1197.61 611.88,-1193.65 615.83,-1189.69 619.79,-1189.69 619.79,-1189.69 720.46,-1189.69 720.46,-1189.69 724.42,-1189.69 728.38,-1193.65 728.38,-1197.61 728.38,-1197.61 728.38,-1205.52 728.38,-1205.52 728.38,-1209.48 724.42,-1213.44 720.46,-1213.44"/>
<text text-anchor="middle" x="670.12" y="-1196.14" font-family="Arial" font-size="14.00" fill="#c6c5fe">selection/state.ts</text>
</g>
<!-- selection/index.ts&#45;&gt;selection/state.ts -->
<g id="edge87" class="edge">
<title>selection/index.ts&#45;&gt;selection/state.ts</title>
<path fill="none" stroke="#757575" d="M395.28,-1185.94C452.69,-1189.22 539.79,-1194.19 600.29,-1197.64"/>
<polygon fill="#757575" stroke="#757575" points="599.95,-1201.12 610.13,-1198.2 600.34,-1194.13 599.95,-1201.12"/>
</g>
<!-- selection/plugin.ts&#45;&gt;../types.ts -->
<g id="edge90" class="edge">
<title>selection/plugin.ts&#45;&gt;../types.ts</title>
<path fill="none" stroke="#757575" d="M562.71,-1162.28C630.91,-1161.98 744.68,-1161.56 842.62,-1161.56 842.62,-1161.56 842.62,-1161.56 1026.75,-1161.56 1145.59,-1161.56 1202.45,-1197.38 1290.5,-1117.56 1347.8,-1065.63 1384.95,-818.73 1395.37,-741.03"/>
<polygon fill="#757575" stroke="#757575" points="1398.83,-741.56 1396.67,-731.19 1391.89,-740.65 1398.83,-741.56"/>
</g>
<!-- selection/plugin.ts&#45;&gt;../builder/types.ts -->
<g id="edge88" class="edge">
<title>selection/plugin.ts&#45;&gt;../builder/types.ts</title>
<path fill="none" stroke="#757575" d="M505.19,-1150.51C514.98,-1116.18 543.72,-1014.94 566.5,-930.56 583.02,-869.37 576.16,-850.22 602.5,-792.56 615.37,-764.4 636.36,-735.58 651.34,-716.76"/>
<polygon fill="#757575" stroke="#757575" points="654,-719.02 657.59,-709.05 648.57,-714.61 654,-719.02"/>
</g>
<!-- selection/plugin.ts&#45;&gt;../rendering/index.ts -->
<g id="edge89" class="edge">
<title>selection/plugin.ts&#45;&gt;../rendering/index.ts</title>
<path fill="none" stroke="#757575" d="M513.15,-1150.45C556.65,-1103.95 711.09,-936.11 737.75,-869.56 808.58,-692.78 686.94,-612.08 773.75,-442.56 782.21,-426.05 797.47,-412.24 811.48,-402.15"/>
<polygon fill="#757575" stroke="#757575" points="813.32,-405.13 819.62,-396.61 809.39,-399.34 813.32,-405.13"/>
</g>
<!-- selection/plugin.ts&#45;&gt;selection/state.ts -->
<g id="edge91" class="edge">
<title>selection/plugin.ts&#45;&gt;selection/state.ts</title>
<path fill="none" stroke="#757575" d="M554.71,-1174.9C570.81,-1178.66 588.68,-1182.82 605.42,-1186.72"/>
<polygon fill="#757575" stroke="#757575" points="604.22,-1190.03 614.75,-1188.89 605.81,-1183.22 604.22,-1190.03"/>
</g>
<!-- selection/state.ts&#45;&gt;../types.ts -->
<g id="edge92" class="edge">
<title>selection/state.ts&#45;&gt;../types.ts</title>
<path fill="none" stroke="#757575" d="M708.94,-1213.86C814.74,-1245.69 1117.33,-1318.7 1290.5,-1175.56 1359.15,-1118.83 1389.11,-826.49 1396.49,-741.04"/>
<polygon fill="#757575" stroke="#757575" points="1399.96,-741.55 1397.31,-731.29 1392.99,-740.97 1399.96,-741.55"/>
</g>
<!-- snapshots/index.ts -->
<g id="node38" class="node">
<title>snapshots/index.ts</title>
<path fill="none" stroke="#c6c5fe" d="M391.08,-751.44C391.08,-751.44 279.17,-751.44 279.17,-751.44 275.21,-751.44 271.25,-747.48 271.25,-743.52 271.25,-743.52 271.25,-735.61 271.25,-735.61 271.25,-731.65 275.21,-727.69 279.17,-727.69 279.17,-727.69 391.08,-727.69 391.08,-727.69 395.04,-727.69 399,-731.65 399,-735.61 399,-735.61 399,-743.52 399,-743.52 399,-747.48 395.04,-751.44 391.08,-751.44"/>
<text text-anchor="middle" x="335.12" y="-734.14" font-family="Arial" font-size="14.00" fill="#c6c5fe">snapshots/index.ts</text>
</g>
<!-- snapshots/plugin.ts -->
<g id="node39" class="node">
<title>snapshots/plugin.ts</title>
<path fill="none" stroke="#c6c5fe" d="M558.58,-751.44C558.58,-751.44 442.92,-751.44 442.92,-751.44 438.96,-751.44 435,-747.48 435,-743.52 435,-743.52 435,-735.61 435,-735.61 435,-731.65 438.96,-727.69 442.92,-727.69 442.92,-727.69 558.58,-727.69 558.58,-727.69 562.54,-727.69 566.5,-731.65 566.5,-735.61 566.5,-735.61 566.5,-743.52 566.5,-743.52 566.5,-747.48 562.54,-751.44 558.58,-751.44"/>
<text text-anchor="middle" x="500.75" y="-734.14" font-family="Arial" font-size="14.00" fill="#c6c5fe">snapshots/plugin.ts</text>
</g>
<!-- snapshots/index.ts&#45;&gt;snapshots/plugin.ts -->
<g id="edge93" class="edge">
<title>snapshots/index.ts&#45;&gt;snapshots/plugin.ts</title>
<path fill="none" stroke="#757575" d="M399.39,-739.56C407.27,-739.56 415.4,-739.56 423.46,-739.56"/>
<polygon fill="#757575" stroke="#757575" points="423.25,-743.06 433.25,-739.56 423.25,-736.06 423.25,-743.06"/>
</g>
<!-- snapshots/plugin.ts&#45;&gt;../types.ts -->
<g id="edge95" class="edge">
<title>snapshots/plugin.ts&#45;&gt;../types.ts</title>
<path fill="none" stroke="#757575" d="M566.77,-736.17C615.27,-735.73 682.43,-739.64 737.75,-759.56 756.08,-766.17 755.46,-777.85 773.75,-784.56 910.89,-834.89 955.92,-803.11 1102,-801.56 1185.79,-800.68 1211.22,-824.69 1290.5,-797.56 1325.86,-785.47 1359.23,-757.16 1379.24,-737.68"/>
<polygon fill="#757575" stroke="#757575" points="1381.55,-740.32 1386.14,-730.77 1376.6,-735.37 1381.55,-740.32"/>
</g>
<!-- snapshots/plugin.ts&#45;&gt;../builder/types.ts -->
<g id="edge94" class="edge">
<title>snapshots/plugin.ts&#45;&gt;../builder/types.ts</title>
<path fill="none" stroke="#757575" d="M548.82,-727.19C568.15,-722.11 590.74,-716.17 611.08,-710.82"/>
<polygon fill="#757575" stroke="#757575" points="611.87,-714.23 620.66,-708.31 610.09,-707.46 611.87,-714.23"/>
</g>
</g>
</svg>
