<?xml version="1.0" encoding="UTF-8" standalone="no"?>
<!DOCTYPE svg PUBLIC "-//W3C//DTD SVG 1.1//EN"
 "http://www.w3.org/Graphics/SVG/1.1/DTD/svg11.dtd">
<!-- Generated by graphviz version 12.2.1 (20241206.2353)
 -->
<!-- Title: G Pages: 1 -->
<svg width="1984pt" height="1723pt"
 viewBox="0.00 0.00 1984.45 1722.61" xmlns="http://www.w3.org/2000/svg" xmlns:xlink="http://www.w3.org/1999/xlink">
<g id="graph0" class="graph" transform="scale(1 1) rotate(0) translate(21.6 1701.01)">
<title>G</title>
<polygon fill="#111111" stroke="none" points="-21.6,21.6 -21.6,-1701.01 1962.85,-1701.01 1962.85,21.6 -21.6,21.6"/>
<!-- builder/context.ts -->
<g id="node1" class="node">
<title>builder/context.ts</title>
<path fill="none" stroke="#c6c5fe" d="M927.46,-1388.69C927.46,-1388.69 825.29,-1388.69 825.29,-1388.69 821.33,-1388.69 817.38,-1384.73 817.38,-1380.78 817.38,-1380.78 817.38,-1372.86 817.38,-1372.86 817.38,-1368.9 821.33,-1364.94 825.29,-1364.94 825.29,-1364.94 927.46,-1364.94 927.46,-1364.94 931.42,-1364.94 935.38,-1368.9 935.38,-1372.86 935.38,-1372.86 935.38,-1380.78 935.38,-1380.78 935.38,-1384.73 931.42,-1388.69 927.46,-1388.69"/>
<text text-anchor="middle" x="876.38" y="-1371.39" font-family="Arial" font-size="14.00" fill="#c6c5fe">builder/context.ts</text>
</g>
<!-- builder/data.ts -->
<g id="node2" class="node">
<title>builder/data.ts</title>
<path fill="none" stroke="#c6c5fe" d="M1362.58,-1291.69C1362.58,-1291.69 1277.67,-1291.69 1277.67,-1291.69 1273.71,-1291.69 1269.75,-1287.73 1269.75,-1283.78 1269.75,-1283.78 1269.75,-1275.86 1269.75,-1275.86 1269.75,-1271.9 1273.71,-1267.94 1277.67,-1267.94 1277.67,-1267.94 1362.58,-1267.94 1362.58,-1267.94 1366.54,-1267.94 1370.5,-1271.9 1370.5,-1275.86 1370.5,-1275.86 1370.5,-1283.78 1370.5,-1283.78 1370.5,-1287.73 1366.54,-1291.69 1362.58,-1291.69"/>
<text text-anchor="middle" x="1320.12" y="-1274.39" font-family="Arial" font-size="14.00" fill="#c6c5fe">builder/data.ts</text>
</g>
<!-- builder/context.ts&#45;&gt;builder/data.ts -->
<g id="edge1" class="edge">
<title>builder/context.ts&#45;&gt;builder/data.ts</title>
<path fill="none" stroke="#757575" d="M920.71,-1364.45C944.16,-1357.94 973.69,-1350.04 1000.25,-1343.82 1089.58,-1322.88 1193.98,-1302.74 1258.33,-1290.82"/>
<polygon fill="#757575" stroke="#757575" points="1258.79,-1294.29 1267.99,-1289.03 1257.52,-1287.41 1258.79,-1294.29"/>
</g>
<!-- builder/types.ts -->
<g id="node3" class="node">
<title>builder/types.ts</title>
<path fill="none" stroke="#c6c5fe" d="M1139.58,-911.69C1139.58,-911.69 1048.67,-911.69 1048.67,-911.69 1044.71,-911.69 1040.75,-907.73 1040.75,-903.78 1040.75,-903.78 1040.75,-895.86 1040.75,-895.86 1040.75,-891.9 1044.71,-887.94 1048.67,-887.94 1048.67,-887.94 1139.58,-887.94 1139.58,-887.94 1143.54,-887.94 1147.5,-891.9 1147.5,-895.86 1147.5,-895.86 1147.5,-903.78 1147.5,-903.78 1147.5,-907.73 1143.54,-911.69 1139.58,-911.69"/>
<text text-anchor="middle" x="1094.12" y="-894.39" font-family="Arial" font-size="14.00" fill="#c6c5fe">builder/types.ts</text>
</g>
<!-- builder/context.ts&#45;&gt;builder/types.ts -->
<g id="edge2" class="edge">
<title>builder/context.ts&#45;&gt;builder/types.ts</title>
<path fill="none" stroke="#757575" d="M882.89,-1364.83C896.68,-1334.85 933.71,-1254.21 964.25,-1186.82 1008.81,-1088.48 1061.39,-970.91 1083.04,-922.42"/>
<polygon fill="#757575" stroke="#757575" points="1086.13,-924.08 1087.01,-913.52 1079.74,-921.23 1086.13,-924.08"/>
</g>
<!-- events/emitter.ts -->
<g id="node4" class="node">
<title>events/emitter.ts</title>
<path fill="none" stroke="#c6c5fe" d="M1572.46,-1173.69C1572.46,-1173.69 1473.29,-1173.69 1473.29,-1173.69 1469.33,-1173.69 1465.38,-1169.73 1465.38,-1165.78 1465.38,-1165.78 1465.38,-1157.86 1465.38,-1157.86 1465.38,-1153.9 1469.33,-1149.94 1473.29,-1149.94 1473.29,-1149.94 1572.46,-1149.94 1572.46,-1149.94 1576.42,-1149.94 1580.38,-1153.9 1580.38,-1157.86 1580.38,-1157.86 1580.38,-1165.78 1580.38,-1165.78 1580.38,-1169.73 1576.42,-1173.69 1572.46,-1173.69"/>
<text text-anchor="middle" x="1522.88" y="-1156.39" font-family="Arial" font-size="14.00" fill="#c6c5fe">events/emitter.ts</text>
</g>
<!-- builder/context.ts&#45;&gt;events/emitter.ts -->
<g id="edge3" class="edge">
<title>builder/context.ts&#45;&gt;events/emitter.ts</title>
<path fill="none" stroke="#757575" d="M935.49,-1379.17C1058.26,-1383.05 1339.08,-1385.77 1416.25,-1333.82 1470.55,-1297.26 1501.84,-1222.49 1514.79,-1184.72"/>
<polygon fill="#757575" stroke="#757575" points="1518.09,-1185.89 1517.89,-1175.3 1511.44,-1183.7 1518.09,-1185.89"/>
</g>
<!-- features/scrollbar/controller.ts -->
<g id="node5" class="node">
<title>features/scrollbar/controller.ts</title>
<path fill="none" stroke="#c6c5fe" d="M1408.33,-911.69C1408.33,-911.69 1231.92,-911.69 1231.92,-911.69 1227.96,-911.69 1224,-907.73 1224,-903.78 1224,-903.78 1224,-895.86 1224,-895.86 1224,-891.9 1227.96,-887.94 1231.92,-887.94 1231.92,-887.94 1408.33,-887.94 1408.33,-887.94 1412.29,-887.94 1416.25,-891.9 1416.25,-895.86 1416.25,-895.86 1416.25,-903.78 1416.25,-903.78 1416.25,-907.73 1412.29,-911.69 1408.33,-911.69"/>
<text text-anchor="middle" x="1320.12" y="-894.39" font-family="Arial" font-size="14.00" fill="#c6c5fe">features/scrollbar/controller.ts</text>
</g>
<!-- builder/context.ts&#45;&gt;features/scrollbar/controller.ts -->
<g id="edge4" class="edge">
<title>builder/context.ts&#45;&gt;features/scrollbar/controller.ts</title>
<path fill="none" stroke="#757575" d="M888.74,-1364.55C948.29,-1300.24 1224.56,-1001.93 1300.03,-920.44"/>
<polygon fill="#757575" stroke="#757575" points="1302.58,-922.83 1306.81,-913.12 1297.45,-918.08 1302.58,-922.83"/>
</g>
<!-- rendering/heights.ts -->
<g id="node6" class="node">
<title>rendering/heights.ts</title>
<path fill="none" stroke="#cfffac" d="M1933.33,-331.69C1933.33,-331.69 1814.67,-331.69 1814.67,-331.69 1810.71,-331.69 1806.75,-327.73 1806.75,-323.78 1806.75,-323.78 1806.75,-315.86 1806.75,-315.86 1806.75,-311.9 1810.71,-307.94 1814.67,-307.94 1814.67,-307.94 1933.33,-307.94 1933.33,-307.94 1937.29,-307.94 1941.25,-311.9 1941.25,-315.86 1941.25,-315.86 1941.25,-323.78 1941.25,-323.78 1941.25,-327.73 1937.29,-331.69 1933.33,-331.69"/>
<text text-anchor="middle" x="1874" y="-314.39" font-family="Arial" font-size="14.00" fill="#cfffac">rendering/heights.ts</text>
</g>
<!-- builder/context.ts&#45;&gt;rendering/heights.ts -->
<g id="edge5" class="edge">
<title>builder/context.ts&#45;&gt;rendering/heights.ts</title>
<path fill="none" stroke="#757575" d="M900.58,-1389.17C924.7,-1401.26 963.94,-1418.84 1000.25,-1425.82 1266.6,-1476.97 1416.93,-1488.69 1593.5,-1282.82 1709.61,-1147.45 1715.88,-1092.51 1770.75,-922.82 1841.3,-704.64 1865.58,-425.47 1871.46,-343.46"/>
<polygon fill="#757575" stroke="#757575" points="1874.94,-343.76 1872.14,-333.54 1867.96,-343.27 1874.94,-343.76"/>
</g>
<!-- rendering/renderer.ts -->
<g id="node7" class="node">
<title>rendering/renderer.ts</title>
<path fill="none" stroke="#c6c5fe" d="M1585.58,-789.69C1585.58,-789.69 1460.17,-789.69 1460.17,-789.69 1456.21,-789.69 1452.25,-785.73 1452.25,-781.78 1452.25,-781.78 1452.25,-773.86 1452.25,-773.86 1452.25,-769.9 1456.21,-765.94 1460.17,-765.94 1460.17,-765.94 1585.58,-765.94 1585.58,-765.94 1589.54,-765.94 1593.5,-769.9 1593.5,-773.86 1593.5,-773.86 1593.5,-781.78 1593.5,-781.78 1593.5,-785.73 1589.54,-789.69 1585.58,-789.69"/>
<text text-anchor="middle" x="1522.88" y="-772.39" font-family="Arial" font-size="14.00" fill="#c6c5fe">rendering/renderer.ts</text>
</g>
<!-- builder/context.ts&#45;&gt;rendering/renderer.ts -->
<g id="edge6" class="edge">
<title>builder/context.ts&#45;&gt;rendering/renderer.ts</title>
<path fill="none" stroke="#757575" d="M935.87,-1370.43C998.39,-1363.42 1100.35,-1351.47 1188,-1338.82 1194.36,-1337.9 1411.92,-1305.57 1416.25,-1300.82 1491.56,-1218.13 1382.38,-886.15 1452.25,-798.82 1452.6,-798.39 1452.95,-797.96 1453.31,-797.55"/>
<polygon fill="#757575" stroke="#757575" points="1455.57,-800.22 1460.83,-791.02 1450.98,-794.94 1455.57,-800.22"/>
</g>
<!-- rendering/viewport.ts -->
<g id="node8" class="node">
<title>rendering/viewport.ts</title>
<path fill="none" stroke="#c6c5fe" d="M1762.83,-913.69C1762.83,-913.69 1637.42,-913.69 1637.42,-913.69 1633.46,-913.69 1629.5,-909.73 1629.5,-905.78 1629.5,-905.78 1629.5,-897.86 1629.5,-897.86 1629.5,-893.9 1633.46,-889.94 1637.42,-889.94 1637.42,-889.94 1762.83,-889.94 1762.83,-889.94 1766.79,-889.94 1770.75,-893.9 1770.75,-897.86 1770.75,-897.86 1770.75,-905.78 1770.75,-905.78 1770.75,-909.73 1766.79,-913.69 1762.83,-913.69"/>
<text text-anchor="middle" x="1700.12" y="-896.39" font-family="Arial" font-size="14.00" fill="#c6c5fe">rendering/viewport.ts</text>
</g>
<!-- builder/context.ts&#45;&gt;rendering/viewport.ts -->
<g id="edge7" class="edge">
<title>builder/context.ts&#45;&gt;rendering/viewport.ts</title>
<path fill="none" stroke="#757575" d="M925.59,-1389.19C1023.9,-1411.71 1252.08,-1450.01 1416.25,-1368.82 1600.33,-1277.78 1675.43,-1006.38 1694.18,-925.08"/>
<polygon fill="#757575" stroke="#757575" points="1697.58,-925.92 1696.34,-915.39 1690.74,-924.39 1697.58,-925.92"/>
</g>
<!-- types.ts -->
<g id="node9" class="node">
<title>types.ts</title>
<path fill="none" stroke="#cfffac" d="M1897.33,-872.69C1897.33,-872.69 1850.67,-872.69 1850.67,-872.69 1846.71,-872.69 1842.75,-868.73 1842.75,-864.78 1842.75,-864.78 1842.75,-856.86 1842.75,-856.86 1842.75,-852.9 1846.71,-848.94 1850.67,-848.94 1850.67,-848.94 1897.33,-848.94 1897.33,-848.94 1901.29,-848.94 1905.25,-852.9 1905.25,-856.86 1905.25,-856.86 1905.25,-864.78 1905.25,-864.78 1905.25,-868.73 1901.29,-872.69 1897.33,-872.69"/>
<text text-anchor="middle" x="1874" y="-855.39" font-family="Arial" font-size="14.00" fill="#cfffac">types.ts</text>
</g>
<!-- builder/context.ts&#45;&gt;types.ts -->
<g id="edge8" class="edge">
<title>builder/context.ts&#45;&gt;types.ts</title>
<path fill="none" stroke="#757575" d="M883.69,-1388.85C899.46,-1417.8 943.43,-1491.95 1000.25,-1532.82 1120.72,-1619.46 1170.73,-1631.82 1319.12,-1631.82 1319.12,-1631.82 1319.12,-1631.82 1523.88,-1631.82 1635.17,-1631.82 1693.21,-1669.66 1770.75,-1589.82 1871.28,-1486.31 1874.02,-998.26 1873.26,-884.54"/>
<polygon fill="#757575" stroke="#757575" points="1876.76,-884.59 1873.18,-874.62 1869.76,-884.65 1876.76,-884.59"/>
</g>
<!-- builder/data.ts&#45;&gt;types.ts -->
<g id="edge12" class="edge">
<title>builder/data.ts&#45;&gt;types.ts</title>
<path fill="none" stroke="#757575" d="M1363.78,-1292.13C1451.14,-1314.53 1652.11,-1351.14 1770.75,-1253.82 1829.35,-1205.74 1861.65,-961.16 1870.48,-884.1"/>
<polygon fill="#757575" stroke="#757575" points="1873.94,-884.68 1871.57,-874.35 1866.98,-883.9 1873.94,-884.68"/>
</g>
<!-- builder/types.ts&#45;&gt;builder/data.ts -->
<g id="edge15" class="edge">
<title>builder/types.ts&#45;&gt;builder/data.ts</title>
<path fill="none" stroke="#757575" d="M1102.32,-912.03C1134.38,-966.41 1264.36,-1186.91 1306.13,-1257.77"/>
<polygon fill="#757575" stroke="#757575" points="1302.98,-1259.32 1311.07,-1266.16 1309.01,-1255.76 1302.98,-1259.32"/>
</g>
<!-- builder/types.ts&#45;&gt;features/scrollbar/controller.ts -->
<g id="edge17" class="edge">
<title>builder/types.ts&#45;&gt;features/scrollbar/controller.ts</title>
<path fill="none" stroke="#757575" d="M1147.93,-899.82C1167.29,-899.82 1189.97,-899.82 1212.36,-899.82"/>
<polygon fill="#757575" stroke="#757575" points="1212.16,-903.32 1222.16,-899.82 1212.16,-896.32 1212.16,-903.32"/>
</g>
<!-- builder/types.ts&#45;&gt;rendering/viewport.ts -->
<g id="edge19" class="edge">
<title>builder/types.ts&#45;&gt;rendering/viewport.ts</title>
<path fill="none" stroke="#757575" d="M1147.87,-910.39C1171.11,-914.53 1198.81,-918.78 1224,-920.82 1362.17,-932 1523.51,-920.34 1618.17,-910.99"/>
<polygon fill="#757575" stroke="#757575" points="1618.27,-914.5 1627.87,-910.01 1617.57,-907.53 1618.27,-914.5"/>
</g>
<!-- builder/types.ts&#45;&gt;types.ts -->
<g id="edge20" class="edge">
<title>builder/types.ts&#45;&gt;types.ts</title>
<path fill="none" stroke="#757575" d="M1128.48,-912.18C1154.18,-921.02 1190.81,-932.15 1224,-936.82 1464.71,-970.69 1538.38,-994.17 1770.75,-922.82 1799.95,-913.85 1829.36,-894.71 1849.1,-880.05"/>
<polygon fill="#757575" stroke="#757575" points="1851.2,-882.85 1857.02,-874 1846.95,-877.29 1851.2,-882.85"/>
</g>
<!-- events/index.ts -->
<g id="node12" class="node">
<title>events/index.ts</title>
<path fill="none" stroke="#c6c5fe" d="M1365.21,-869.69C1365.21,-869.69 1275.04,-869.69 1275.04,-869.69 1271.08,-869.69 1267.12,-865.73 1267.12,-861.78 1267.12,-861.78 1267.12,-853.86 1267.12,-853.86 1267.12,-849.9 1271.08,-845.94 1275.04,-845.94 1275.04,-845.94 1365.21,-845.94 1365.21,-845.94 1369.17,-845.94 1373.12,-849.9 1373.12,-853.86 1373.12,-853.86 1373.12,-861.78 1373.12,-861.78 1373.12,-865.73 1369.17,-869.69 1365.21,-869.69"/>
<text text-anchor="middle" x="1320.12" y="-852.39" font-family="Arial" font-size="14.00" fill="#c6c5fe">events/index.ts</text>
</g>
<!-- builder/types.ts&#45;&gt;events/index.ts -->
<g id="edge16" class="edge">
<title>builder/types.ts&#45;&gt;events/index.ts</title>
<path fill="none" stroke="#757575" d="M1147.93,-889.92C1180.12,-883.88 1221.46,-876.13 1255.46,-869.76"/>
<polygon fill="#757575" stroke="#757575" points="1256.01,-873.21 1265.19,-867.93 1254.72,-866.33 1256.01,-873.21"/>
</g>
<!-- rendering/index.ts -->
<g id="node13" class="node">
<title>rendering/index.ts</title>
<path fill="none" stroke="#c6c5fe" d="M1373.83,-789.69C1373.83,-789.69 1266.42,-789.69 1266.42,-789.69 1262.46,-789.69 1258.5,-785.73 1258.5,-781.78 1258.5,-781.78 1258.5,-773.86 1258.5,-773.86 1258.5,-769.9 1262.46,-765.94 1266.42,-765.94 1266.42,-765.94 1373.83,-765.94 1373.83,-765.94 1377.79,-765.94 1381.75,-769.9 1381.75,-773.86 1381.75,-773.86 1381.75,-781.78 1381.75,-781.78 1381.75,-785.73 1377.79,-789.69 1373.83,-789.69"/>
<text text-anchor="middle" x="1320.12" y="-772.39" font-family="Arial" font-size="14.00" fill="#c6c5fe">rendering/index.ts</text>
</g>
<!-- builder/types.ts&#45;&gt;rendering/index.ts -->
<g id="edge18" class="edge">
<title>builder/types.ts&#45;&gt;rendering/index.ts</title>
<path fill="none" stroke="#757575" d="M1117.84,-887.45C1157.77,-865.7 1240.68,-820.54 1286.65,-795.5"/>
<polygon fill="#757575" stroke="#757575" points="1288.25,-798.62 1295.36,-790.76 1284.9,-792.47 1288.25,-798.62"/>
</g>
<!-- events/emitter.ts&#45;&gt;types.ts -->
<g id="edge21" class="edge">
<title>events/emitter.ts&#45;&gt;types.ts</title>
<path fill="none" stroke="#757575" d="M1580.8,-1171.63C1635.26,-1177.68 1716.87,-1177.63 1770.75,-1135.82 1851.78,-1072.94 1868.6,-938.84 1872.09,-884.46"/>
<polygon fill="#757575" stroke="#757575" points="1875.58,-884.68 1872.62,-874.51 1868.59,-884.31 1875.58,-884.68"/>
</g>
<!-- rendering/scale.ts -->
<g id="node28" class="node">
<title>rendering/scale.ts</title>
<path fill="none" stroke="#c6c5fe" d="M1576.21,-831.69C1576.21,-831.69 1469.54,-831.69 1469.54,-831.69 1465.58,-831.69 1461.62,-827.73 1461.62,-823.78 1461.62,-823.78 1461.62,-815.86 1461.62,-815.86 1461.62,-811.9 1465.58,-807.94 1469.54,-807.94 1469.54,-807.94 1576.21,-807.94 1576.21,-807.94 1580.17,-807.94 1584.12,-811.9 1584.12,-815.86 1584.12,-815.86 1584.12,-823.78 1584.12,-823.78 1584.12,-827.73 1580.17,-831.69 1576.21,-831.69"/>
<text text-anchor="middle" x="1522.88" y="-814.39" font-family="Arial" font-size="14.00" fill="#c6c5fe">rendering/scale.ts</text>
</g>
<!-- features/scrollbar/controller.ts&#45;&gt;rendering/scale.ts -->
<g id="edge65" class="edge">
<title>features/scrollbar/controller.ts&#45;&gt;rendering/scale.ts</title>
<path fill="none" stroke="#757575" d="M1388.63,-887.49C1398.04,-885.03 1407.48,-882.15 1416.25,-878.82 1444.26,-868.17 1473.85,-851.07 1494.56,-838.01"/>
<polygon fill="#757575" stroke="#757575" points="1496.17,-841.14 1502.7,-832.79 1492.39,-835.24 1496.17,-841.14"/>
</g>
<!-- rendering/renderer.ts&#45;&gt;rendering/heights.ts -->
<g id="edge114" class="edge">
<title>rendering/renderer.ts&#45;&gt;rendering/heights.ts</title>
<path fill="none" stroke="#757575" d="M1538.86,-765.65C1553.56,-753.35 1576.24,-733.41 1593.5,-713.82 1709.32,-582.35 1822.25,-403.06 1859.87,-341.56"/>
<polygon fill="#757575" stroke="#757575" points="1862.63,-343.75 1864.84,-333.39 1856.65,-340.11 1862.63,-343.75"/>
</g>
<!-- rendering/renderer.ts&#45;&gt;rendering/viewport.ts -->
<g id="edge115" class="edge">
<title>rendering/renderer.ts&#45;&gt;rendering/viewport.ts</title>
<path fill="none" stroke="#757575" d="M1580.52,-790.11C1585.21,-792.51 1589.63,-795.38 1593.5,-798.82 1623.29,-825.21 1599.71,-854.42 1629.5,-880.82 1630.59,-881.78 1631.72,-882.7 1632.89,-883.58"/>
<polygon fill="#757575" stroke="#757575" points="1630.85,-886.44 1641.2,-888.73 1634.54,-880.49 1630.85,-886.44"/>
</g>
<!-- rendering/renderer.ts&#45;&gt;types.ts -->
<g id="edge116" class="edge">
<title>rendering/renderer.ts&#45;&gt;types.ts</title>
<path fill="none" stroke="#757575" d="M1593.87,-786.2C1643.76,-793.09 1712.09,-804.41 1770.75,-820.82 1792.8,-826.98 1816.66,-836.17 1835.79,-844.18"/>
<polygon fill="#757575" stroke="#757575" points="1834.2,-847.31 1844.77,-848.01 1836.95,-840.87 1834.2,-847.31"/>
</g>
<!-- rendering/viewport.ts&#45;&gt;rendering/heights.ts -->
<g id="edge120" class="edge">
<title>rendering/viewport.ts&#45;&gt;rendering/heights.ts</title>
<path fill="none" stroke="#757575" d="M1760.3,-889.46C1764.17,-887.06 1767.72,-884.21 1770.75,-880.82 1843.81,-799.03 1867,-438.62 1871.91,-343.11"/>
<polygon fill="#757575" stroke="#757575" points="1875.39,-343.57 1872.39,-333.41 1868.4,-343.23 1875.39,-343.57"/>
</g>
<!-- rendering/viewport.ts&#45;&gt;types.ts -->
<g id="edge121" class="edge">
<title>rendering/viewport.ts&#45;&gt;types.ts</title>
<path fill="none" stroke="#757575" d="M1752.69,-889.52C1777.85,-883.52 1807.7,-876.39 1831.38,-870.75"/>
<polygon fill="#757575" stroke="#757575" points="1832.07,-874.18 1840.99,-868.45 1830.45,-867.37 1832.07,-874.18"/>
</g>
<!-- builder/core.ts -->
<g id="node10" class="node">
<title>builder/core.ts</title>
<path fill="none" stroke="#c6c5fe" d="M918.83,-1177.69C918.83,-1177.69 833.92,-1177.69 833.92,-1177.69 829.96,-1177.69 826,-1173.73 826,-1169.78 826,-1169.78 826,-1161.86 826,-1161.86 826,-1157.9 829.96,-1153.94 833.92,-1153.94 833.92,-1153.94 918.83,-1153.94 918.83,-1153.94 922.79,-1153.94 926.75,-1157.9 926.75,-1161.86 926.75,-1161.86 926.75,-1169.78 926.75,-1169.78 926.75,-1173.73 922.79,-1177.69 918.83,-1177.69"/>
<text text-anchor="middle" x="876.38" y="-1160.39" font-family="Arial" font-size="14.00" fill="#c6c5fe">builder/core.ts</text>
</g>
<!-- builder/core.ts&#45;&gt;builder/types.ts -->
<g id="edge9" class="edge">
<title>builder/core.ts&#45;&gt;builder/types.ts</title>
<path fill="none" stroke="#757575" d="M927.05,-1161.29C940.16,-1158.2 953.6,-1153.11 964.25,-1144.82 965.49,-1143.86 1050.21,-981.91 1081.6,-921.87"/>
<polygon fill="#757575" stroke="#757575" points="1084.57,-923.74 1086.1,-913.25 1078.37,-920.49 1084.57,-923.74"/>
</g>
<!-- builder/core.ts&#45;&gt;rendering/viewport.ts -->
<g id="edge10" class="edge">
<title>builder/core.ts&#45;&gt;rendering/viewport.ts</title>
<path fill="none" stroke="#757575" d="M927.13,-1162.67C1022.59,-1156.09 1237.82,-1138.73 1416.25,-1105.82 1496.29,-1091.05 1527.15,-1106.96 1593.5,-1059.82 1642.8,-1024.79 1675.65,-958.93 1690.33,-924.34"/>
<polygon fill="#757575" stroke="#757575" points="1693.48,-925.88 1694.04,-915.3 1687.01,-923.23 1693.48,-925.88"/>
</g>
<!-- builder/core.ts&#45;&gt;types.ts -->
<g id="edge11" class="edge">
<title>builder/core.ts&#45;&gt;types.ts</title>
<path fill="none" stroke="#757575" d="M896.38,-1178.11C1000.83,-1243.98 1509.76,-1543.29 1770.75,-1296.82 1831.98,-1238.99 1862.8,-966.79 1870.83,-884.46"/>
<polygon fill="#757575" stroke="#757575" points="1874.31,-884.93 1871.77,-874.65 1867.34,-884.27 1874.31,-884.93"/>
</g>
<!-- builder/index.ts -->
<g id="node11" class="node">
<title>builder/index.ts</title>
<path fill="none" stroke="#c6c5fe" d="M497.96,-1025.69C497.96,-1025.69 407.04,-1025.69 407.04,-1025.69 403.08,-1025.69 399.12,-1021.73 399.12,-1017.78 399.12,-1017.78 399.12,-1009.86 399.12,-1009.86 399.12,-1005.9 403.08,-1001.94 407.04,-1001.94 407.04,-1001.94 497.96,-1001.94 497.96,-1001.94 501.92,-1001.94 505.88,-1005.9 505.88,-1009.86 505.88,-1009.86 505.88,-1017.78 505.88,-1017.78 505.88,-1021.73 501.92,-1025.69 497.96,-1025.69"/>
<text text-anchor="middle" x="452.5" y="-1008.39" font-family="Arial" font-size="14.00" fill="#c6c5fe">builder/index.ts</text>
</g>
<!-- builder/index.ts&#45;&gt;builder/types.ts -->
<g id="edge14" class="edge">
<title>builder/index.ts&#45;&gt;builder/types.ts</title>
<path fill="none" stroke="#757575" d="M474.25,-1001.57C498.75,-987.74 541.15,-965.75 580.5,-954.82 737.71,-911.16 930.94,-901.79 1029.19,-900.01"/>
<polygon fill="#757575" stroke="#757575" points="1028.95,-903.52 1038.89,-899.86 1028.84,-896.52 1028.95,-903.52"/>
</g>
<!-- builder/index.ts&#45;&gt;builder/core.ts -->
<g id="edge13" class="edge">
<title>builder/index.ts&#45;&gt;builder/core.ts</title>
<path fill="none" stroke="#757575" d="M460.86,-1025.93C477.96,-1052.82 523.29,-1117.18 580.5,-1143.82 655.42,-1178.7 752.72,-1178.41 814.62,-1173.39"/>
<polygon fill="#757575" stroke="#757575" points="814.6,-1176.91 824.25,-1172.54 813.98,-1169.94 814.6,-1176.91"/>
</g>
<!-- events/index.ts&#45;&gt;events/emitter.ts -->
<g id="edge22" class="edge">
<title>events/index.ts&#45;&gt;events/emitter.ts</title>
<path fill="none" stroke="#757575" d="M1373.27,-859.97C1388.58,-862.91 1404.38,-868.5 1416.25,-878.82 1496.12,-948.23 1515.71,-1084.04 1520.42,-1138.45"/>
<polygon fill="#757575" stroke="#757575" points="1516.9,-1138.4 1521.15,-1148.11 1523.88,-1137.87 1516.9,-1138.4"/>
</g>
<!-- rendering/index.ts&#45;&gt;rendering/heights.ts -->
<g id="edge110" class="edge">
<title>rendering/index.ts&#45;&gt;rendering/heights.ts</title>
<path fill="none" stroke="#757575" d="M1332.47,-765.45C1371.51,-723.23 1504.75,-581.88 1629.5,-481.82 1701.83,-423.81 1794.86,-366.13 1842.26,-337.83"/>
<polygon fill="#757575" stroke="#757575" points="1843.82,-340.97 1850.63,-332.85 1840.25,-334.95 1843.82,-340.97"/>
</g>
<!-- rendering/index.ts&#45;&gt;rendering/renderer.ts -->
<g id="edge111" class="edge">
<title>rendering/index.ts&#45;&gt;rendering/renderer.ts</title>
<path fill="none" stroke="#757575" d="M1382.17,-777.82C1400.59,-777.82 1421.11,-777.82 1440.62,-777.82"/>
<polygon fill="#757575" stroke="#757575" points="1440.46,-781.32 1450.46,-777.82 1440.46,-774.32 1440.46,-781.32"/>
</g>
<!-- rendering/index.ts&#45;&gt;rendering/viewport.ts -->
<g id="edge113" class="edge">
<title>rendering/index.ts&#45;&gt;rendering/viewport.ts</title>
<path fill="none" stroke="#757575" d="M1342.8,-789.94C1368.33,-803.82 1412.32,-826.47 1452.25,-840.82 1507.95,-860.84 1573.01,-876.62 1622.36,-887.11"/>
<polygon fill="#757575" stroke="#757575" points="1621.6,-890.53 1632.11,-889.15 1623.04,-883.68 1621.6,-890.53"/>
</g>
<!-- rendering/index.ts&#45;&gt;rendering/scale.ts -->
<g id="edge112" class="edge">
<title>rendering/index.ts&#45;&gt;rendering/scale.ts</title>
<path fill="none" stroke="#757575" d="M1380.27,-790.19C1402.63,-794.87 1428.3,-800.24 1451.59,-805.11"/>
<polygon fill="#757575" stroke="#757575" points="1450.82,-808.53 1461.32,-807.15 1452.25,-801.68 1450.82,-808.53"/>
</g>
<!-- constants.ts -->
<g id="node14" class="node">
<title>constants.ts</title>
<path fill="none" stroke="#cfffac" d="M1736.21,-871.69C1736.21,-871.69 1664.04,-871.69 1664.04,-871.69 1660.08,-871.69 1656.12,-867.73 1656.12,-863.78 1656.12,-863.78 1656.12,-855.86 1656.12,-855.86 1656.12,-851.9 1660.08,-847.94 1664.04,-847.94 1664.04,-847.94 1736.21,-847.94 1736.21,-847.94 1740.17,-847.94 1744.12,-851.9 1744.12,-855.86 1744.12,-855.86 1744.12,-863.78 1744.12,-863.78 1744.12,-867.73 1740.17,-871.69 1736.21,-871.69"/>
<text text-anchor="middle" x="1700.12" y="-854.39" font-family="Arial" font-size="14.00" fill="#cfffac">constants.ts</text>
</g>
<!-- core/lite.ts -->
<g id="node15" class="node">
<title>core/lite.ts</title>
<path fill="none" stroke="#cfffac" d="M84.96,-831.69C84.96,-831.69 23.29,-831.69 23.29,-831.69 19.33,-831.69 15.38,-827.73 15.38,-823.78 15.38,-823.78 15.38,-815.86 15.38,-815.86 15.38,-811.9 19.33,-807.94 23.29,-807.94 23.29,-807.94 84.96,-807.94 84.96,-807.94 88.92,-807.94 92.88,-811.9 92.88,-815.86 92.88,-815.86 92.88,-823.78 92.88,-823.78 92.88,-827.73 88.92,-831.69 84.96,-831.69"/>
<text text-anchor="middle" x="54.12" y="-814.39" font-family="Arial" font-size="14.00" fill="#cfffac">core/lite.ts</text>
</g>
<!-- core/minimal.ts -->
<g id="node16" class="node">
<title>core/minimal.ts</title>
<path fill="none" stroke="#cfffac" d="M100.33,-873.69C100.33,-873.69 7.92,-873.69 7.92,-873.69 3.96,-873.69 0,-869.73 0,-865.78 0,-865.78 0,-857.86 0,-857.86 0,-853.9 3.96,-849.94 7.92,-849.94 7.92,-849.94 100.33,-849.94 100.33,-849.94 104.29,-849.94 108.25,-853.9 108.25,-857.86 108.25,-857.86 108.25,-865.78 108.25,-865.78 108.25,-869.73 104.29,-873.69 100.33,-873.69"/>
<text text-anchor="middle" x="54.12" y="-856.39" font-family="Arial" font-size="14.00" fill="#cfffac">core/minimal.ts</text>
</g>
<!-- features/async/index.ts -->
<g id="node17" class="node">
<title>features/async/index.ts</title>
<path fill="none" stroke="#c6c5fe" d="M735.58,-1523.69C735.58,-1523.69 597.42,-1523.69 597.42,-1523.69 593.46,-1523.69 589.5,-1519.73 589.5,-1515.78 589.5,-1515.78 589.5,-1507.86 589.5,-1507.86 589.5,-1503.9 593.46,-1499.94 597.42,-1499.94 597.42,-1499.94 735.58,-1499.94 735.58,-1499.94 739.54,-1499.94 743.5,-1503.9 743.5,-1507.86 743.5,-1507.86 743.5,-1515.78 743.5,-1515.78 743.5,-1519.73 739.54,-1523.69 735.58,-1523.69"/>
<text text-anchor="middle" x="666.5" y="-1506.39" font-family="Arial" font-size="14.00" fill="#c6c5fe">features/async/index.ts</text>
</g>
<!-- features/async/manager.ts -->
<g id="node18" class="node">
<title>features/async/manager.ts</title>
<path fill="none" stroke="#c6c5fe" d="M1173.71,-1523.69C1173.71,-1523.69 1014.54,-1523.69 1014.54,-1523.69 1010.58,-1523.69 1006.62,-1519.73 1006.62,-1515.78 1006.62,-1515.78 1006.62,-1507.86 1006.62,-1507.86 1006.62,-1503.9 1010.58,-1499.94 1014.54,-1499.94 1014.54,-1499.94 1173.71,-1499.94 1173.71,-1499.94 1177.67,-1499.94 1181.62,-1503.9 1181.62,-1507.86 1181.62,-1507.86 1181.62,-1515.78 1181.62,-1515.78 1181.62,-1519.73 1177.67,-1523.69 1173.71,-1523.69"/>
<text text-anchor="middle" x="1094.12" y="-1506.39" font-family="Arial" font-size="14.00" fill="#c6c5fe">features/async/manager.ts</text>
</g>
<!-- features/async/index.ts&#45;&gt;features/async/manager.ts -->
<g id="edge23" class="edge">
<title>features/async/index.ts&#45;&gt;features/async/manager.ts</title>
<path fill="none" stroke="#757575" d="M743.59,-1511.82C813.9,-1511.82 918.73,-1511.82 995.25,-1511.82"/>
<polygon fill="#757575" stroke="#757575" points="994.81,-1515.32 1004.81,-1511.82 994.81,-1508.32 994.81,-1515.32"/>
</g>
<!-- features/async/placeholder.ts -->
<g id="node19" class="node">
<title>features/async/placeholder.ts</title>
<path fill="none" stroke="#c6c5fe" d="M1407.58,-1603.69C1407.58,-1603.69 1232.67,-1603.69 1232.67,-1603.69 1228.71,-1603.69 1224.75,-1599.73 1224.75,-1595.78 1224.75,-1595.78 1224.75,-1587.86 1224.75,-1587.86 1224.75,-1583.9 1228.71,-1579.94 1232.67,-1579.94 1232.67,-1579.94 1407.58,-1579.94 1407.58,-1579.94 1411.54,-1579.94 1415.5,-1583.9 1415.5,-1587.86 1415.5,-1587.86 1415.5,-1595.78 1415.5,-1595.78 1415.5,-1599.73 1411.54,-1603.69 1407.58,-1603.69"/>
<text text-anchor="middle" x="1320.12" y="-1586.39" font-family="Arial" font-size="14.00" fill="#c6c5fe">features/async/placeholder.ts</text>
</g>
<!-- features/async/index.ts&#45;&gt;features/async/placeholder.ts -->
<g id="edge24" class="edge">
<title>features/async/index.ts&#45;&gt;features/async/placeholder.ts</title>
<path fill="none" stroke="#757575" d="M705.79,-1524.14C729.4,-1531.26 760.42,-1539.79 788.5,-1544.82 934.45,-1570.97 1105.71,-1582.8 1213.34,-1587.99"/>
<polygon fill="#757575" stroke="#757575" points="1212.85,-1591.47 1223.01,-1588.44 1213.18,-1584.48 1212.85,-1591.47"/>
</g>
<!-- features/async/feature.ts -->
<g id="node20" class="node">
<title>features/async/feature.ts</title>
<path fill="none" stroke="#c6c5fe" d="M947.33,-1135.69C947.33,-1135.69 805.42,-1135.69 805.42,-1135.69 801.46,-1135.69 797.5,-1131.73 797.5,-1127.78 797.5,-1127.78 797.5,-1119.86 797.5,-1119.86 797.5,-1115.9 801.46,-1111.94 805.42,-1111.94 805.42,-1111.94 947.33,-1111.94 947.33,-1111.94 951.29,-1111.94 955.25,-1115.9 955.25,-1119.86 955.25,-1119.86 955.25,-1127.78 955.25,-1127.78 955.25,-1131.73 951.29,-1135.69 947.33,-1135.69"/>
<text text-anchor="middle" x="876.38" y="-1118.39" font-family="Arial" font-size="14.00" fill="#c6c5fe">features/async/feature.ts</text>
</g>
<!-- features/async/index.ts&#45;&gt;features/async/feature.ts -->
<g id="edge25" class="edge">
<title>features/async/index.ts&#45;&gt;features/async/feature.ts</title>
<path fill="none" stroke="#757575" d="M667.54,-1499.46C668.42,-1447.62 678.99,-1245.77 788.5,-1144.82 789.41,-1143.98 790.35,-1143.17 791.32,-1142.39"/>
<polygon fill="#757575" stroke="#757575" points="792.98,-1145.49 799.36,-1137.02 789.1,-1139.66 792.98,-1145.49"/>
</g>
<!-- features/async/sparse.ts -->
<g id="node21" class="node">
<title>features/async/sparse.ts</title>
<path fill="none" stroke="#c6c5fe" d="M1393.33,-1561.69C1393.33,-1561.69 1246.92,-1561.69 1246.92,-1561.69 1242.96,-1561.69 1239,-1557.73 1239,-1553.78 1239,-1553.78 1239,-1545.86 1239,-1545.86 1239,-1541.9 1242.96,-1537.94 1246.92,-1537.94 1246.92,-1537.94 1393.33,-1537.94 1393.33,-1537.94 1397.29,-1537.94 1401.25,-1541.9 1401.25,-1545.86 1401.25,-1545.86 1401.25,-1553.78 1401.25,-1553.78 1401.25,-1557.73 1397.29,-1561.69 1393.33,-1561.69"/>
<text text-anchor="middle" x="1320.12" y="-1544.39" font-family="Arial" font-size="14.00" fill="#c6c5fe">features/async/sparse.ts</text>
</g>
<!-- features/async/index.ts&#45;&gt;features/async/sparse.ts -->
<g id="edge26" class="edge">
<title>features/async/index.ts&#45;&gt;features/async/sparse.ts</title>
<path fill="none" stroke="#757575" d="M743.91,-1521.48C758.69,-1523.12 774.06,-1524.66 788.5,-1525.82 942.15,-1538.17 1121.39,-1544.62 1227.28,-1547.61"/>
<polygon fill="#757575" stroke="#757575" points="1226.95,-1551.11 1237.05,-1547.89 1227.15,-1544.11 1226.95,-1551.11"/>
</g>
<!-- features/async/manager.ts&#45;&gt;types.ts -->
<g id="edge29" class="edge">
<title>features/async/manager.ts&#45;&gt;types.ts</title>
<path fill="none" stroke="#757575" d="M1182.03,-1516.19C1345.01,-1522.43 1687.65,-1525.63 1770.75,-1447.82 1854.66,-1369.24 1869.94,-984.65 1872.51,-884.63"/>
<polygon fill="#757575" stroke="#757575" points="1876.01,-884.76 1872.75,-874.68 1869.01,-884.59 1876.01,-884.76"/>
</g>
<!-- features/async/manager.ts&#45;&gt;features/async/placeholder.ts -->
<g id="edge27" class="edge">
<title>features/async/manager.ts&#45;&gt;features/async/placeholder.ts</title>
<path fill="none" stroke="#757575" d="M1117.81,-1523.99C1143.09,-1537.14 1185.5,-1557.92 1224,-1570.82 1230.22,-1572.9 1236.73,-1574.83 1243.31,-1576.61"/>
<polygon fill="#757575" stroke="#757575" points="1242.38,-1579.99 1252.94,-1579.09 1244.12,-1573.21 1242.38,-1579.99"/>
</g>
<!-- features/async/manager.ts&#45;&gt;features/async/sparse.ts -->
<g id="edge28" class="edge">
<title>features/async/manager.ts&#45;&gt;features/async/sparse.ts</title>
<path fill="none" stroke="#757575" d="M1167.85,-1524.15C1189.38,-1527.81 1213.13,-1531.84 1235.3,-1535.6"/>
<polygon fill="#757575" stroke="#757575" points="1234.44,-1539 1244.89,-1537.22 1235.61,-1532.1 1234.44,-1539"/>
</g>
<!-- features/async/placeholder.ts&#45;&gt;types.ts -->
<g id="edge30" class="edge">
<title>features/async/placeholder.ts&#45;&gt;types.ts</title>
<path fill="none" stroke="#757575" d="M1415.86,-1597.68C1532.66,-1602.7 1721.78,-1602.9 1770.75,-1555.82 1869.69,-1460.69 1873.69,-995.55 1873.22,-884.61"/>
<polygon fill="#757575" stroke="#757575" points="1876.72,-884.63 1873.15,-874.66 1869.72,-884.68 1876.72,-884.63"/>
</g>
<!-- features/async/feature.ts&#45;&gt;builder/types.ts -->
<g id="edge31" class="edge">
<title>features/async/feature.ts&#45;&gt;builder/types.ts</title>
<path fill="none" stroke="#757575" d="M893.07,-1111.61C912.37,-1095.82 944.96,-1066.55 964.25,-1034.82 990.75,-991.22 963.35,-961.05 1000.25,-925.82 1008.42,-918.01 1018.74,-912.51 1029.51,-908.65"/>
<polygon fill="#757575" stroke="#757575" points="1030.39,-912.04 1038.92,-905.75 1028.33,-905.35 1030.39,-912.04"/>
</g>
<!-- features/async/feature.ts&#45;&gt;types.ts -->
<g id="edge35" class="edge">
<title>features/async/feature.ts&#45;&gt;types.ts</title>
<path fill="none" stroke="#757575" d="M952.28,-1136.18C1086.32,-1154.99 1373.73,-1180.16 1593.5,-1093.82 1711.77,-1047.35 1816.74,-930.06 1856.29,-881.93"/>
<polygon fill="#757575" stroke="#757575" points="1858.99,-884.16 1862.56,-874.19 1853.55,-879.75 1858.99,-884.16"/>
</g>
<!-- features/async/feature.ts&#45;&gt;rendering/index.ts -->
<g id="edge34" class="edge">
<title>features/async/feature.ts&#45;&gt;rendering/index.ts</title>
<path fill="none" stroke="#757575" d="M894.75,-1111.66C918.43,-1095.15 962.26,-1064.83 1000.25,-1039.82 1082.76,-985.49 1123.95,-996.04 1188,-920.82 1214.33,-889.89 1197.52,-867.61 1224,-836.82 1239.18,-819.16 1260.99,-805.11 1279.89,-795.16"/>
<polygon fill="#757575" stroke="#757575" points="1281.33,-798.35 1288.69,-790.73 1278.18,-792.1 1281.33,-798.35"/>
</g>
<!-- features/async/feature.ts&#45;&gt;constants.ts -->
<g id="edge32" class="edge">
<title>features/async/feature.ts&#45;&gt;constants.ts</title>
<path fill="none" stroke="#757575" d="M955.63,-1121.5C1084.6,-1116.71 1335.55,-1103.06 1416.25,-1067.82 1531.77,-1017.37 1519.27,-941.96 1629.5,-880.82 1634.48,-878.06 1639.86,-875.62 1645.36,-873.47"/>
<polygon fill="#757575" stroke="#757575" points="1646.3,-876.85 1654.55,-870.2 1643.96,-870.25 1646.3,-876.85"/>
</g>
<!-- features/async/feature.ts&#45;&gt;features/async/manager.ts -->
<g id="edge33" class="edge">
<title>features/async/feature.ts&#45;&gt;features/async/manager.ts</title>
<path fill="none" stroke="#757575" d="M951.65,-1136.04C956.19,-1138.49 960.45,-1141.38 964.25,-1144.82 1068.73,-1239.29 1088.51,-1423.47 1092.25,-1488.44"/>
<polygon fill="#757575" stroke="#757575" points="1088.75,-1488.46 1092.73,-1498.27 1095.74,-1488.11 1088.75,-1488.46"/>
</g>
<!-- features/async/sparse.ts&#45;&gt;types.ts -->
<g id="edge36" class="edge">
<title>features/async/sparse.ts&#45;&gt;types.ts</title>
<path fill="none" stroke="#757575" d="M1401.28,-1556.72C1515.87,-1564.72 1718.46,-1571.35 1770.75,-1523.82 1867.44,-1435.93 1873.19,-992.78 1873.13,-884.64"/>
<polygon fill="#757575" stroke="#757575" points="1876.63,-884.67 1873.1,-874.68 1869.63,-884.68 1876.63,-884.67"/>
</g>
<!-- features/grid/index.ts -->
<g id="node22" class="node">
<title>features/grid/index.ts</title>
<path fill="none" stroke="#c6c5fe" d="M729.21,-270.69C729.21,-270.69 603.79,-270.69 603.79,-270.69 599.83,-270.69 595.88,-266.73 595.88,-262.78 595.88,-262.78 595.88,-254.86 595.88,-254.86 595.88,-250.9 599.83,-246.94 603.79,-246.94 603.79,-246.94 729.21,-246.94 729.21,-246.94 733.17,-246.94 737.12,-250.9 737.12,-254.86 737.12,-254.86 737.12,-262.78 737.12,-262.78 737.12,-266.73 733.17,-270.69 729.21,-270.69"/>
<text text-anchor="middle" x="666.5" y="-253.39" font-family="Arial" font-size="14.00" fill="#c6c5fe">features/grid/index.ts</text>
</g>
<!-- features/grid/layout.ts -->
<g id="node23" class="node">
<title>features/grid/layout.ts</title>
<path fill="none" stroke="#c6c5fe" d="M1158.71,-85.69C1158.71,-85.69 1029.54,-85.69 1029.54,-85.69 1025.58,-85.69 1021.62,-81.73 1021.62,-77.78 1021.62,-77.78 1021.62,-69.86 1021.62,-69.86 1021.62,-65.9 1025.58,-61.94 1029.54,-61.94 1029.54,-61.94 1158.71,-61.94 1158.71,-61.94 1162.67,-61.94 1166.62,-65.9 1166.62,-69.86 1166.62,-69.86 1166.62,-77.78 1166.62,-77.78 1166.62,-81.73 1162.67,-85.69 1158.71,-85.69"/>
<text text-anchor="middle" x="1094.12" y="-68.39" font-family="Arial" font-size="14.00" fill="#c6c5fe">features/grid/layout.ts</text>
</g>
<!-- features/grid/index.ts&#45;&gt;features/grid/layout.ts -->
<g id="edge37" class="edge">
<title>features/grid/index.ts&#45;&gt;features/grid/layout.ts</title>
<path fill="none" stroke="#757575" d="M672.57,-246.48C686.08,-215.43 726.19,-134.08 788.5,-99.82 856.29,-62.54 945.63,-59.28 1010.01,-63.39"/>
<polygon fill="#757575" stroke="#757575" points="1009.59,-66.87 1019.82,-64.1 1010.09,-59.89 1009.59,-66.87"/>
</g>
<!-- features/grid/feature.ts -->
<g id="node24" class="node">
<title>features/grid/feature.ts</title>
<path fill="none" stroke="#c6c5fe" d="M940.96,-359.69C940.96,-359.69 811.79,-359.69 811.79,-359.69 807.83,-359.69 803.88,-355.73 803.88,-351.78 803.88,-351.78 803.88,-343.86 803.88,-343.86 803.88,-339.9 807.83,-335.94 811.79,-335.94 811.79,-335.94 940.96,-335.94 940.96,-335.94 944.92,-335.94 948.88,-339.9 948.88,-343.86 948.88,-343.86 948.88,-351.78 948.88,-351.78 948.88,-355.73 944.92,-359.69 940.96,-359.69"/>
<text text-anchor="middle" x="876.38" y="-342.39" font-family="Arial" font-size="14.00" fill="#c6c5fe">features/grid/feature.ts</text>
</g>
<!-- features/grid/index.ts&#45;&gt;features/grid/feature.ts -->
<g id="edge38" class="edge">
<title>features/grid/index.ts&#45;&gt;features/grid/feature.ts</title>
<path fill="none" stroke="#757575" d="M733.98,-271.17C740.45,-273.56 746.74,-276.41 752.5,-279.82 772.81,-291.82 768.69,-306.01 788.5,-318.82 796.19,-323.79 804.82,-327.99 813.57,-331.52"/>
<polygon fill="#757575" stroke="#757575" points="812.24,-334.76 822.83,-334.96 814.68,-328.2 812.24,-334.76"/>
</g>
<!-- features/grid/renderer.ts -->
<g id="node25" class="node">
<title>features/grid/renderer.ts</title>
<path fill="none" stroke="#c6c5fe" d="M1165.83,-325.69C1165.83,-325.69 1022.42,-325.69 1022.42,-325.69 1018.46,-325.69 1014.5,-321.73 1014.5,-317.78 1014.5,-317.78 1014.5,-309.86 1014.5,-309.86 1014.5,-305.9 1018.46,-301.94 1022.42,-301.94 1022.42,-301.94 1165.83,-301.94 1165.83,-301.94 1169.79,-301.94 1173.75,-305.9 1173.75,-309.86 1173.75,-309.86 1173.75,-317.78 1173.75,-317.78 1173.75,-321.73 1169.79,-325.69 1165.83,-325.69"/>
<text text-anchor="middle" x="1094.12" y="-308.39" font-family="Arial" font-size="14.00" fill="#c6c5fe">features/grid/renderer.ts</text>
</g>
<!-- features/grid/index.ts&#45;&gt;features/grid/renderer.ts -->
<g id="edge39" class="edge">
<title>features/grid/index.ts&#45;&gt;features/grid/renderer.ts</title>
<path fill="none" stroke="#757575" d="M737.31,-267.84C809.95,-277.22 923.96,-291.96 1003.28,-302.21"/>
<polygon fill="#757575" stroke="#757575" points="1002.37,-305.62 1012.73,-303.43 1003.27,-298.68 1002.37,-305.62"/>
</g>
<!-- features/grid/types.ts -->
<g id="node26" class="node">
<title>features/grid/types.ts</title>
<path fill="none" stroke="#c6c5fe" d="M1382.83,-163.69C1382.83,-163.69 1257.42,-163.69 1257.42,-163.69 1253.46,-163.69 1249.5,-159.73 1249.5,-155.78 1249.5,-155.78 1249.5,-147.86 1249.5,-147.86 1249.5,-143.9 1253.46,-139.94 1257.42,-139.94 1257.42,-139.94 1382.83,-139.94 1382.83,-139.94 1386.79,-139.94 1390.75,-143.9 1390.75,-147.86 1390.75,-147.86 1390.75,-155.78 1390.75,-155.78 1390.75,-159.73 1386.79,-163.69 1382.83,-163.69"/>
<text text-anchor="middle" x="1320.12" y="-146.39" font-family="Arial" font-size="14.00" fill="#c6c5fe">features/grid/types.ts</text>
</g>
<!-- features/grid/index.ts&#45;&gt;features/grid/types.ts -->
<g id="edge40" class="edge">
<title>features/grid/index.ts&#45;&gt;features/grid/types.ts</title>
<path fill="none" stroke="#757575" d="M670.45,-246.63C680.01,-210.06 714.01,-101.09 788.5,-57.82 942.04,31.38 1019.63,3.6 1188,-52.82 1234.25,-68.32 1277.22,-107.28 1300.65,-131.45"/>
<polygon fill="#757575" stroke="#757575" points="1297.92,-133.65 1307.33,-138.51 1303.01,-128.84 1297.92,-133.65"/>
</g>
<!-- features/grid/layout.ts&#45;&gt;features/grid/types.ts -->
<g id="edge41" class="edge">
<title>features/grid/layout.ts&#45;&gt;features/grid/types.ts</title>
<path fill="none" stroke="#757575" d="M1142.67,-86.1C1157.3,-90.15 1173.4,-94.89 1188,-99.82 1219.37,-110.4 1254.18,-124.3 1280.04,-135.07"/>
<polygon fill="#757575" stroke="#757575" points="1278.57,-138.25 1289.14,-138.89 1281.28,-131.8 1278.57,-138.25"/>
</g>
<!-- features/grid/feature.ts&#45;&gt;builder/types.ts -->
<g id="edge42" class="edge">
<title>features/grid/feature.ts&#45;&gt;builder/types.ts</title>
<path fill="none" stroke="#757575" d="M925.12,-360.07C939.98,-366.26 954.9,-375.41 964.25,-388.82 1016.55,-463.85 963.33,-715.14 1000.25,-798.82 1015.06,-832.38 1045.66,-862.11 1067.69,-880.48"/>
<polygon fill="#757575" stroke="#757575" points="1065.39,-883.11 1075.37,-886.68 1069.79,-877.67 1065.39,-883.11"/>
</g>
<!-- features/grid/feature.ts&#45;&gt;types.ts -->
<g id="edge47" class="edge">
<title>features/grid/feature.ts&#45;&gt;types.ts</title>
<path fill="none" stroke="#757575" d="M949.11,-350.42C1012.19,-353.19 1106.39,-358.49 1188,-367.82 1253.2,-375.27 1722.33,-419.52 1770.75,-463.82 1827.21,-515.47 1860.96,-760.45 1870.32,-837.54"/>
<polygon fill="#757575" stroke="#757575" points="1866.82,-837.77 1871.48,-847.28 1873.77,-836.94 1866.82,-837.77"/>
</g>
<!-- features/grid/feature.ts&#45;&gt;rendering/index.ts -->
<g id="edge46" class="edge">
<title>features/grid/feature.ts&#45;&gt;rendering/index.ts</title>
<path fill="none" stroke="#757575" d="M949.2,-359.81C1030.91,-374.99 1157.05,-403.57 1188,-439.82 1267.76,-533.22 1159.32,-609.4 1224,-713.82 1236.76,-734.42 1258.91,-749.91 1278.62,-760.48"/>
<polygon fill="#757575" stroke="#757575" points="1276.79,-763.48 1287.3,-764.88 1279.96,-757.23 1276.79,-763.48"/>
</g>
<!-- features/grid/feature.ts&#45;&gt;features/grid/layout.ts -->
<g id="edge43" class="edge">
<title>features/grid/feature.ts&#45;&gt;features/grid/layout.ts</title>
<path fill="none" stroke="#757575" d="M882.2,-335.72C896.29,-301.54 940.18,-202.51 1000.25,-137.82 1017.42,-119.33 1040.83,-103.24 1059.85,-91.82"/>
<polygon fill="#757575" stroke="#757575" points="1061.44,-94.95 1068.32,-86.89 1057.91,-88.9 1061.44,-94.95"/>
</g>
<!-- features/grid/feature.ts&#45;&gt;features/grid/renderer.ts -->
<g id="edge44" class="edge">
<title>features/grid/feature.ts&#45;&gt;features/grid/renderer.ts</title>
<path fill="none" stroke="#757575" d="M949.22,-336.5C966.68,-333.74 985.56,-330.77 1003.72,-327.91"/>
<polygon fill="#757575" stroke="#757575" points="1004.09,-331.39 1013.42,-326.38 1003,-324.48 1004.09,-331.39"/>
</g>
<!-- features/grid/feature.ts&#45;&gt;features/grid/types.ts -->
<g id="edge45" class="edge">
<title>features/grid/feature.ts&#45;&gt;features/grid/types.ts</title>
<path fill="none" stroke="#757575" d="M881.56,-335.5C893.69,-301.95 932.41,-208.92 1000.25,-170.82 1073.42,-129.72 1171.51,-130.57 1239.49,-138.14"/>
<polygon fill="#757575" stroke="#757575" points="1238.7,-141.57 1249.05,-139.28 1239.53,-134.62 1238.7,-141.57"/>
</g>
<!-- features/grid/renderer.ts&#45;&gt;rendering/heights.ts -->
<g id="edge50" class="edge">
<title>features/grid/renderer.ts&#45;&gt;rendering/heights.ts</title>
<path fill="none" stroke="#757575" d="M1173.99,-314.43C1323.44,-315.58 1646.21,-318.07 1794.99,-319.22"/>
<polygon fill="#757575" stroke="#757575" points="1794.72,-322.71 1804.74,-319.29 1794.77,-315.71 1794.72,-322.71"/>
</g>
<!-- features/grid/renderer.ts&#45;&gt;rendering/renderer.ts -->
<g id="edge51" class="edge">
<title>features/grid/renderer.ts&#45;&gt;rendering/renderer.ts</title>
<path fill="none" stroke="#757575" d="M1121.99,-326.17C1141.49,-335.88 1167.86,-350.61 1188,-367.82 1197.62,-376.04 1438.44,-674.36 1504.98,-756.86"/>
<polygon fill="#757575" stroke="#757575" points="1502.25,-759.06 1511.25,-764.64 1507.7,-754.66 1502.25,-759.06"/>
</g>
<!-- features/grid/renderer.ts&#45;&gt;types.ts -->
<g id="edge53" class="edge">
<title>features/grid/renderer.ts&#45;&gt;types.ts</title>
<path fill="none" stroke="#757575" d="M1174.2,-323.83C1347.87,-346.14 1748.99,-399.57 1770.75,-419.82 1833.22,-477.93 1863.28,-754.69 1870.96,-837.41"/>
<polygon fill="#757575" stroke="#757575" points="1867.47,-837.61 1871.85,-847.25 1874.44,-836.98 1867.47,-837.61"/>
</g>
<!-- features/grid/renderer.ts&#45;&gt;features/grid/types.ts -->
<g id="edge48" class="edge">
<title>features/grid/renderer.ts&#45;&gt;features/grid/types.ts</title>
<path fill="none" stroke="#757575" d="M1115.8,-301.5C1134.88,-289.94 1163.83,-271.92 1188,-254.82 1226.93,-227.26 1270.07,-192.51 1295.87,-171.24"/>
<polygon fill="#757575" stroke="#757575" points="1297.91,-174.09 1303.38,-165.02 1293.45,-168.7 1297.91,-174.09"/>
</g>
<!-- features/sections/types.ts -->
<g id="node27" class="node">
<title>features/sections/types.ts</title>
<path fill="none" stroke="#c6c5fe" d="M1396.33,-285.69C1396.33,-285.69 1243.92,-285.69 1243.92,-285.69 1239.96,-285.69 1236,-281.73 1236,-277.78 1236,-277.78 1236,-269.86 1236,-269.86 1236,-265.9 1239.96,-261.94 1243.92,-261.94 1243.92,-261.94 1396.33,-261.94 1396.33,-261.94 1400.29,-261.94 1404.25,-265.9 1404.25,-269.86 1404.25,-269.86 1404.25,-277.78 1404.25,-277.78 1404.25,-281.73 1400.29,-285.69 1396.33,-285.69"/>
<text text-anchor="middle" x="1320.12" y="-268.39" font-family="Arial" font-size="14.00" fill="#c6c5fe">features/sections/types.ts</text>
</g>
<!-- features/grid/renderer.ts&#45;&gt;features/sections/types.ts -->
<g id="edge49" class="edge">
<title>features/grid/renderer.ts&#45;&gt;features/sections/types.ts</title>
<path fill="none" stroke="#757575" d="M1164.16,-301.49C1187.79,-297.27 1214.43,-292.51 1238.88,-288.15"/>
<polygon fill="#757575" stroke="#757575" points="1239.21,-291.64 1248.44,-286.44 1237.98,-284.75 1239.21,-291.64"/>
</g>
<!-- features/grid/renderer.ts&#45;&gt;rendering/scale.ts -->
<g id="edge52" class="edge">
<title>features/grid/renderer.ts&#45;&gt;rendering/scale.ts</title>
<path fill="none" stroke="#757575" d="M1130.61,-326.1C1150.43,-334.76 1173.91,-348.32 1188,-367.82 1233.49,-430.76 1189.17,-469.4 1224,-538.82 1281.94,-654.28 1331.49,-659.33 1416.25,-756.82 1432.38,-775.37 1431.65,-785.39 1452.25,-798.82 1454.36,-800.19 1456.55,-801.48 1458.82,-802.68"/>
<polygon fill="#757575" stroke="#757575" points="1457.18,-805.78 1467.72,-806.82 1460.13,-799.43 1457.18,-805.78"/>
</g>
<!-- features/grid/types.ts&#45;&gt;types.ts -->
<g id="edge54" class="edge">
<title>features/grid/types.ts&#45;&gt;types.ts</title>
<path fill="none" stroke="#757575" d="M1390.9,-148.2C1490.59,-147.15 1672.56,-161.25 1770.75,-267.82 1810.38,-310.82 1858.91,-732.25 1870.45,-837.23"/>
<polygon fill="#757575" stroke="#757575" points="1866.97,-837.6 1871.53,-847.16 1873.93,-836.84 1866.97,-837.6"/>
</g>
<!-- features/sections/types.ts&#45;&gt;types.ts -->
<g id="edge86" class="edge">
<title>features/sections/types.ts&#45;&gt;types.ts</title>
<path fill="none" stroke="#757575" d="M1404.33,-269.13C1505.51,-268.27 1674.64,-283.23 1770.75,-381.82 1835.6,-448.34 1864.24,-750.3 1871.24,-837.3"/>
<polygon fill="#757575" stroke="#757575" points="1867.74,-837.52 1872.01,-847.22 1874.72,-836.98 1867.74,-837.52"/>
</g>
<!-- rendering/scale.ts&#45;&gt;rendering/heights.ts -->
<g id="edge118" class="edge">
<title>rendering/scale.ts&#45;&gt;rendering/heights.ts</title>
<path fill="none" stroke="#757575" d="M1576.68,-807.49C1582.59,-805.08 1588.33,-802.21 1593.5,-798.82 1695.57,-731.75 1708.78,-694.06 1770.75,-588.82 1820.54,-504.26 1854.11,-391.12 1867.05,-343.02"/>
<polygon fill="#757575" stroke="#757575" points="1870.4,-344.02 1869.57,-333.46 1863.64,-342.24 1870.4,-344.02"/>
</g>
<!-- rendering/scale.ts&#45;&gt;types.ts -->
<g id="edge119" class="edge">
<title>rendering/scale.ts&#45;&gt;types.ts</title>
<path fill="none" stroke="#757575" d="M1584.49,-822.2C1634.62,-824.71 1707.58,-829.63 1770.75,-838.82 1790.84,-841.74 1812.88,-846.3 1831.34,-850.52"/>
<polygon fill="#757575" stroke="#757575" points="1830.32,-853.87 1840.85,-852.74 1831.91,-847.06 1830.32,-853.87"/>
</g>
<!-- rendering/scale.ts&#45;&gt;constants.ts -->
<g id="edge117" class="edge">
<title>rendering/scale.ts&#45;&gt;constants.ts</title>
<path fill="none" stroke="#757575" d="M1577.89,-832.15C1599.11,-836.99 1623.44,-842.54 1644.71,-847.4"/>
<polygon fill="#757575" stroke="#757575" points="1643.84,-850.79 1654.37,-849.6 1645.4,-843.96 1643.84,-850.79"/>
</g>
<!-- features/page/index.ts -->
<g id="node29" class="node">
<title>features/page/index.ts</title>
<path fill="none" stroke="#c6c5fe" d="M732.96,-987.69C732.96,-987.69 600.04,-987.69 600.04,-987.69 596.08,-987.69 592.12,-983.73 592.12,-979.78 592.12,-979.78 592.12,-971.86 592.12,-971.86 592.12,-967.9 596.08,-963.94 600.04,-963.94 600.04,-963.94 732.96,-963.94 732.96,-963.94 736.92,-963.94 740.88,-967.9 740.88,-971.86 740.88,-971.86 740.88,-979.78 740.88,-979.78 740.88,-983.73 736.92,-987.69 732.96,-987.69"/>
<text text-anchor="middle" x="666.5" y="-970.39" font-family="Arial" font-size="14.00" fill="#c6c5fe">features/page/index.ts</text>
</g>
<!-- features/page/index.ts&#45;&gt;builder/types.ts -->
<g id="edge55" class="edge">
<title>features/page/index.ts&#45;&gt;builder/types.ts</title>
<path fill="none" stroke="#757575" d="M741.28,-979.37C802.65,-979.98 891.42,-975.39 964.25,-949.82 982.39,-943.45 982.77,-933.84 1000.25,-925.82 1009.52,-921.56 1019.65,-917.85 1029.69,-914.68"/>
<polygon fill="#757575" stroke="#757575" points="1030.48,-918.1 1039.06,-911.88 1028.48,-911.39 1030.48,-918.1"/>
</g>
<!-- features/page/feature.ts -->
<g id="node30" class="node">
<title>features/page/feature.ts</title>
<path fill="none" stroke="#c6c5fe" d="M944.71,-1025.69C944.71,-1025.69 808.04,-1025.69 808.04,-1025.69 804.08,-1025.69 800.12,-1021.73 800.12,-1017.78 800.12,-1017.78 800.12,-1009.86 800.12,-1009.86 800.12,-1005.9 804.08,-1001.94 808.04,-1001.94 808.04,-1001.94 944.71,-1001.94 944.71,-1001.94 948.67,-1001.94 952.62,-1005.9 952.62,-1009.86 952.62,-1009.86 952.62,-1017.78 952.62,-1017.78 952.62,-1021.73 948.67,-1025.69 944.71,-1025.69"/>
<text text-anchor="middle" x="876.38" y="-1008.39" font-family="Arial" font-size="14.00" fill="#c6c5fe">features/page/feature.ts</text>
</g>
<!-- features/page/index.ts&#45;&gt;features/page/feature.ts -->
<g id="edge56" class="edge">
<title>features/page/index.ts&#45;&gt;features/page/feature.ts</title>
<path fill="none" stroke="#757575" d="M734.99,-988.15C754.7,-991.76 776.4,-995.73 796.73,-999.44"/>
<polygon fill="#757575" stroke="#757575" points="795.91,-1002.85 806.38,-1001.2 797.17,-995.96 795.91,-1002.85"/>
</g>
<!-- features/page/feature.ts&#45;&gt;builder/types.ts -->
<g id="edge57" class="edge">
<title>features/page/feature.ts&#45;&gt;builder/types.ts</title>
<path fill="none" stroke="#757575" d="M939.58,-1001.54C948.41,-998.05 956.96,-993.57 964.25,-987.82 989.27,-968.09 975.06,-945.32 1000.25,-925.82 1008.9,-919.12 1019.18,-914.15 1029.69,-910.46"/>
<polygon fill="#757575" stroke="#757575" points="1030.72,-913.81 1039.24,-907.51 1028.65,-907.12 1030.72,-913.81"/>
</g>
<!-- features/page/feature.ts&#45;&gt;types.ts -->
<g id="edge58" class="edge">
<title>features/page/feature.ts&#45;&gt;types.ts</title>
<path fill="none" stroke="#757575" d="M918.51,-1026.08C1047.85,-1064.62 1438.51,-1180.84 1452.25,-1182.82 1514.39,-1191.76 1530.77,-1185.29 1593.5,-1182.82 1672.46,-1179.7 1708.54,-1217.55 1770.75,-1168.82 1861.45,-1097.76 1872.49,-943.69 1873.26,-884.57"/>
<polygon fill="#757575" stroke="#757575" points="1876.76,-884.69 1873.29,-874.68 1869.76,-884.67 1876.76,-884.69"/>
</g>
<!-- features/scale/index.ts -->
<g id="node31" class="node">
<title>features/scale/index.ts</title>
<path fill="none" stroke="#c6c5fe" d="M301.58,-829.69C301.58,-829.69 167.17,-829.69 167.17,-829.69 163.21,-829.69 159.25,-825.73 159.25,-821.78 159.25,-821.78 159.25,-813.86 159.25,-813.86 159.25,-809.9 163.21,-805.94 167.17,-805.94 167.17,-805.94 301.58,-805.94 301.58,-805.94 305.54,-805.94 309.5,-809.9 309.5,-813.86 309.5,-813.86 309.5,-821.78 309.5,-821.78 309.5,-825.73 305.54,-829.69 301.58,-829.69"/>
<text text-anchor="middle" x="234.38" y="-812.39" font-family="Arial" font-size="14.00" fill="#c6c5fe">features/scale/index.ts</text>
</g>
<!-- features/scale/index.ts&#45;&gt;rendering/scale.ts -->
<g id="edge60" class="edge">
<title>features/scale/index.ts&#45;&gt;rendering/scale.ts</title>
<path fill="none" stroke="#757575" d="M241.98,-830.04C266.33,-874.99 350.22,-1028.88 360.5,-1034.82 592.85,-1169.05 697.96,-1067.88 964.25,-1034.82 1169.85,-1009.29 1234.94,-1021.06 1416.25,-920.82 1453.13,-900.43 1486.62,-863.97 1505.6,-840.89"/>
<polygon fill="#757575" stroke="#757575" points="1508.1,-843.35 1511.63,-833.36 1502.64,-838.97 1508.1,-843.35"/>
</g>
<!-- features/scale/feature.ts -->
<g id="node32" class="node">
<title>features/scale/feature.ts</title>
<path fill="none" stroke="#c6c5fe" d="M521.58,-829.69C521.58,-829.69 383.42,-829.69 383.42,-829.69 379.46,-829.69 375.5,-825.73 375.5,-821.78 375.5,-821.78 375.5,-813.86 375.5,-813.86 375.5,-809.9 379.46,-805.94 383.42,-805.94 383.42,-805.94 521.58,-805.94 521.58,-805.94 525.54,-805.94 529.5,-809.9 529.5,-813.86 529.5,-813.86 529.5,-821.78 529.5,-821.78 529.5,-825.73 525.54,-829.69 521.58,-829.69"/>
<text text-anchor="middle" x="452.5" y="-812.39" font-family="Arial" font-size="14.00" fill="#c6c5fe">features/scale/feature.ts</text>
</g>
<!-- features/scale/index.ts&#45;&gt;features/scale/feature.ts -->
<g id="edge59" class="edge">
<title>features/scale/index.ts&#45;&gt;features/scale/feature.ts</title>
<path fill="none" stroke="#757575" d="M309.75,-817.82C327.16,-817.82 345.87,-817.82 363.8,-817.82"/>
<polygon fill="#757575" stroke="#757575" points="363.63,-821.32 373.63,-817.82 363.63,-814.32 363.63,-821.32"/>
</g>
<!-- features/scale/feature.ts&#45;&gt;builder/types.ts -->
<g id="edge61" class="edge">
<title>features/scale/feature.ts&#45;&gt;builder/types.ts</title>
<path fill="none" stroke="#757575" d="M517.81,-830.15C585.08,-842.68 693.87,-861.89 788.5,-873.82 871.42,-884.27 967.57,-891.7 1029.31,-895.87"/>
<polygon fill="#757575" stroke="#757575" points="1028.71,-899.34 1038.92,-896.51 1029.18,-892.35 1028.71,-899.34"/>
</g>
<!-- features/scale/feature.ts&#45;&gt;types.ts -->
<g id="edge64" class="edge">
<title>features/scale/feature.ts&#45;&gt;types.ts</title>
<path fill="none" stroke="#757575" d="M459.27,-829.94C486.46,-885.35 608.05,-1114.92 788.5,-1186.82 889.89,-1227.21 1683.58,-1261.5 1770.75,-1195.82 1822.18,-1157.07 1858.49,-953.16 1869.51,-883.88"/>
<polygon fill="#757575" stroke="#757575" points="1872.9,-884.83 1870.98,-874.42 1865.98,-883.76 1872.9,-884.83"/>
</g>
<!-- features/scale/feature.ts&#45;&gt;rendering/scale.ts -->
<g id="edge63" class="edge">
<title>features/scale/feature.ts&#45;&gt;rendering/scale.ts</title>
<path fill="none" stroke="#757575" d="M529.91,-817.96C728.12,-818.33 1256.77,-819.32 1449.92,-819.68"/>
<polygon fill="#757575" stroke="#757575" points="1449.82,-823.18 1459.82,-819.7 1449.83,-816.18 1449.82,-823.18"/>
</g>
<!-- features/scrollbar/index.ts -->
<g id="node33" class="node">
<title>features/scrollbar/index.ts</title>
<path fill="none" stroke="#c6c5fe" d="M743.46,-789.69C743.46,-789.69 589.54,-789.69 589.54,-789.69 585.58,-789.69 581.62,-785.73 581.62,-781.78 581.62,-781.78 581.62,-773.86 581.62,-773.86 581.62,-769.9 585.58,-765.94 589.54,-765.94 589.54,-765.94 743.46,-765.94 743.46,-765.94 747.42,-765.94 751.38,-769.9 751.38,-773.86 751.38,-773.86 751.38,-781.78 751.38,-781.78 751.38,-785.73 747.42,-789.69 743.46,-789.69"/>
<text text-anchor="middle" x="666.5" y="-772.39" font-family="Arial" font-size="14.00" fill="#c6c5fe">features/scrollbar/index.ts</text>
</g>
<!-- features/scale/feature.ts&#45;&gt;features/scrollbar/index.ts -->
<g id="edge62" class="edge">
<title>features/scale/feature.ts&#45;&gt;features/scrollbar/index.ts</title>
<path fill="none" stroke="#757575" d="M518.84,-805.49C541,-801.31 565.96,-796.6 588.92,-792.27"/>
<polygon fill="#757575" stroke="#757575" points="589.35,-795.75 598.53,-790.45 588.05,-788.87 589.35,-795.75"/>
</g>
<!-- features/scrollbar/index.ts&#45;&gt;features/scrollbar/controller.ts -->
<g id="edge66" class="edge">
<title>features/scrollbar/index.ts&#45;&gt;features/scrollbar/controller.ts</title>
<path fill="none" stroke="#757575" d="M733.57,-790.19C855.08,-812.94 1113.38,-861.3 1242.42,-885.46"/>
<polygon fill="#757575" stroke="#757575" points="1241.41,-888.83 1251.88,-887.23 1242.7,-881.95 1241.41,-888.83"/>
</g>
<!-- features/scrollbar/feature.ts -->
<g id="node34" class="node">
<title>features/scrollbar/feature.ts</title>
<path fill="none" stroke="#c6c5fe" d="M955.21,-717.69C955.21,-717.69 797.54,-717.69 797.54,-717.69 793.58,-717.69 789.62,-713.73 789.62,-709.78 789.62,-709.78 789.62,-701.86 789.62,-701.86 789.62,-697.9 793.58,-693.94 797.54,-693.94 797.54,-693.94 955.21,-693.94 955.21,-693.94 959.17,-693.94 963.12,-697.9 963.12,-701.86 963.12,-701.86 963.12,-709.78 963.12,-709.78 963.12,-713.73 959.17,-717.69 955.21,-717.69"/>
<text text-anchor="middle" x="876.38" y="-700.39" font-family="Arial" font-size="14.00" fill="#c6c5fe">features/scrollbar/feature.ts</text>
</g>
<!-- features/scrollbar/index.ts&#45;&gt;features/scrollbar/feature.ts -->
<g id="edge67" class="edge">
<title>features/scrollbar/index.ts&#45;&gt;features/scrollbar/feature.ts</title>
<path fill="none" stroke="#757575" d="M714.01,-765.52C726.69,-761.65 740.29,-757.01 752.5,-751.82 769.34,-744.66 771.63,-738.93 788.5,-731.82 797.36,-728.08 806.94,-724.65 816.39,-721.58"/>
<polygon fill="#757575" stroke="#757575" points="817.43,-724.93 825.93,-718.61 815.34,-718.25 817.43,-724.93"/>
</g>
<!-- features/scrollbar/scrollbar.ts -->
<g id="node35" class="node">
<title>features/scrollbar/scrollbar.ts</title>
<path fill="none" stroke="#cfffac" d="M1180.08,-789.69C1180.08,-789.69 1008.17,-789.69 1008.17,-789.69 1004.21,-789.69 1000.25,-785.73 1000.25,-781.78 1000.25,-781.78 1000.25,-773.86 1000.25,-773.86 1000.25,-769.9 1004.21,-765.94 1008.17,-765.94 1008.17,-765.94 1180.08,-765.94 1180.08,-765.94 1184.04,-765.94 1188,-769.9 1188,-773.86 1188,-773.86 1188,-781.78 1188,-781.78 1188,-785.73 1184.04,-789.69 1180.08,-789.69"/>
<text text-anchor="middle" x="1094.12" y="-772.39" font-family="Arial" font-size="14.00" fill="#cfffac">features/scrollbar/scrollbar.ts</text>
</g>
<!-- features/scrollbar/index.ts&#45;&gt;features/scrollbar/scrollbar.ts -->
<g id="edge68" class="edge">
<title>features/scrollbar/index.ts&#45;&gt;features/scrollbar/scrollbar.ts</title>
<path fill="none" stroke="#757575" d="M751.76,-771.53C764.08,-770.82 776.61,-770.21 788.5,-769.82 866.57,-767.24 886.18,-767.4 964.25,-769.82 972.18,-770.06 980.39,-770.39 988.64,-770.78"/>
<polygon fill="#757575" stroke="#757575" points="988.22,-774.27 998.38,-771.27 988.56,-767.27 988.22,-774.27"/>
</g>
<!-- features/scrollbar/feature.ts&#45;&gt;builder/types.ts -->
<g id="edge69" class="edge">
<title>features/scrollbar/feature.ts&#45;&gt;builder/types.ts</title>
<path fill="none" stroke="#757575" d="M890.87,-717.95C927.12,-750.55 1026.85,-840.23 1071.28,-880.17"/>
<polygon fill="#757575" stroke="#757575" points="1068.73,-882.59 1078.51,-886.67 1073.41,-877.39 1068.73,-882.59"/>
</g>
<!-- features/scrollbar/feature.ts&#45;&gt;types.ts -->
<g id="edge71" class="edge">
<title>features/scrollbar/feature.ts&#45;&gt;types.ts</title>
<path fill="none" stroke="#757575" d="M963.58,-715.77C1052.52,-725.16 1195.33,-737.82 1319.12,-737.82 1319.12,-737.82 1319.12,-737.82 1523.88,-737.82 1635.82,-737.82 1668.07,-743.2 1770.75,-787.82 1801.32,-801.1 1831.82,-824.53 1851.45,-841.27"/>
<polygon fill="#757575" stroke="#757575" points="1848.94,-843.72 1858.77,-847.65 1853.54,-838.44 1848.94,-843.72"/>
</g>
<!-- features/scrollbar/feature.ts&#45;&gt;features/scrollbar/scrollbar.ts -->
<g id="edge70" class="edge">
<title>features/scrollbar/feature.ts&#45;&gt;features/scrollbar/scrollbar.ts</title>
<path fill="none" stroke="#757575" d="M925.37,-718.16C938.2,-722.01 951.92,-726.62 964.25,-731.82 981.12,-738.93 983.32,-744.86 1000.25,-751.82 1009.69,-755.7 1019.9,-759.2 1029.98,-762.3"/>
<polygon fill="#757575" stroke="#757575" points="1028.78,-765.59 1039.37,-765.06 1030.76,-758.88 1028.78,-765.59"/>
</g>
<!-- features/sections/index.ts -->
<g id="node36" class="node">
<title>features/sections/index.ts</title>
<path fill="none" stroke="#c6c5fe" d="M742.71,-312.69C742.71,-312.69 590.29,-312.69 590.29,-312.69 586.33,-312.69 582.38,-308.73 582.38,-304.78 582.38,-304.78 582.38,-296.86 582.38,-296.86 582.38,-292.9 586.33,-288.94 590.29,-288.94 590.29,-288.94 742.71,-288.94 742.71,-288.94 746.67,-288.94 750.62,-292.9 750.62,-296.86 750.62,-296.86 750.62,-304.78 750.62,-304.78 750.62,-308.73 746.67,-312.69 742.71,-312.69"/>
<text text-anchor="middle" x="666.5" y="-295.39" font-family="Arial" font-size="14.00" fill="#c6c5fe">features/sections/index.ts</text>
</g>
<!-- features/sections/index.ts&#45;&gt;features/sections/types.ts -->
<g id="edge75" class="edge">
<title>features/sections/index.ts&#45;&gt;features/sections/types.ts</title>
<path fill="none" stroke="#757575" d="M739.01,-288.48C743.84,-286.08 748.41,-283.22 752.5,-279.82 782.19,-255.18 757.6,-223.92 788.5,-200.82 864.63,-143.9 905.43,-177.5 1000.25,-170.82 1083.49,-164.95 1109.14,-143.55 1188,-170.82 1235.03,-187.08 1278.02,-227.94 1301.19,-253.03"/>
<polygon fill="#757575" stroke="#757575" points="1298.5,-255.27 1307.79,-260.37 1303.7,-250.59 1298.5,-255.27"/>
</g>
<!-- features/sections/layout.ts -->
<g id="node37" class="node">
<title>features/sections/layout.ts</title>
<path fill="none" stroke="#c6c5fe" d="M1172.21,-245.69C1172.21,-245.69 1016.04,-245.69 1016.04,-245.69 1012.08,-245.69 1008.12,-241.73 1008.12,-237.78 1008.12,-237.78 1008.12,-229.86 1008.12,-229.86 1008.12,-225.9 1012.08,-221.94 1016.04,-221.94 1016.04,-221.94 1172.21,-221.94 1172.21,-221.94 1176.17,-221.94 1180.12,-225.9 1180.12,-229.86 1180.12,-229.86 1180.12,-237.78 1180.12,-237.78 1180.12,-241.73 1176.17,-245.69 1172.21,-245.69"/>
<text text-anchor="middle" x="1094.12" y="-228.39" font-family="Arial" font-size="14.00" fill="#c6c5fe">features/sections/layout.ts</text>
</g>
<!-- features/sections/index.ts&#45;&gt;features/sections/layout.ts -->
<g id="edge72" class="edge">
<title>features/sections/index.ts&#45;&gt;features/sections/layout.ts</title>
<path fill="none" stroke="#757575" d="M746.06,-288.45C818.98,-276.97 927.44,-259.9 1003.66,-247.9"/>
<polygon fill="#757575" stroke="#757575" points="1003.83,-251.42 1013.17,-246.4 1002.74,-244.5 1003.83,-251.42"/>
</g>
<!-- features/sections/feature.ts -->
<g id="node38" class="node">
<title>features/sections/feature.ts</title>
<path fill="none" stroke="#c6c5fe" d="M954.46,-421.69C954.46,-421.69 798.29,-421.69 798.29,-421.69 794.33,-421.69 790.38,-417.73 790.38,-413.78 790.38,-413.78 790.38,-405.86 790.38,-405.86 790.38,-401.9 794.33,-397.94 798.29,-397.94 798.29,-397.94 954.46,-397.94 954.46,-397.94 958.42,-397.94 962.38,-401.9 962.38,-405.86 962.38,-405.86 962.38,-413.78 962.38,-413.78 962.38,-417.73 958.42,-421.69 954.46,-421.69"/>
<text text-anchor="middle" x="876.38" y="-404.39" font-family="Arial" font-size="14.00" fill="#c6c5fe">features/sections/feature.ts</text>
</g>
<!-- features/sections/index.ts&#45;&gt;features/sections/feature.ts -->
<g id="edge73" class="edge">
<title>features/sections/index.ts&#45;&gt;features/sections/feature.ts</title>
<path fill="none" stroke="#757575" d="M688.24,-313.07C712.14,-327.05 752.74,-350.36 788.5,-368.82 804.52,-377.08 822.49,-385.68 837.92,-392.85"/>
<polygon fill="#757575" stroke="#757575" points="836.21,-395.92 846.76,-396.93 839.15,-389.56 836.21,-395.92"/>
</g>
<!-- features/sections/sticky.ts -->
<g id="node39" class="node">
<title>features/sections/sticky.ts</title>
<path fill="none" stroke="#c6c5fe" d="M1170.71,-203.69C1170.71,-203.69 1017.54,-203.69 1017.54,-203.69 1013.58,-203.69 1009.62,-199.73 1009.62,-195.78 1009.62,-195.78 1009.62,-187.86 1009.62,-187.86 1009.62,-183.9 1013.58,-179.94 1017.54,-179.94 1017.54,-179.94 1170.71,-179.94 1170.71,-179.94 1174.67,-179.94 1178.62,-183.9 1178.62,-187.86 1178.62,-187.86 1178.62,-195.78 1178.62,-195.78 1178.62,-199.73 1174.67,-203.69 1170.71,-203.69"/>
<text text-anchor="middle" x="1094.12" y="-186.39" font-family="Arial" font-size="14.00" fill="#c6c5fe">features/sections/sticky.ts</text>
</g>
<!-- features/sections/index.ts&#45;&gt;features/sections/sticky.ts -->
<g id="edge74" class="edge">
<title>features/sections/index.ts&#45;&gt;features/sections/sticky.ts</title>
<path fill="none" stroke="#757575" d="M730.31,-288.49C737.96,-286.07 745.52,-283.2 752.5,-279.82 770.74,-270.97 770.06,-260.23 788.5,-251.82 854.87,-221.56 936.2,-206.52 998.12,-199.07"/>
<polygon fill="#757575" stroke="#757575" points="998.41,-202.56 1007.94,-197.94 997.61,-195.61 998.41,-202.56"/>
</g>
<!-- features/sections/layout.ts&#45;&gt;types.ts -->
<g id="edge77" class="edge">
<title>features/sections/layout.ts&#45;&gt;types.ts</title>
<path fill="none" stroke="#757575" d="M1180.36,-235.93C1352.7,-241.06 1729.75,-256.86 1770.75,-297.82 1848.61,-375.59 1868.29,-740.43 1872.17,-837.2"/>
<polygon fill="#757575" stroke="#757575" points="1868.67,-837.2 1872.55,-847.06 1875.67,-836.93 1868.67,-837.2"/>
</g>
<!-- features/sections/layout.ts&#45;&gt;features/sections/types.ts -->
<g id="edge76" class="edge">
<title>features/sections/layout.ts&#45;&gt;features/sections/types.ts</title>
<path fill="none" stroke="#757575" d="M1164.16,-246.15C1187.79,-250.37 1214.43,-255.12 1238.88,-259.49"/>
<polygon fill="#757575" stroke="#757575" points="1237.98,-262.88 1248.44,-261.2 1239.21,-255.99 1237.98,-262.88"/>
</g>
<!-- features/sections/feature.ts&#45;&gt;builder/types.ts -->
<g id="edge78" class="edge">
<title>features/sections/feature.ts&#45;&gt;builder/types.ts</title>
<path fill="none" stroke="#757575" d="M882.46,-421.76C896.81,-455.79 938.29,-556.4 964.25,-642.82 984.72,-710.96 967.07,-735.87 1000.25,-798.82 1017.46,-831.45 1047.84,-861.57 1069.15,-880.27"/>
<polygon fill="#757575" stroke="#757575" points="1066.64,-882.73 1076.52,-886.57 1071.2,-877.41 1066.64,-882.73"/>
</g>
<!-- features/sections/feature.ts&#45;&gt;types.ts -->
<g id="edge83" class="edge">
<title>features/sections/feature.ts&#45;&gt;types.ts</title>
<path fill="none" stroke="#757575" d="M962.75,-419.12C1025.15,-425.94 1111.83,-435.42 1188,-443.82 1204,-445.58 1207.98,-446.22 1224,-447.82 1284.68,-453.85 1723.82,-456.88 1770.75,-495.82 1824.73,-540.61 1859.71,-763.88 1869.9,-837.34"/>
<polygon fill="#757575" stroke="#757575" points="1866.4,-837.59 1871.22,-847.03 1873.34,-836.65 1866.4,-837.59"/>
</g>
<!-- features/sections/feature.ts&#45;&gt;rendering/index.ts -->
<g id="edge82" class="edge">
<title>features/sections/feature.ts&#45;&gt;rendering/index.ts</title>
<path fill="none" stroke="#757575" d="M921.11,-422.14C944.55,-428.69 973.94,-436.82 1000.25,-443.82 1083.48,-465.97 1129.88,-428.25 1188,-491.82 1255.45,-565.59 1170.09,-629.65 1224,-713.82 1237.16,-734.37 1259.54,-749.92 1279.29,-760.54"/>
<polygon fill="#757575" stroke="#757575" points="1277.46,-763.54 1287.96,-764.96 1280.64,-757.3 1277.46,-763.54"/>
</g>
<!-- features/sections/feature.ts&#45;&gt;features/sections/types.ts -->
<g id="edge81" class="edge">
<title>features/sections/feature.ts&#45;&gt;features/sections/types.ts</title>
<path fill="none" stroke="#757575" d="M917.69,-397.49C933.73,-391 951.39,-381.66 964.25,-368.82 990.7,-342.41 969.28,-313.73 1000.25,-292.82 1035.64,-268.92 1143.85,-266.9 1224.46,-269.08"/>
<polygon fill="#757575" stroke="#757575" points="1224.03,-272.57 1234.13,-269.37 1224.24,-265.57 1224.03,-272.57"/>
</g>
<!-- features/sections/feature.ts&#45;&gt;features/sections/layout.ts -->
<g id="edge79" class="edge">
<title>features/sections/feature.ts&#45;&gt;features/sections/layout.ts</title>
<path fill="none" stroke="#757575" d="M920.28,-397.54C935.94,-391.19 952.65,-381.93 964.25,-368.82 998.06,-330.61 963.35,-295.05 1000.25,-259.82 1003.56,-256.66 1007.22,-253.87 1011.13,-251.42"/>
<polygon fill="#757575" stroke="#757575" points="1012.76,-254.52 1019.92,-246.71 1009.45,-248.35 1012.76,-254.52"/>
</g>
<!-- features/sections/feature.ts&#45;&gt;features/sections/sticky.ts -->
<g id="edge80" class="edge">
<title>features/sections/feature.ts&#45;&gt;features/sections/sticky.ts</title>
<path fill="none" stroke="#757575" d="M922.28,-397.54C937.62,-391.26 953.58,-382.06 964.25,-368.82 1008.9,-313.41 949.82,-263.02 1000.25,-212.82 1000.99,-212.08 1001.76,-211.36 1002.54,-210.67"/>
<polygon fill="#757575" stroke="#757575" points="1004.32,-213.7 1010.35,-204.98 1000.2,-208.04 1004.32,-213.7"/>
</g>
<!-- features/sections/sticky.ts&#45;&gt;rendering/heights.ts -->
<g id="edge85" class="edge">
<title>features/sections/sticky.ts&#45;&gt;rendering/heights.ts</title>
<path fill="none" stroke="#757575" d="M1178.81,-192.51C1278.47,-194.68 1449.56,-202.66 1593.5,-230.82 1680.47,-247.83 1778.34,-282.84 1832.12,-303.51"/>
<polygon fill="#757575" stroke="#757575" points="1830.59,-306.67 1841.18,-307.03 1833.12,-300.15 1830.59,-306.67"/>
</g>
<!-- features/sections/sticky.ts&#45;&gt;features/sections/types.ts -->
<g id="edge84" class="edge">
<title>features/sections/sticky.ts&#45;&gt;features/sections/types.ts</title>
<path fill="none" stroke="#757575" d="M1158.08,-204.14C1168.19,-206.66 1178.46,-209.56 1188,-212.82 1222.67,-224.65 1260.41,-242.81 1286.46,-256.24"/>
<polygon fill="#757575" stroke="#757575" points="1284.7,-259.27 1295.18,-260.79 1287.94,-253.06 1284.7,-259.27"/>
</g>
<!-- features/selection/index.ts -->
<g id="node40" class="node">
<title>features/selection/index.ts</title>
<path fill="none" stroke="#c6c5fe" d="M744.58,-595.69C744.58,-595.69 588.42,-595.69 588.42,-595.69 584.46,-595.69 580.5,-591.73 580.5,-587.78 580.5,-587.78 580.5,-579.86 580.5,-579.86 580.5,-575.9 584.46,-571.94 588.42,-571.94 588.42,-571.94 744.58,-571.94 744.58,-571.94 748.54,-571.94 752.5,-575.9 752.5,-579.86 752.5,-579.86 752.5,-587.78 752.5,-587.78 752.5,-591.73 748.54,-595.69 744.58,-595.69"/>
<text text-anchor="middle" x="666.5" y="-578.39" font-family="Arial" font-size="14.00" fill="#c6c5fe">features/selection/index.ts</text>
</g>
<!-- features/selection/feature.ts -->
<g id="node41" class="node">
<title>features/selection/feature.ts</title>
<path fill="none" stroke="#c6c5fe" d="M956.33,-675.69C956.33,-675.69 796.42,-675.69 796.42,-675.69 792.46,-675.69 788.5,-671.73 788.5,-667.78 788.5,-667.78 788.5,-659.86 788.5,-659.86 788.5,-655.9 792.46,-651.94 796.42,-651.94 796.42,-651.94 956.33,-651.94 956.33,-651.94 960.29,-651.94 964.25,-655.9 964.25,-659.86 964.25,-659.86 964.25,-667.78 964.25,-667.78 964.25,-671.73 960.29,-675.69 956.33,-675.69"/>
<text text-anchor="middle" x="876.38" y="-658.39" font-family="Arial" font-size="14.00" fill="#c6c5fe">features/selection/feature.ts</text>
</g>
<!-- features/selection/index.ts&#45;&gt;features/selection/feature.ts -->
<g id="edge87" class="edge">
<title>features/selection/index.ts&#45;&gt;features/selection/feature.ts</title>
<path fill="none" stroke="#757575" d="M711.07,-596.07C724.47,-600.13 739.19,-604.88 752.5,-609.82 782.38,-620.91 815.4,-635.56 839.68,-646.8"/>
<polygon fill="#757575" stroke="#757575" points="837.93,-649.85 848.48,-650.91 840.89,-643.51 837.93,-649.85"/>
</g>
<!-- features/selection/state.ts -->
<g id="node42" class="node">
<title>features/selection/state.ts</title>
<path fill="none" stroke="#c6c5fe" d="M1170.71,-595.69C1170.71,-595.69 1017.54,-595.69 1017.54,-595.69 1013.58,-595.69 1009.62,-591.73 1009.62,-587.78 1009.62,-587.78 1009.62,-579.86 1009.62,-579.86 1009.62,-575.9 1013.58,-571.94 1017.54,-571.94 1017.54,-571.94 1170.71,-571.94 1170.71,-571.94 1174.67,-571.94 1178.62,-575.9 1178.62,-579.86 1178.62,-579.86 1178.62,-587.78 1178.62,-587.78 1178.62,-591.73 1174.67,-595.69 1170.71,-595.69"/>
<text text-anchor="middle" x="1094.12" y="-578.39" font-family="Arial" font-size="14.00" fill="#c6c5fe">features/selection/state.ts</text>
</g>
<!-- features/selection/index.ts&#45;&gt;features/selection/state.ts -->
<g id="edge88" class="edge">
<title>features/selection/index.ts&#45;&gt;features/selection/state.ts</title>
<path fill="none" stroke="#757575" d="M752.86,-583.82C823.84,-583.82 924.77,-583.82 998.26,-583.82"/>
<polygon fill="#757575" stroke="#757575" points="997.84,-587.32 1007.84,-583.82 997.84,-580.32 997.84,-587.32"/>
</g>
<!-- features/selection/feature.ts&#45;&gt;builder/types.ts -->
<g id="edge89" class="edge">
<title>features/selection/feature.ts&#45;&gt;builder/types.ts</title>
<path fill="none" stroke="#757575" d="M952.18,-676.13C956.54,-678.56 960.62,-681.43 964.25,-684.82 1003.09,-721.08 973.63,-752.83 1000.25,-798.82 1018.75,-830.78 1048.91,-861.08 1069.82,-880"/>
<polygon fill="#757575" stroke="#757575" points="1067.49,-882.61 1077.3,-886.62 1072.13,-877.37 1067.49,-882.61"/>
</g>
<!-- features/selection/feature.ts&#45;&gt;types.ts -->
<g id="edge92" class="edge">
<title>features/selection/feature.ts&#45;&gt;types.ts</title>
<path fill="none" stroke="#757575" d="M964.55,-663.19C1053.65,-662.6 1196.03,-661.82 1319.12,-661.82 1319.12,-661.82 1319.12,-661.82 1523.88,-661.82 1638.81,-661.82 1675.1,-675.08 1770.75,-738.82 1810.54,-765.33 1843.26,-811.74 1860.28,-839.04"/>
<polygon fill="#757575" stroke="#757575" points="1857.24,-840.78 1865.43,-847.51 1863.23,-837.15 1857.24,-840.78"/>
</g>
<!-- features/selection/feature.ts&#45;&gt;rendering/index.ts -->
<g id="edge91" class="edge">
<title>features/selection/feature.ts&#45;&gt;rendering/index.ts</title>
<path fill="none" stroke="#757575" d="M928.87,-676.09C940.51,-678.92 952.81,-681.94 964.25,-684.82 1069.78,-711.4 1192.52,-743.92 1262.49,-762.62"/>
<polygon fill="#757575" stroke="#757575" points="1261.23,-765.91 1271.8,-765.11 1263.04,-759.14 1261.23,-765.91"/>
</g>
<!-- features/selection/feature.ts&#45;&gt;features/selection/state.ts -->
<g id="edge90" class="edge">
<title>features/selection/feature.ts&#45;&gt;features/selection/state.ts</title>
<path fill="none" stroke="#757575" d="M910.61,-651.49C947.75,-637.72 1008.04,-615.37 1049.08,-600.15"/>
<polygon fill="#757575" stroke="#757575" points="1050.27,-603.44 1058.43,-596.68 1047.84,-596.88 1050.27,-603.44"/>
</g>
<!-- features/selection/state.ts&#45;&gt;types.ts -->
<g id="edge93" class="edge">
<title>features/selection/state.ts&#45;&gt;types.ts</title>
<path fill="none" stroke="#757575" d="M1135.98,-571.55C1248.98,-540.28 1570.56,-469.54 1770.75,-609.82 1847.64,-663.7 1866.79,-786.09 1871.49,-837.44"/>
<polygon fill="#757575" stroke="#757575" points="1867.98,-837.42 1872.27,-847.11 1874.96,-836.86 1867.98,-837.42"/>
</g>
<!-- features/snapshots/index.ts -->
<g id="node43" class="node">
<title>features/snapshots/index.ts</title>
<path fill="none" stroke="#c6c5fe" d="M316.58,-670.69C316.58,-670.69 152.17,-670.69 152.17,-670.69 148.21,-670.69 144.25,-666.73 144.25,-662.78 144.25,-662.78 144.25,-654.86 144.25,-654.86 144.25,-650.9 148.21,-646.94 152.17,-646.94 152.17,-646.94 316.58,-646.94 316.58,-646.94 320.54,-646.94 324.5,-650.9 324.5,-654.86 324.5,-654.86 324.5,-662.78 324.5,-662.78 324.5,-666.73 320.54,-670.69 316.58,-670.69"/>
<text text-anchor="middle" x="234.38" y="-653.39" font-family="Arial" font-size="14.00" fill="#c6c5fe">features/snapshots/index.ts</text>
</g>
<!-- features/snapshots/feature.ts -->
<g id="node44" class="node">
<title>features/snapshots/feature.ts</title>
<path fill="none" stroke="#c6c5fe" d="M536.58,-633.69C536.58,-633.69 368.42,-633.69 368.42,-633.69 364.46,-633.69 360.5,-629.73 360.5,-625.78 360.5,-625.78 360.5,-617.86 360.5,-617.86 360.5,-613.9 364.46,-609.94 368.42,-609.94 368.42,-609.94 536.58,-609.94 536.58,-609.94 540.54,-609.94 544.5,-613.9 544.5,-617.86 544.5,-617.86 544.5,-625.78 544.5,-625.78 544.5,-629.73 540.54,-633.69 536.58,-633.69"/>
<text text-anchor="middle" x="452.5" y="-616.39" font-family="Arial" font-size="14.00" fill="#c6c5fe">features/snapshots/feature.ts</text>
</g>
<!-- features/snapshots/index.ts&#45;&gt;features/snapshots/feature.ts -->
<g id="edge94" class="edge">
<title>features/snapshots/index.ts&#45;&gt;features/snapshots/feature.ts</title>
<path fill="none" stroke="#757575" d="M307.64,-646.45C327.02,-643.13 348.12,-639.52 368.05,-636.1"/>
<polygon fill="#757575" stroke="#757575" points="368.54,-639.57 377.81,-634.43 367.36,-632.67 368.54,-639.57"/>
</g>
<!-- features/snapshots/feature.ts&#45;&gt;builder/types.ts -->
<g id="edge95" class="edge">
<title>features/snapshots/feature.ts&#45;&gt;builder/types.ts</title>
<path fill="none" stroke="#757575" d="M481.81,-634.12C584.38,-678.7 936.71,-831.83 1054.45,-883.01"/>
<polygon fill="#757575" stroke="#757575" points="1052.83,-886.12 1063.39,-886.89 1055.62,-879.7 1052.83,-886.12"/>
</g>
<!-- features/snapshots/feature.ts&#45;&gt;types.ts -->
<g id="edge96" class="edge">
<title>features/snapshots/feature.ts&#45;&gt;types.ts</title>
<path fill="none" stroke="#757575" d="M477.14,-609.54C507.81,-593.84 559.82,-568.05 580.5,-562.82 708.73,-530.39 1668.37,-460.08 1770.75,-543.82 1862.69,-619.01 1872.92,-777.6 1873.37,-837.36"/>
<polygon fill="#757575" stroke="#757575" points="1869.87,-837.03 1873.35,-847.04 1876.87,-837.05 1869.87,-837.03"/>
</g>
<!-- index.ts -->
<g id="node45" class="node">
<title>index.ts</title>
<path fill="none" stroke="#c6c5fe" d="M77.46,-789.69C77.46,-789.69 30.79,-789.69 30.79,-789.69 26.83,-789.69 22.88,-785.73 22.88,-781.78 22.88,-781.78 22.88,-773.86 22.88,-773.86 22.88,-769.9 26.83,-765.94 30.79,-765.94 30.79,-765.94 77.46,-765.94 77.46,-765.94 81.42,-765.94 85.38,-769.9 85.38,-773.86 85.38,-773.86 85.38,-781.78 85.38,-781.78 85.38,-785.73 81.42,-789.69 77.46,-789.69"/>
<text text-anchor="middle" x="54.12" y="-772.39" font-family="Arial" font-size="14.00" fill="#c6c5fe">index.ts</text>
</g>
<!-- index.ts&#45;&gt;types.ts -->
<g id="edge108" class="edge">
<title>index.ts&#45;&gt;types.ts</title>
<path fill="none" stroke="#757575" d="M85.68,-783.47C94.3,-786.57 102.8,-791.38 108.25,-798.82 176.16,-891.56 100.39,-1208.57 144.25,-1314.82 223.88,-1507.69 242.83,-1669.82 451.5,-1669.82 451.5,-1669.82 451.5,-1669.82 1523.88,-1669.82 1635.1,-1669.82 1693.38,-1708.72 1770.75,-1628.82 1876.72,-1519.38 1875.21,-1002.36 1873.46,-884.69"/>
<polygon fill="#757575" stroke="#757575" points="1876.96,-884.63 1873.29,-874.69 1869.96,-884.75 1876.96,-884.63"/>
</g>
<!-- index.ts&#45;&gt;builder/index.ts -->
<g id="edge97" class="edge">
<title>index.ts&#45;&gt;builder/index.ts</title>
<path fill="none" stroke="#757575" d="M85.86,-787.19C93.53,-790.26 101.49,-794.12 108.25,-798.82 127.89,-812.46 126.28,-823.03 144.25,-838.82 231.95,-915.84 254.94,-938.02 360.5,-987.82 369.15,-991.9 378.57,-995.47 387.97,-998.55"/>
<polygon fill="#757575" stroke="#757575" points="386.91,-1001.88 397.49,-1001.49 388.97,-995.2 386.91,-1001.88"/>
</g>
<!-- index.ts&#45;&gt;events/index.ts -->
<g id="edge98" class="edge">
<title>index.ts&#45;&gt;events/index.ts</title>
<path fill="none" stroke="#757575" d="M56.12,-765.45C59.85,-728.27 76.47,-617.04 144.25,-567.82 363.41,-408.64 481.83,-519.58 752.5,-529.82 946.47,-537.16 1045.64,-430.86 1188,-562.82 1265.81,-634.95 1165.54,-710.27 1224,-798.82 1236.29,-817.43 1256.67,-831.21 1275.42,-840.75"/>
<polygon fill="#757575" stroke="#757575" points="1273.72,-843.81 1284.25,-844.97 1276.73,-837.5 1273.72,-843.81"/>
</g>
<!-- index.ts&#45;&gt;rendering/index.ts -->
<g id="edge107" class="edge">
<title>index.ts&#45;&gt;rendering/index.ts</title>
<path fill="none" stroke="#757575" d="M85.7,-784.09C94.11,-787.21 102.49,-791.87 108.25,-798.82 162.27,-863.97 98.59,-914.55 144.25,-985.82 234.85,-1127.24 283.55,-1205.82 451.5,-1205.82 451.5,-1205.82 451.5,-1205.82 877.38,-1205.82 1044.27,-1205.82 1101.79,-1137.72 1188,-994.82 1225.2,-933.15 1182.16,-895.44 1224,-836.82 1237.05,-818.53 1257.71,-804.73 1276.45,-795.09"/>
<polygon fill="#757575" stroke="#757575" points="1277.77,-798.34 1285.23,-790.82 1274.71,-792.04 1277.77,-798.34"/>
</g>
<!-- index.ts&#45;&gt;features/async/index.ts -->
<g id="edge99" class="edge">
<title>index.ts&#45;&gt;features/async/index.ts</title>
<path fill="none" stroke="#757575" d="M85.61,-783.52C94.23,-786.62 102.74,-791.42 108.25,-798.82 164.31,-874.14 93.36,-1140.9 144.25,-1219.82 251.01,-1385.38 486.26,-1466 600.59,-1496.59"/>
<polygon fill="#757575" stroke="#757575" points="599.57,-1499.94 610.13,-1499.1 601.35,-1493.17 599.57,-1499.94"/>
</g>
<!-- index.ts&#45;&gt;features/grid/index.ts -->
<g id="edge100" class="edge">
<title>index.ts&#45;&gt;features/grid/index.ts</title>
<path fill="none" stroke="#757575" d="M55.61,-765.66C58.51,-699.24 75.85,-381.04 144.25,-317.82 269.73,-201.84 491.24,-224.17 600.64,-244.37"/>
<polygon fill="#757575" stroke="#757575" points="599.86,-247.78 610.34,-246.22 601.17,-240.91 599.86,-247.78"/>
</g>
<!-- index.ts&#45;&gt;features/page/index.ts -->
<g id="edge101" class="edge">
<title>index.ts&#45;&gt;features/page/index.ts</title>
<path fill="none" stroke="#757575" d="M85.82,-784.68C94.03,-787.81 102.27,-792.32 108.25,-798.82 145.67,-839.47 109.32,-875 144.25,-917.82 213.33,-1002.49 254.57,-1008 360.5,-1034.82 439.78,-1054.89 464.82,-1053.21 544.5,-1034.82 578.42,-1026.99 613.83,-1008.29 637.52,-994.03"/>
<polygon fill="#757575" stroke="#757575" points="639.26,-997.07 645.93,-988.83 635.58,-991.11 639.26,-997.07"/>
</g>
<!-- index.ts&#45;&gt;features/scale/index.ts -->
<g id="edge102" class="edge">
<title>index.ts&#45;&gt;features/scale/index.ts</title>
<path fill="none" stroke="#757575" d="M85.77,-784.69C108.18,-789.72 139.41,-796.73 167.39,-803.01"/>
<polygon fill="#757575" stroke="#757575" points="166.32,-806.36 176.85,-805.13 167.86,-799.53 166.32,-806.36"/>
</g>
<!-- index.ts&#45;&gt;features/scrollbar/index.ts -->
<g id="edge103" class="edge">
<title>index.ts&#45;&gt;features/scrollbar/index.ts</title>
<path fill="none" stroke="#757575" d="M85.81,-777.82C173.78,-777.82 429.53,-777.82 570.13,-777.82"/>
<polygon fill="#757575" stroke="#757575" points="569.78,-781.32 579.78,-777.82 569.78,-774.32 569.78,-781.32"/>
</g>
<!-- index.ts&#45;&gt;features/sections/index.ts -->
<g id="edge104" class="edge">
<title>index.ts&#45;&gt;features/sections/index.ts</title>
<path fill="none" stroke="#757575" d="M56.02,-765.7C60.78,-704.78 85.12,-432.81 144.25,-377.82 204.5,-321.79 437.44,-306.48 570.64,-302.33"/>
<polygon fill="#757575" stroke="#757575" points="570.62,-305.83 580.51,-302.04 570.41,-298.84 570.62,-305.83"/>
</g>
<!-- index.ts&#45;&gt;features/selection/index.ts -->
<g id="edge105" class="edge">
<title>index.ts&#45;&gt;features/selection/index.ts</title>
<path fill="none" stroke="#757575" d="M59.02,-765.65C68.58,-737.9 96.02,-669.88 144.25,-637.82 276.52,-549.89 470.78,-556.77 580.98,-570.05"/>
<polygon fill="#757575" stroke="#757575" points="580.5,-573.51 590.86,-571.29 581.37,-566.57 580.5,-573.51"/>
</g>
<!-- index.ts&#45;&gt;features/snapshots/index.ts -->
<g id="edge106" class="edge">
<title>index.ts&#45;&gt;features/snapshots/index.ts</title>
<path fill="none" stroke="#757575" d="M72.8,-765.54C90.72,-753.14 119.3,-733.47 144.25,-716.82 164.27,-703.45 187.02,-688.65 204.53,-677.35"/>
<polygon fill="#757575" stroke="#757575" points="206.39,-680.32 212.89,-671.95 202.59,-674.43 206.39,-680.32"/>
</g>
<!-- vlist.ts -->
<g id="node46" class="node">
<title>vlist.ts</title>
<path fill="none" stroke="#c6c5fe" d="M253.46,-749.69C253.46,-749.69 215.29,-749.69 215.29,-749.69 211.33,-749.69 207.38,-745.73 207.38,-741.78 207.38,-741.78 207.38,-733.86 207.38,-733.86 207.38,-729.9 211.33,-725.94 215.29,-725.94 215.29,-725.94 253.46,-725.94 253.46,-725.94 257.42,-725.94 261.38,-729.9 261.38,-733.86 261.38,-733.86 261.38,-741.78 261.38,-741.78 261.38,-745.73 257.42,-749.69 253.46,-749.69"/>
<text text-anchor="middle" x="234.38" y="-732.39" font-family="Arial" font-size="14.00" fill="#c6c5fe">vlist.ts</text>
</g>
<!-- index.ts&#45;&gt;vlist.ts -->
<g id="edge109" class="edge">
<title>index.ts&#45;&gt;vlist.ts</title>
<path fill="none" stroke="#757575" d="M85.77,-770.94C116.31,-764.09 163.25,-753.55 195.97,-746.21"/>
<polygon fill="#757575" stroke="#757575" points="196.44,-749.69 205.43,-744.09 194.9,-742.86 196.44,-749.69"/>
</g>
<!-- vlist.ts&#45;&gt;types.ts -->
<g id="edge131" class="edge">
<title>vlist.ts&#45;&gt;types.ts</title>
<path fill="none" stroke="#757575" d="M261.78,-727.23C286.8,-717.6 325.64,-703.74 360.5,-695.82 679.54,-623.29 765.95,-623.82 1093.12,-623.82 1093.12,-623.82 1093.12,-623.82 1523.88,-623.82 1635.25,-623.82 1680.7,-601.28 1770.75,-666.82 1829.46,-709.54 1857.44,-796.28 1867.9,-837.74"/>
<polygon fill="#757575" stroke="#757575" points="1864.47,-838.45 1870.19,-847.36 1871.28,-836.82 1864.47,-838.45"/>
</g>
<!-- vlist.ts&#45;&gt;builder/index.ts -->
<g id="edge122" class="edge">
<title>vlist.ts&#45;&gt;builder/index.ts</title>
<path fill="none" stroke="#757575" d="M261.47,-748.24C281.89,-757.79 309.31,-773.94 324.5,-796.82 372.28,-868.78 302.29,-923.99 360.5,-987.82 367.9,-995.93 377.63,-1001.57 387.97,-1005.49"/>
<polygon fill="#757575" stroke="#757575" points="386.87,-1008.81 397.46,-1008.52 389,-1002.15 386.87,-1008.81"/>
</g>
<!-- vlist.ts&#45;&gt;features/async/feature.ts -->
<g id="edge123" class="edge">
<title>vlist.ts&#45;&gt;features/async/feature.ts</title>
<path fill="none" stroke="#757575" d="M261.61,-749.12C281.57,-758.98 308.27,-775.12 324.5,-796.82 357.09,-840.38 324.14,-873.34 360.5,-913.82 419.97,-980.02 469.75,-944.51 544.5,-992.82 562.73,-1004.6 561.79,-1014.82 580.5,-1025.82 651.03,-1067.27 741.47,-1094 803.48,-1108.91"/>
<polygon fill="#757575" stroke="#757575" points="802.33,-1112.23 812.86,-1111.12 803.93,-1105.42 802.33,-1112.23"/>
</g>
<!-- vlist.ts&#45;&gt;features/grid/feature.ts -->
<g id="edge124" class="edge">
<title>vlist.ts&#45;&gt;features/grid/feature.ts</title>
<path fill="none" stroke="#757575" d="M261.67,-727.35C281.93,-717.92 309.02,-702.11 324.5,-679.82 366.32,-619.59 311.33,-573.21 360.5,-518.82 472.87,-394.53 677.68,-360.4 792.21,-351.15"/>
<polygon fill="#757575" stroke="#757575" points="792.47,-354.64 802.17,-350.39 791.94,-347.66 792.47,-354.64"/>
</g>
<!-- vlist.ts&#45;&gt;features/page/feature.ts -->
<g id="edge125" class="edge">
<title>vlist.ts&#45;&gt;features/page/feature.ts</title>
<path fill="none" stroke="#757575" d="M257.46,-750.09C276.26,-761.07 303.5,-778.27 324.5,-796.82 342.93,-813.09 342.05,-822.57 360.5,-838.82 433.96,-903.5 469.04,-897.49 544.5,-959.82 562.19,-974.43 559.63,-987.29 580.5,-996.82 645.71,-1026.59 727.64,-1028.92 788.57,-1024.89"/>
<polygon fill="#757575" stroke="#757575" points="788.47,-1028.41 798.19,-1024.19 787.96,-1021.43 788.47,-1028.41"/>
</g>
<!-- vlist.ts&#45;&gt;features/scale/feature.ts -->
<g id="edge126" class="edge">
<title>vlist.ts&#45;&gt;features/scale/feature.ts</title>
<path fill="none" stroke="#757575" d="M261.44,-747.47C297.67,-760.88 363.72,-785.32 407.61,-801.57"/>
<polygon fill="#757575" stroke="#757575" points="406.25,-804.8 416.84,-804.99 408.68,-798.23 406.25,-804.8"/>
</g>
<!-- vlist.ts&#45;&gt;features/scrollbar/feature.ts -->
<g id="edge127" class="edge">
<title>vlist.ts&#45;&gt;features/scrollbar/feature.ts</title>
<path fill="none" stroke="#757575" d="M261.75,-736.77C337.88,-733.7 564.5,-724.3 752.5,-713.82 760.81,-713.35 769.44,-712.85 778.09,-712.32"/>
<polygon fill="#757575" stroke="#757575" points="778.18,-715.82 787.94,-711.71 777.75,-708.83 778.18,-715.82"/>
</g>
<!-- vlist.ts&#45;&gt;features/sections/feature.ts -->
<g id="edge128" class="edge">
<title>vlist.ts&#45;&gt;features/sections/feature.ts</title>
<path fill="none" stroke="#757575" d="M261.67,-725.8C281.13,-715.8 307.16,-699.96 324.5,-679.82 349.67,-650.57 332.25,-627.1 360.5,-600.82 396.25,-567.56 704.48,-465.22 826.21,-425.66"/>
<polygon fill="#757575" stroke="#757575" points="827.19,-429.02 835.62,-422.61 825.02,-422.37 827.19,-429.02"/>
</g>
<!-- vlist.ts&#45;&gt;features/selection/feature.ts -->
<g id="edge129" class="edge">
<title>vlist.ts&#45;&gt;features/selection/feature.ts</title>
<path fill="none" stroke="#757575" d="M261.71,-734.05C287.02,-730.47 326.34,-725.03 360.5,-720.82 505.25,-702.97 673.23,-684.86 776.91,-673.99"/>
<polygon fill="#757575" stroke="#757575" points="777.21,-677.47 786.79,-672.95 776.48,-670.51 777.21,-677.47"/>
</g>
<!-- vlist.ts&#45;&gt;features/snapshots/feature.ts -->
<g id="edge130" class="edge">
<title>vlist.ts&#45;&gt;features/snapshots/feature.ts</title>
<path fill="none" stroke="#757575" d="M256.14,-725.53C274.6,-714.32 302.04,-696.95 324.5,-679.82 341.52,-666.83 341.74,-658.13 360.5,-647.82 367.53,-643.95 375.19,-640.62 382.98,-637.75"/>
<polygon fill="#757575" stroke="#757575" points="383.86,-641.15 392.2,-634.61 381.61,-634.52 383.86,-641.15"/>
</g>
</g>
</svg>
