<?xml version="1.0" encoding="UTF-8" standalone="no"?>
<!DOCTYPE svg PUBLIC "-//W3C//DTD SVG 1.1//EN"
 "http://www.w3.org/Graphics/SVG/1.1/DTD/svg11.dtd">
<!-- Generated by graphviz version 12.2.1 (20241206.2353)
 -->
<!-- Title: G Pages: 1 -->
<svg width="1112pt" height="630pt"
 viewBox="0.00 0.00 1112.20 630.26" xmlns="http://www.w3.org/2000/svg" xmlns:xlink="http://www.w3.org/1999/xlink">
<g id="graph0" class="graph" transform="scale(1 1) rotate(0) translate(21.6 608.66)">
<title>G</title>
<polygon fill="#111111" stroke="none" points="-21.6,21.6 -21.6,-608.66 1090.6,-608.66 1090.6,21.6 -21.6,21.6"/>
<!-- ../constants.ts -->
<g id="node1" class="node">
<title>../constants.ts</title>
<path fill="none" stroke="#cfffac" d="M852.71,-92.93C852.71,-92.93 769.29,-92.93 769.29,-92.93 765.33,-92.93 761.38,-88.97 761.38,-85.02 761.38,-85.02 761.38,-77.1 761.38,-77.1 761.38,-73.14 765.33,-69.18 769.29,-69.18 769.29,-69.18 852.71,-69.18 852.71,-69.18 856.67,-69.18 860.62,-73.14 860.62,-77.1 860.62,-77.1 860.62,-85.02 860.62,-85.02 860.62,-88.97 856.67,-92.93 852.71,-92.93"/>
<text text-anchor="middle" x="811" y="-75.63" font-family="Arial" font-size="14.00" fill="#cfffac">../constants.ts</text>
</g>
<!-- ../events/emitter.ts -->
<g id="node2" class="node">
<title>../events/emitter.ts</title>
<path fill="none" stroke="#c6c5fe" d="M677.71,-482.93C677.71,-482.93 567.29,-482.93 567.29,-482.93 563.33,-482.93 559.38,-478.97 559.38,-475.02 559.38,-475.02 559.38,-467.1 559.38,-467.1 559.38,-463.14 563.33,-459.18 567.29,-459.18 567.29,-459.18 677.71,-459.18 677.71,-459.18 681.67,-459.18 685.62,-463.14 685.62,-467.1 685.62,-467.1 685.62,-475.02 685.62,-475.02 685.62,-478.97 681.67,-482.93 677.71,-482.93"/>
<text text-anchor="middle" x="622.5" y="-465.63" font-family="Arial" font-size="14.00" fill="#c6c5fe">../events/emitter.ts</text>
</g>
<!-- ../types.ts -->
<g id="node3" class="node">
<title>../types.ts</title>
<path fill="none" stroke="#cfffac" d="M1025.08,-401.93C1025.08,-401.93 967.17,-401.93 967.17,-401.93 963.21,-401.93 959.25,-397.97 959.25,-394.02 959.25,-394.02 959.25,-386.1 959.25,-386.1 959.25,-382.14 963.21,-378.18 967.17,-378.18 967.17,-378.18 1025.08,-378.18 1025.08,-378.18 1029.04,-378.18 1033,-382.14 1033,-386.1 1033,-386.1 1033,-394.02 1033,-394.02 1033,-397.97 1029.04,-401.93 1025.08,-401.93"/>
<text text-anchor="middle" x="996.12" y="-384.63" font-family="Arial" font-size="14.00" fill="#cfffac">../types.ts</text>
</g>
<!-- ../events/emitter.ts&#45;&gt;../types.ts -->
<g id="edge1" class="edge">
<title>../events/emitter.ts&#45;&gt;../types.ts</title>
<path fill="none" stroke="#757575" d="M685.93,-470.13C740.11,-467.92 820.17,-461.3 887.25,-442.06 914.78,-434.16 943.91,-419.71 964.95,-408.04"/>
<polygon fill="#757575" stroke="#757575" points="966.59,-411.14 973.56,-403.16 963.14,-405.05 966.59,-411.14"/>
</g>
<!-- ../events/index.ts -->
<g id="node4" class="node">
<title>../events/index.ts</title>
<path fill="none" stroke="#c6c5fe" d="M459.21,-482.93C459.21,-482.93 357.79,-482.93 357.79,-482.93 353.83,-482.93 349.88,-478.97 349.88,-475.02 349.88,-475.02 349.88,-467.1 349.88,-467.1 349.88,-463.14 353.83,-459.18 357.79,-459.18 357.79,-459.18 459.21,-459.18 459.21,-459.18 463.17,-459.18 467.12,-463.14 467.12,-467.1 467.12,-467.1 467.12,-475.02 467.12,-475.02 467.12,-478.97 463.17,-482.93 459.21,-482.93"/>
<text text-anchor="middle" x="408.5" y="-465.63" font-family="Arial" font-size="14.00" fill="#c6c5fe">../events/index.ts</text>
</g>
<!-- ../events/index.ts&#45;&gt;../events/emitter.ts -->
<g id="edge2" class="edge">
<title>../events/index.ts&#45;&gt;../events/emitter.ts</title>
<path fill="none" stroke="#757575" d="M467.43,-471.06C492.21,-471.06 521.43,-471.06 547.72,-471.06"/>
<polygon fill="#757575" stroke="#757575" points="547.67,-474.56 557.67,-471.06 547.67,-467.56 547.67,-474.56"/>
</g>
<!-- ../features/scrollbar/controller.ts -->
<g id="node5" class="node">
<title>../features/scrollbar/controller.ts</title>
<path fill="none" stroke="#c6c5fe" d="M502.33,-166.93C502.33,-166.93 314.67,-166.93 314.67,-166.93 310.71,-166.93 306.75,-162.97 306.75,-159.02 306.75,-159.02 306.75,-151.1 306.75,-151.1 306.75,-147.14 310.71,-143.18 314.67,-143.18 314.67,-143.18 502.33,-143.18 502.33,-143.18 506.29,-143.18 510.25,-147.14 510.25,-151.1 510.25,-151.1 510.25,-159.02 510.25,-159.02 510.25,-162.97 506.29,-166.93 502.33,-166.93"/>
<text text-anchor="middle" x="408.5" y="-149.63" font-family="Arial" font-size="14.00" fill="#c6c5fe">../features/scrollbar/controller.ts</text>
</g>
<!-- ../rendering/scale.ts -->
<g id="node6" class="node">
<title>../rendering/scale.ts</title>
<path fill="none" stroke="#c6c5fe" d="M681.46,-128.93C681.46,-128.93 563.54,-128.93 563.54,-128.93 559.58,-128.93 555.62,-124.97 555.62,-121.02 555.62,-121.02 555.62,-113.1 555.62,-113.1 555.62,-109.14 559.58,-105.18 563.54,-105.18 563.54,-105.18 681.46,-105.18 681.46,-105.18 685.42,-105.18 689.38,-109.14 689.38,-113.1 689.38,-113.1 689.38,-121.02 689.38,-121.02 689.38,-124.97 685.42,-128.93 681.46,-128.93"/>
<text text-anchor="middle" x="622.5" y="-111.63" font-family="Arial" font-size="14.00" fill="#c6c5fe">../rendering/scale.ts</text>
</g>
<!-- ../features/scrollbar/controller.ts&#45;&gt;../rendering/scale.ts -->
<g id="edge3" class="edge">
<title>../features/scrollbar/controller.ts&#45;&gt;../rendering/scale.ts</title>
<path fill="none" stroke="#757575" d="M478.33,-142.72C499.33,-138.96 522.57,-134.79 544.1,-130.93"/>
<polygon fill="#757575" stroke="#757575" points="544.47,-134.42 553.69,-129.21 543.23,-127.53 544.47,-134.42"/>
</g>
<!-- ../rendering/scale.ts&#45;&gt;../constants.ts -->
<g id="edge11" class="edge">
<title>../rendering/scale.ts&#45;&gt;../constants.ts</title>
<path fill="none" stroke="#757575" d="M687.42,-104.72C707.61,-100.82 729.85,-96.53 749.77,-92.68"/>
<polygon fill="#757575" stroke="#757575" points="750.25,-96.16 759.4,-90.83 748.92,-89.28 750.25,-96.16"/>
</g>
<!-- ../rendering/scale.ts&#45;&gt;../types.ts -->
<g id="edge13" class="edge">
<title>../rendering/scale.ts&#45;&gt;../types.ts</title>
<path fill="none" stroke="#757575" d="M689.77,-124.18C747.34,-133.33 830.22,-153.97 887.25,-200.06 942.98,-245.1 975.2,-327.12 988.26,-367.03"/>
<polygon fill="#757575" stroke="#757575" points="984.85,-367.82 991.19,-376.31 991.52,-365.72 984.85,-367.82"/>
</g>
<!-- ../rendering/heights.ts -->
<g id="node7" class="node">
<title>../rendering/heights.ts</title>
<path fill="none" stroke="#cfffac" d="M1061.08,-170.93C1061.08,-170.93 931.17,-170.93 931.17,-170.93 927.21,-170.93 923.25,-166.97 923.25,-163.02 923.25,-163.02 923.25,-155.1 923.25,-155.1 923.25,-151.14 927.21,-147.18 931.17,-147.18 931.17,-147.18 1061.08,-147.18 1061.08,-147.18 1065.04,-147.18 1069,-151.14 1069,-155.1 1069,-155.1 1069,-163.02 1069,-163.02 1069,-166.97 1065.04,-170.93 1061.08,-170.93"/>
<text text-anchor="middle" x="996.12" y="-153.63" font-family="Arial" font-size="14.00" fill="#cfffac">../rendering/heights.ts</text>
</g>
<!-- ../rendering/scale.ts&#45;&gt;../rendering/heights.ts -->
<g id="edge12" class="edge">
<title>../rendering/scale.ts&#45;&gt;../rendering/heights.ts</title>
<path fill="none" stroke="#757575" d="M640.96,-104.76C662.03,-90.75 699.1,-68.66 734.75,-60.06 800.64,-44.16 824.09,-35.47 887.25,-60.06 927.22,-75.62 961.37,-113.68 980,-137.82"/>
<polygon fill="#757575" stroke="#757575" points="977.1,-139.78 985.89,-145.7 982.71,-135.59 977.1,-139.78"/>
</g>
<!-- ../rendering/index.ts -->
<g id="node8" class="node">
<title>../rendering/index.ts</title>
<path fill="none" stroke="#c6c5fe" d="M467.83,-208.93C467.83,-208.93 349.17,-208.93 349.17,-208.93 345.21,-208.93 341.25,-204.97 341.25,-201.02 341.25,-201.02 341.25,-193.1 341.25,-193.1 341.25,-189.14 345.21,-185.18 349.17,-185.18 349.17,-185.18 467.83,-185.18 467.83,-185.18 471.79,-185.18 475.75,-189.14 475.75,-193.1 475.75,-193.1 475.75,-201.02 475.75,-201.02 475.75,-204.97 471.79,-208.93 467.83,-208.93"/>
<text text-anchor="middle" x="408.5" y="-191.63" font-family="Arial" font-size="14.00" fill="#c6c5fe">../rendering/index.ts</text>
</g>
<!-- ../rendering/index.ts&#45;&gt;../rendering/scale.ts -->
<g id="edge6" class="edge">
<title>../rendering/index.ts&#45;&gt;../rendering/scale.ts</title>
<path fill="none" stroke="#757575" d="M476.01,-188.48C487.8,-185.5 499.68,-181.48 510.25,-176.06 529.56,-166.16 527.6,-154.17 546.25,-143.06 552.25,-139.48 558.81,-136.31 565.48,-133.51"/>
<polygon fill="#757575" stroke="#757575" points="566.53,-136.86 574.58,-129.98 563.99,-130.34 566.53,-136.86"/>
</g>
<!-- ../rendering/index.ts&#45;&gt;../rendering/heights.ts -->
<g id="edge4" class="edge">
<title>../rendering/index.ts&#45;&gt;../rendering/heights.ts</title>
<path fill="none" stroke="#757575" d="M476.08,-185.27C498.33,-181.75 523.3,-178.25 546.25,-176.06 673.37,-163.93 821.52,-160.36 911.79,-159.37"/>
<polygon fill="#757575" stroke="#757575" points="911.57,-162.87 921.53,-159.27 911.5,-155.87 911.57,-162.87"/>
</g>
<!-- ../rendering/renderer.ts -->
<g id="node9" class="node">
<title>../rendering/renderer.ts</title>
<path fill="none" stroke="#c6c5fe" d="M690.83,-208.93C690.83,-208.93 554.17,-208.93 554.17,-208.93 550.21,-208.93 546.25,-204.97 546.25,-201.02 546.25,-201.02 546.25,-193.1 546.25,-193.1 546.25,-189.14 550.21,-185.18 554.17,-185.18 554.17,-185.18 690.83,-185.18 690.83,-185.18 694.79,-185.18 698.75,-189.14 698.75,-193.1 698.75,-193.1 698.75,-201.02 698.75,-201.02 698.75,-204.97 694.79,-208.93 690.83,-208.93"/>
<text text-anchor="middle" x="622.5" y="-191.63" font-family="Arial" font-size="14.00" fill="#c6c5fe">../rendering/renderer.ts</text>
</g>
<!-- ../rendering/index.ts&#45;&gt;../rendering/renderer.ts -->
<g id="edge5" class="edge">
<title>../rendering/index.ts&#45;&gt;../rendering/renderer.ts</title>
<path fill="none" stroke="#757575" d="M476,-197.06C494.57,-197.06 515.04,-197.06 534.6,-197.06"/>
<polygon fill="#757575" stroke="#757575" points="534.49,-200.56 544.49,-197.06 534.49,-193.56 534.49,-200.56"/>
</g>
<!-- ../rendering/viewport.ts -->
<g id="node10" class="node">
<title>../rendering/viewport.ts</title>
<path fill="none" stroke="#c6c5fe" d="M879.33,-286.93C879.33,-286.93 742.67,-286.93 742.67,-286.93 738.71,-286.93 734.75,-282.97 734.75,-279.02 734.75,-279.02 734.75,-271.1 734.75,-271.1 734.75,-267.14 738.71,-263.18 742.67,-263.18 742.67,-263.18 879.33,-263.18 879.33,-263.18 883.29,-263.18 887.25,-267.14 887.25,-271.1 887.25,-271.1 887.25,-279.02 887.25,-279.02 887.25,-282.97 883.29,-286.93 879.33,-286.93"/>
<text text-anchor="middle" x="811" y="-269.63" font-family="Arial" font-size="14.00" fill="#c6c5fe">../rendering/viewport.ts</text>
</g>
<!-- ../rendering/index.ts&#45;&gt;../rendering/viewport.ts -->
<g id="edge7" class="edge">
<title>../rendering/index.ts&#45;&gt;../rendering/viewport.ts</title>
<path fill="none" stroke="#757575" d="M472.96,-209.42C544.33,-223.32 660.11,-245.87 735.66,-260.58"/>
<polygon fill="#757575" stroke="#757575" points="734.54,-263.93 745.02,-262.4 735.87,-257.06 734.54,-263.93"/>
</g>
<!-- ../rendering/renderer.ts&#45;&gt;../types.ts -->
<g id="edge10" class="edge">
<title>../rendering/renderer.ts&#45;&gt;../types.ts</title>
<path fill="none" stroke="#757575" d="M699.05,-199.89C754.74,-205.03 830.37,-218.67 887.25,-254.06 932.83,-282.41 967.21,-337.15 983.9,-367.83"/>
<polygon fill="#757575" stroke="#757575" points="980.78,-369.4 988.54,-376.61 986.97,-366.14 980.78,-369.4"/>
</g>
<!-- ../rendering/renderer.ts&#45;&gt;../rendering/heights.ts -->
<g id="edge8" class="edge">
<title>../rendering/renderer.ts&#45;&gt;../rendering/heights.ts</title>
<path fill="none" stroke="#757575" d="M699.18,-190.95C751.95,-186.49 823.95,-180.04 887.25,-173.06 895.19,-172.18 903.44,-171.21 911.7,-170.21"/>
<polygon fill="#757575" stroke="#757575" points="911.93,-173.71 921.43,-169 911.07,-166.76 911.93,-173.71"/>
</g>
<!-- ../rendering/renderer.ts&#45;&gt;../rendering/viewport.ts -->
<g id="edge9" class="edge">
<title>../rendering/renderer.ts&#45;&gt;../rendering/viewport.ts</title>
<path fill="none" stroke="#757575" d="M666.2,-209.39C677.08,-213.18 688.57,-217.77 698.75,-223.06 716.26,-232.16 717.24,-239.96 734.75,-249.06 741.67,-252.65 749.19,-255.93 756.72,-258.84"/>
<polygon fill="#757575" stroke="#757575" points="755.28,-262.05 765.88,-262.21 757.7,-255.47 755.28,-262.05"/>
</g>
<!-- ../rendering/viewport.ts&#45;&gt;../types.ts -->
<g id="edge15" class="edge">
<title>../rendering/viewport.ts&#45;&gt;../types.ts</title>
<path fill="none" stroke="#757575" d="M831.6,-287.37C863.95,-307.68 928.7,-348.34 966.28,-371.95"/>
<polygon fill="#757575" stroke="#757575" points="964.06,-374.68 974.39,-377.03 967.78,-368.75 964.06,-374.68"/>
</g>
<!-- ../rendering/viewport.ts&#45;&gt;../rendering/heights.ts -->
<g id="edge14" class="edge">
<title>../rendering/viewport.ts&#45;&gt;../rendering/heights.ts</title>
<path fill="none" stroke="#757575" d="M831.25,-262.86C863.54,-242.41 928.75,-201.1 966.45,-177.22"/>
<polygon fill="#757575" stroke="#757575" points="968,-180.38 974.58,-172.07 964.26,-174.47 968,-180.38"/>
</g>
<!-- context.ts -->
<g id="node11" class="node">
<title>context.ts</title>
<path fill="none" stroke="#c6c5fe" d="M164.33,-305.93C164.33,-305.93 106.42,-305.93 106.42,-305.93 102.46,-305.93 98.5,-301.97 98.5,-298.02 98.5,-298.02 98.5,-290.1 98.5,-290.1 98.5,-286.14 102.46,-282.18 106.42,-282.18 106.42,-282.18 164.33,-282.18 164.33,-282.18 168.29,-282.18 172.25,-286.14 172.25,-290.1 172.25,-290.1 172.25,-298.02 172.25,-298.02 172.25,-301.97 168.29,-305.93 164.33,-305.93"/>
<text text-anchor="middle" x="135.38" y="-288.63" font-family="Arial" font-size="14.00" fill="#c6c5fe">context.ts</text>
</g>
<!-- context.ts&#45;&gt;../events/emitter.ts -->
<g id="edge16" class="edge">
<title>context.ts&#45;&gt;../events/emitter.ts</title>
<path fill="none" stroke="#757575" d="M140.66,-306.18C152.46,-338.97 186.01,-428.45 208.25,-450.06 242.38,-483.22 260.12,-482.53 306.75,-492.06 391.66,-509.41 491.87,-497.28 556.01,-485.49"/>
<polygon fill="#757575" stroke="#757575" points="556.51,-488.96 565.68,-483.66 555.2,-482.08 556.51,-488.96"/>
</g>
<!-- context.ts&#45;&gt;../types.ts -->
<g id="edge21" class="edge">
<title>context.ts&#45;&gt;../types.ts</title>
<path fill="none" stroke="#757575" d="M172.73,-298.12C309.47,-313.41 793.01,-367.46 947.38,-384.72"/>
<polygon fill="#757575" stroke="#757575" points="946.93,-388.19 957.26,-385.83 947.71,-381.24 946.93,-388.19"/>
</g>
<!-- context.ts&#45;&gt;../features/scrollbar/controller.ts -->
<g id="edge17" class="edge">
<title>context.ts&#45;&gt;../features/scrollbar/controller.ts</title>
<path fill="none" stroke="#757575" d="M146.54,-281.74C159.6,-266.49 183.56,-240.4 208.25,-223.06 247.95,-195.18 260.79,-191.56 306.75,-176.06 312.99,-173.95 319.51,-172.02 326.12,-170.25"/>
<polygon fill="#757575" stroke="#757575" points="326.97,-173.65 335.81,-167.8 325.25,-166.86 326.97,-173.65"/>
</g>
<!-- context.ts&#45;&gt;../rendering/heights.ts -->
<g id="edge18" class="edge">
<title>context.ts&#45;&gt;../rendering/heights.ts</title>
<path fill="none" stroke="#757575" d="M140.64,-281.92C160.84,-226.85 252.48,-3.06 407.5,-3.06 407.5,-3.06 407.5,-3.06 623.5,-3.06 741.93,-3.06 782.57,14.33 887.25,-41.06 929.89,-63.62 964.35,-109.93 982.09,-137.35"/>
<polygon fill="#757575" stroke="#757575" points="978.96,-138.95 987.25,-145.56 984.89,-135.23 978.96,-138.95"/>
</g>
<!-- context.ts&#45;&gt;../rendering/renderer.ts -->
<g id="edge19" class="edge">
<title>context.ts&#45;&gt;../rendering/renderer.ts</title>
<path fill="none" stroke="#757575" d="M158.71,-281.77C172.58,-274.65 190.99,-266.13 208.25,-261.06 338.32,-222.82 376.49,-240.19 510.25,-218.06 522.35,-216.06 535.16,-213.78 547.62,-211.49"/>
<polygon fill="#757575" stroke="#757575" points="548.25,-214.93 557.44,-209.66 546.97,-208.05 548.25,-214.93"/>
</g>
<!-- context.ts&#45;&gt;../rendering/viewport.ts -->
<g id="edge20" class="edge">
<title>context.ts&#45;&gt;../rendering/viewport.ts</title>
<path fill="none" stroke="#757575" d="M172.59,-293.04C275.87,-290.12 573.94,-281.72 722.99,-277.51"/>
<polygon fill="#757575" stroke="#757575" points="722.92,-281.02 732.81,-277.24 722.72,-274.02 722.92,-281.02"/>
</g>
<!-- data.ts -->
<g id="node12" class="node">
<title>data.ts</title>
<path fill="none" stroke="#c6c5fe" d="M428.83,-440.93C428.83,-440.93 388.17,-440.93 388.17,-440.93 384.21,-440.93 380.25,-436.97 380.25,-433.02 380.25,-433.02 380.25,-425.1 380.25,-425.1 380.25,-421.14 384.21,-417.18 388.17,-417.18 388.17,-417.18 428.83,-417.18 428.83,-417.18 432.79,-417.18 436.75,-421.14 436.75,-425.1 436.75,-425.1 436.75,-433.02 436.75,-433.02 436.75,-436.97 432.79,-440.93 428.83,-440.93"/>
<text text-anchor="middle" x="408.5" y="-423.63" font-family="Arial" font-size="14.00" fill="#c6c5fe">data.ts</text>
</g>
<!-- context.ts&#45;&gt;data.ts -->
<g id="edge22" class="edge">
<title>context.ts&#45;&gt;data.ts</title>
<path fill="none" stroke="#757575" d="M160.91,-306.28C209.29,-330.36 317.07,-384.03 372.74,-411.75"/>
<polygon fill="#757575" stroke="#757575" points="370.95,-414.77 381.47,-416.1 374.07,-408.51 370.95,-414.77"/>
</g>
<!-- types.ts -->
<g id="node13" class="node">
<title>types.ts</title>
<path fill="none" stroke="#c6c5fe" d="M262.83,-440.93C262.83,-440.93 216.17,-440.93 216.17,-440.93 212.21,-440.93 208.25,-436.97 208.25,-433.02 208.25,-433.02 208.25,-425.1 208.25,-425.1 208.25,-421.14 212.21,-417.18 216.17,-417.18 216.17,-417.18 262.83,-417.18 262.83,-417.18 266.79,-417.18 270.75,-421.14 270.75,-425.1 270.75,-425.1 270.75,-433.02 270.75,-433.02 270.75,-436.97 266.79,-440.93 262.83,-440.93"/>
<text text-anchor="middle" x="239.5" y="-423.63" font-family="Arial" font-size="14.00" fill="#c6c5fe">types.ts</text>
</g>
<!-- context.ts&#45;&gt;types.ts -->
<g id="edge23" class="edge">
<title>context.ts&#45;&gt;types.ts</title>
<path fill="none" stroke="#757575" d="M142.93,-306.27C154.53,-327.28 180.09,-371.07 208.25,-403.06 210.13,-405.2 212.19,-407.32 214.32,-409.37"/>
<polygon fill="#757575" stroke="#757575" points="211.76,-411.78 221.53,-415.86 216.44,-406.57 211.76,-411.78"/>
</g>
<!-- data.ts&#45;&gt;../types.ts -->
<g id="edge27" class="edge">
<title>data.ts&#45;&gt;../types.ts</title>
<path fill="none" stroke="#757575" d="M436.96,-427.23C529.44,-421.07 830.29,-401.04 947.64,-393.22"/>
<polygon fill="#757575" stroke="#757575" points="947.81,-396.72 957.55,-392.56 947.34,-389.73 947.81,-396.72"/>
</g>
<!-- types.ts&#45;&gt;../types.ts -->
<g id="edge34" class="edge">
<title>types.ts&#45;&gt;../types.ts</title>
<path fill="none" stroke="#757575" d="M248.84,-441.42C259.96,-456.68 281.25,-481.87 306.75,-492.06 468.54,-556.7 524.88,-503.08 698.75,-492.06 783.03,-486.71 808.71,-499.1 887.25,-468.06 920.99,-454.73 953.91,-428.42 974.33,-410.06"/>
<polygon fill="#757575" stroke="#757575" points="976.7,-412.64 981.68,-403.29 971.95,-407.49 976.7,-412.64"/>
</g>
<!-- types.ts&#45;&gt;../events/index.ts -->
<g id="edge30" class="edge">
<title>types.ts&#45;&gt;../events/index.ts</title>
<path fill="none" stroke="#757575" d="M270.99,-439.43C282.16,-443.05 294.96,-446.97 306.75,-450.06 316.95,-452.73 327.8,-455.29 338.46,-457.64"/>
<polygon fill="#757575" stroke="#757575" points="337.47,-461 347.98,-459.69 338.94,-454.16 337.47,-461"/>
</g>
<!-- types.ts&#45;&gt;../features/scrollbar/controller.ts -->
<g id="edge31" class="edge">
<title>types.ts&#45;&gt;../features/scrollbar/controller.ts</title>
<path fill="none" stroke="#757575" d="M241.99,-416.88C247.85,-371.11 270.72,-210.31 306.75,-176.06 307.51,-175.33 308.3,-174.63 309.1,-173.94"/>
<polygon fill="#757575" stroke="#757575" points="310.91,-176.95 317.04,-168.3 306.86,-171.24 310.91,-176.95"/>
</g>
<!-- types.ts&#45;&gt;../rendering/index.ts -->
<g id="edge32" class="edge">
<title>types.ts&#45;&gt;../rendering/index.ts</title>
<path fill="none" stroke="#757575" d="M249.24,-416.91C276.12,-379.57 357.79,-266.12 392.08,-218.48"/>
<polygon fill="#757575" stroke="#757575" points="394.76,-220.75 397.76,-210.59 389.07,-216.66 394.76,-220.75"/>
</g>
<!-- types.ts&#45;&gt;../rendering/viewport.ts -->
<g id="edge33" class="edge">
<title>types.ts&#45;&gt;../rendering/viewport.ts</title>
<path fill="none" stroke="#757575" d="M270.98,-418.67C282.16,-415.05 294.96,-411.14 306.75,-408.06 478.88,-363.12 529.91,-383.11 698.75,-327.06 726.22,-317.94 755.85,-303.86 777.62,-292.66"/>
<polygon fill="#757575" stroke="#757575" points="779.05,-295.86 786.29,-288.12 775.8,-289.66 779.05,-295.86"/>
</g>
<!-- types.ts&#45;&gt;data.ts -->
<g id="edge35" class="edge">
<title>types.ts&#45;&gt;data.ts</title>
<path fill="none" stroke="#757575" d="M271.13,-429.06C298.56,-429.06 338.93,-429.06 368.63,-429.06"/>
<polygon fill="#757575" stroke="#757575" points="368.32,-432.56 378.32,-429.06 368.32,-425.56 368.32,-432.56"/>
</g>
<!-- core.ts -->
<g id="node14" class="node">
<title>core.ts</title>
<path fill="none" stroke="#c6c5fe" d="M155.71,-420.93C155.71,-420.93 115.04,-420.93 115.04,-420.93 111.08,-420.93 107.12,-416.97 107.12,-413.02 107.12,-413.02 107.12,-405.1 107.12,-405.1 107.12,-401.14 111.08,-397.18 115.04,-397.18 115.04,-397.18 155.71,-397.18 155.71,-397.18 159.67,-397.18 163.62,-401.14 163.62,-405.1 163.62,-405.1 163.62,-413.02 163.62,-413.02 163.62,-416.97 159.67,-420.93 155.71,-420.93"/>
<text text-anchor="middle" x="135.38" y="-403.63" font-family="Arial" font-size="14.00" fill="#c6c5fe">core.ts</text>
</g>
<!-- core.ts&#45;&gt;../types.ts -->
<g id="edge25" class="edge">
<title>core.ts&#45;&gt;../types.ts</title>
<path fill="none" stroke="#757575" d="M145.69,-421.29C177.49,-461.51 286.44,-587.06 407.5,-587.06 407.5,-587.06 407.5,-587.06 623.5,-587.06 747.94,-587.06 781.31,-558.35 887.25,-493.06 923.87,-470.49 958.38,-433.84 978.11,-410.89"/>
<polygon fill="#757575" stroke="#757575" points="980.64,-413.31 984.41,-403.41 975.29,-408.8 980.64,-413.31"/>
</g>
<!-- core.ts&#45;&gt;../rendering/viewport.ts -->
<g id="edge24" class="edge">
<title>core.ts&#45;&gt;../rendering/viewport.ts</title>
<path fill="none" stroke="#757575" d="M163.99,-401.7C197.6,-392.88 256.11,-377.92 306.75,-367.06 385.91,-350.08 607.55,-310.63 728.59,-289.32"/>
<polygon fill="#757575" stroke="#757575" points="728.89,-292.82 738.13,-287.64 727.67,-285.93 728.89,-292.82"/>
</g>
<!-- core.ts&#45;&gt;types.ts -->
<g id="edge26" class="edge">
<title>core.ts&#45;&gt;types.ts</title>
<path fill="none" stroke="#757575" d="M164.01,-414.47C174.1,-416.45 185.74,-418.72 196.77,-420.89"/>
<polygon fill="#757575" stroke="#757575" points="195.99,-424.3 206.48,-422.79 197.34,-417.43 195.99,-424.3"/>
</g>
<!-- index.ts -->
<g id="node15" class="node">
<title>index.ts</title>
<path fill="none" stroke="#c6c5fe" d="M54.58,-440.93C54.58,-440.93 7.92,-440.93 7.92,-440.93 3.96,-440.93 0,-436.97 0,-433.02 0,-433.02 0,-425.1 0,-425.1 0,-421.14 3.96,-417.18 7.92,-417.18 7.92,-417.18 54.58,-417.18 54.58,-417.18 58.54,-417.18 62.5,-421.14 62.5,-425.1 62.5,-425.1 62.5,-433.02 62.5,-433.02 62.5,-436.97 58.54,-440.93 54.58,-440.93"/>
<text text-anchor="middle" x="31.25" y="-423.63" font-family="Arial" font-size="14.00" fill="#c6c5fe">index.ts</text>
</g>
<!-- index.ts&#45;&gt;types.ts -->
<g id="edge29" class="edge">
<title>index.ts&#45;&gt;types.ts</title>
<path fill="none" stroke="#757575" d="M62.92,-429.62C74.12,-429.8 86.88,-429.97 98.5,-430.06 131.28,-430.31 139.47,-430.31 172.25,-430.06 180.06,-430 188.38,-429.9 196.4,-429.79"/>
<polygon fill="#757575" stroke="#757575" points="196.37,-433.29 206.31,-429.64 196.26,-426.29 196.37,-433.29"/>
</g>
<!-- index.ts&#45;&gt;core.ts -->
<g id="edge28" class="edge">
<title>index.ts&#45;&gt;core.ts</title>
<path fill="none" stroke="#757575" d="M62.89,-423.06C73.27,-421.03 84.99,-418.73 95.9,-416.59"/>
<polygon fill="#757575" stroke="#757575" points="96.26,-420.09 105.4,-414.73 94.91,-413.22 96.26,-420.09"/>
</g>
</g>
</svg>
