<?xml version="1.0" encoding="UTF-8" standalone="no"?>
<!DOCTYPE svg PUBLIC "-//W3C//DTD SVG 1.1//EN"
 "http://www.w3.org/Graphics/SVG/1.1/DTD/svg11.dtd">
<!-- Generated by graphviz version 12.2.1 (20241206.2353)
 -->
<!-- Title: G Pages: 1 -->
<svg width="474pt" height="174pt"
 viewBox="0.00 0.00 473.95 173.55" xmlns="http://www.w3.org/2000/svg" xmlns:xlink="http://www.w3.org/1999/xlink">
<g id="graph0" class="graph" transform="scale(1 1) rotate(0) translate(21.6 151.95)">
<title>G</title>
<polygon fill="#111111" stroke="none" points="-21.6,21.6 -21.6,-151.95 452.35,-151.95 452.35,21.6 -21.6,21.6"/>
<!-- ../constants.ts -->
<g id="node1" class="node">
<title>../constants.ts</title>
<path fill="none" stroke="#cfffac" d="M422.83,-130.35C422.83,-130.35 339.42,-130.35 339.42,-130.35 335.46,-130.35 331.5,-126.39 331.5,-122.43 331.5,-122.43 331.5,-114.51 331.5,-114.51 331.5,-110.56 335.46,-106.6 339.42,-106.6 339.42,-106.6 422.83,-106.6 422.83,-106.6 426.79,-106.6 430.75,-110.56 430.75,-114.51 430.75,-114.51 430.75,-122.43 430.75,-122.43 430.75,-126.39 426.79,-130.35 422.83,-130.35"/>
<text text-anchor="middle" x="381.12" y="-113.05" font-family="Arial" font-size="14.00" fill="#cfffac">../constants.ts</text>
</g>
<!-- ../types.ts -->
<g id="node2" class="node">
<title>../types.ts</title>
<path fill="none" stroke="#cfffac" d="M410.08,-88.35C410.08,-88.35 352.17,-88.35 352.17,-88.35 348.21,-88.35 344.25,-84.39 344.25,-80.43 344.25,-80.43 344.25,-72.51 344.25,-72.51 344.25,-68.56 348.21,-64.6 352.17,-64.6 352.17,-64.6 410.08,-64.6 410.08,-64.6 414.04,-64.6 418,-68.56 418,-72.51 418,-72.51 418,-80.43 418,-80.43 418,-84.39 414.04,-88.35 410.08,-88.35"/>
<text text-anchor="middle" x="381.12" y="-71.05" font-family="Arial" font-size="14.00" fill="#cfffac">../types.ts</text>
</g>
<!-- heights.ts -->
<g id="node3" class="node">
<title>heights.ts</title>
<path fill="none" stroke="#cfffac" d="M410.08,-28.35C410.08,-28.35 352.17,-28.35 352.17,-28.35 348.21,-28.35 344.25,-24.39 344.25,-20.43 344.25,-20.43 344.25,-12.51 344.25,-12.51 344.25,-8.56 348.21,-4.6 352.17,-4.6 352.17,-4.6 410.08,-4.6 410.08,-4.6 414.04,-4.6 418,-8.56 418,-12.51 418,-12.51 418,-20.43 418,-20.43 418,-24.39 414.04,-28.35 410.08,-28.35"/>
<text text-anchor="middle" x="381.12" y="-11.05" font-family="Arial" font-size="14.00" fill="#cfffac">heights.ts</text>
</g>
<!-- index.ts -->
<g id="node4" class="node">
<title>index.ts</title>
<path fill="none" stroke="#c6c5fe" d="M54.58,-68.35C54.58,-68.35 7.92,-68.35 7.92,-68.35 3.96,-68.35 0,-64.39 0,-60.43 0,-60.43 0,-52.51 0,-52.51 0,-48.56 3.96,-44.6 7.92,-44.6 7.92,-44.6 54.58,-44.6 54.58,-44.6 58.54,-44.6 62.5,-48.56 62.5,-52.51 62.5,-52.51 62.5,-60.43 62.5,-60.43 62.5,-64.39 58.54,-68.35 54.58,-68.35"/>
<text text-anchor="middle" x="31.25" y="-51.05" font-family="Arial" font-size="14.00" fill="#c6c5fe">index.ts</text>
</g>
<!-- index.ts&#45;&gt;heights.ts -->
<g id="edge1" class="edge">
<title>index.ts&#45;&gt;heights.ts</title>
<path fill="none" stroke="#757575" d="M46.91,-44.15C59.63,-34.28 79.03,-21.19 98.5,-15.47 178.16,7.92 276.04,-0.16 332.93,-8.25"/>
<polygon fill="#757575" stroke="#757575" points="332.18,-11.68 342.59,-9.69 333.22,-4.76 332.18,-11.68"/>
</g>
<!-- renderer.ts -->
<g id="node5" class="node">
<title>renderer.ts</title>
<path fill="none" stroke="#c6c5fe" d="M171.08,-48.35C171.08,-48.35 106.42,-48.35 106.42,-48.35 102.46,-48.35 98.5,-44.39 98.5,-40.43 98.5,-40.43 98.5,-32.51 98.5,-32.51 98.5,-28.56 102.46,-24.6 106.42,-24.6 106.42,-24.6 171.08,-24.6 171.08,-24.6 175.04,-24.6 179,-28.56 179,-32.51 179,-32.51 179,-40.43 179,-40.43 179,-44.39 175.04,-48.35 171.08,-48.35"/>
<text text-anchor="middle" x="138.75" y="-31.05" font-family="Arial" font-size="14.00" fill="#c6c5fe">renderer.ts</text>
</g>
<!-- index.ts&#45;&gt;renderer.ts -->
<g id="edge2" class="edge">
<title>index.ts&#45;&gt;renderer.ts</title>
<path fill="none" stroke="#757575" d="M62.76,-50.69C70.38,-49.24 78.75,-47.66 87.05,-46.08"/>
<polygon fill="#757575" stroke="#757575" points="87.6,-49.54 96.77,-44.24 86.29,-42.67 87.6,-49.54"/>
</g>
<!-- scale.ts -->
<g id="node6" class="node">
<title>scale.ts</title>
<path fill="none" stroke="#c6c5fe" d="M278.21,-130.35C278.21,-130.35 232.29,-130.35 232.29,-130.35 228.33,-130.35 224.38,-126.39 224.38,-122.43 224.38,-122.43 224.38,-114.51 224.38,-114.51 224.38,-110.56 228.33,-106.6 232.29,-106.6 232.29,-106.6 278.21,-106.6 278.21,-106.6 282.17,-106.6 286.12,-110.56 286.12,-114.51 286.12,-114.51 286.12,-122.43 286.12,-122.43 286.12,-126.39 282.17,-130.35 278.21,-130.35"/>
<text text-anchor="middle" x="255.25" y="-113.05" font-family="Arial" font-size="14.00" fill="#c6c5fe">scale.ts</text>
</g>
<!-- index.ts&#45;&gt;scale.ts -->
<g id="edge3" class="edge">
<title>index.ts&#45;&gt;scale.ts</title>
<path fill="none" stroke="#757575" d="M62.69,-68.28C73.87,-72.41 86.67,-76.9 98.5,-80.47 136.94,-92.09 181.52,-102.68 213.12,-109.71"/>
<polygon fill="#757575" stroke="#757575" points="212.14,-113.08 222.65,-111.81 213.64,-106.25 212.14,-113.08"/>
</g>
<!-- viewport.ts -->
<g id="node7" class="node">
<title>viewport.ts</title>
<path fill="none" stroke="#c6c5fe" d="M287.58,-88.35C287.58,-88.35 222.92,-88.35 222.92,-88.35 218.96,-88.35 215,-84.39 215,-80.43 215,-80.43 215,-72.51 215,-72.51 215,-68.56 218.96,-64.6 222.92,-64.6 222.92,-64.6 287.58,-64.6 287.58,-64.6 291.54,-64.6 295.5,-68.56 295.5,-72.51 295.5,-72.51 295.5,-80.43 295.5,-80.43 295.5,-84.39 291.54,-88.35 287.58,-88.35"/>
<text text-anchor="middle" x="255.25" y="-71.05" font-family="Arial" font-size="14.00" fill="#c6c5fe">viewport.ts</text>
</g>
<!-- index.ts&#45;&gt;viewport.ts -->
<g id="edge4" class="edge">
<title>index.ts&#45;&gt;viewport.ts</title>
<path fill="none" stroke="#757575" d="M62.65,-59.21C98.95,-62.48 160.2,-68 203.67,-71.92"/>
<polygon fill="#757575" stroke="#757575" points="203.09,-75.38 213.36,-72.79 203.72,-68.41 203.09,-75.38"/>
</g>
<!-- renderer.ts&#45;&gt;../types.ts -->
<g id="edge5" class="edge">
<title>renderer.ts&#45;&gt;../types.ts</title>
<path fill="none" stroke="#757575" d="M179.32,-39.96C210.92,-43.06 256.25,-48.24 295.5,-55.47 307.81,-57.74 321,-60.74 333.21,-63.75"/>
<polygon fill="#757575" stroke="#757575" points="332.08,-67.07 342.63,-66.13 333.79,-60.29 332.08,-67.07"/>
</g>
<!-- renderer.ts&#45;&gt;heights.ts -->
<g id="edge6" class="edge">
<title>renderer.ts&#45;&gt;heights.ts</title>
<path fill="none" stroke="#757575" d="M179.42,-27.96C190.85,-25.81 203.38,-23.76 215,-22.47 254.53,-18.1 299.68,-16.71 332.77,-16.34"/>
<polygon fill="#757575" stroke="#757575" points="332.45,-19.85 342.42,-16.27 332.39,-12.85 332.45,-19.85"/>
</g>
<!-- renderer.ts&#45;&gt;viewport.ts -->
<g id="edge7" class="edge">
<title>renderer.ts&#45;&gt;viewport.ts</title>
<path fill="none" stroke="#757575" d="M175.04,-48.8C185.49,-52.45 197.08,-56.5 208.11,-60.35"/>
<polygon fill="#757575" stroke="#757575" points="206.86,-63.62 217.45,-63.62 209.17,-57.02 206.86,-63.62"/>
</g>
<!-- scale.ts&#45;&gt;../constants.ts -->
<g id="edge8" class="edge">
<title>scale.ts&#45;&gt;../constants.ts</title>
<path fill="none" stroke="#757575" d="M286.55,-118.47C296.65,-118.47 308.29,-118.47 319.84,-118.47"/>
<polygon fill="#757575" stroke="#757575" points="319.8,-121.97 329.8,-118.47 319.8,-114.97 319.8,-121.97"/>
</g>
<!-- scale.ts&#45;&gt;../types.ts -->
<g id="edge9" class="edge">
<title>scale.ts&#45;&gt;../types.ts</title>
<path fill="none" stroke="#757575" d="M286.55,-108.2C300.64,-103.42 317.7,-97.64 333.38,-92.32"/>
<polygon fill="#757575" stroke="#757575" points="334.19,-95.74 342.53,-89.22 331.94,-89.12 334.19,-95.74"/>
</g>
<!-- scale.ts&#45;&gt;heights.ts -->
<g id="edge10" class="edge">
<title>scale.ts&#45;&gt;heights.ts</title>
<path fill="none" stroke="#757575" d="M282.45,-106.22C286.99,-103.61 291.52,-100.67 295.5,-97.47 314.67,-82.08 313.83,-72.57 331.5,-55.47 338.58,-48.62 346.77,-41.72 354.38,-35.66"/>
<polygon fill="#757575" stroke="#757575" points="356.33,-38.58 362.08,-29.68 352.04,-33.05 356.33,-38.58"/>
</g>
<!-- viewport.ts&#45;&gt;../types.ts -->
<g id="edge11" class="edge">
<title>viewport.ts&#45;&gt;../types.ts</title>
<path fill="none" stroke="#757575" d="M295.79,-76.47C307.48,-76.47 320.41,-76.47 332.56,-76.47"/>
<polygon fill="#757575" stroke="#757575" points="332.39,-79.97 342.39,-76.47 332.39,-72.97 332.39,-79.97"/>
</g>
<!-- viewport.ts&#45;&gt;heights.ts -->
<g id="edge12" class="edge">
<title>viewport.ts&#45;&gt;heights.ts</title>
<path fill="none" stroke="#757575" d="M281.62,-64.19C299.74,-55.41 324.36,-43.48 344.46,-33.75"/>
<polygon fill="#757575" stroke="#757575" points="345.96,-36.91 353.43,-29.4 342.9,-30.61 345.96,-36.91"/>
</g>
</g>
</svg>
